<?xml version="1.0" encoding="UTF-8"?>
<svg version="1.1" xmlns="http://www.w3.org/2000/svg" width="424" height="625">
<path d="M0 0 C1.9010579 -0.37374616 1.9010579 -0.37374616 4.27144146 -0.3719368 C5.62423845 -0.38182156 5.62423845 -0.38182156 7.00436467 -0.39190602 C8.00151976 -0.38384962 8.99867484 -0.37579321 10.02604675 -0.36749268 C11.0804567 -0.37076152 12.13486665 -0.37403036 13.22122842 -0.37739825 C16.77808147 -0.38471991 20.3345291 -0.37048233 23.89135742 -0.35644531 C26.43198721 -0.35723563 28.97261688 -0.35933117 31.51324463 -0.36264038 C37.71305742 -0.36725523 43.91271805 -0.35793803 50.1125088 -0.34235242 C57.33175344 -0.32483736 64.55097395 -0.32339363 71.77023653 -0.32273683 C84.65454959 -0.32104718 97.53880644 -0.30521569 110.4230957 -0.28125 C122.92375149 -0.25801475 135.42437162 -0.24382881 147.92504883 -0.24023438 C148.69419741 -0.24001161 149.463346 -0.23978884 150.25580212 -0.23955932 C151.80527981 -0.23911672 153.35475751 -0.23867469 154.9042352 -0.23823325 C156.05077872 -0.2379039 156.05077872 -0.2379039 157.22048473 -0.2375679 C158.36414068 -0.23724392 158.36414068 -0.23724392 159.53090079 -0.2369134 C171.44168179 -0.23320889 183.35245704 -0.22184719 195.26323172 -0.2094375 C199.57916469 -0.2050062 203.89509711 -0.20156624 208.21103146 -0.19881538 C215.70299077 -0.19396037 223.19491355 -0.18382833 230.68685913 -0.16798782 C233.17531905 -0.16346881 235.66378267 -0.1606271 238.15224648 -0.15958023 C241.54787017 -0.15783134 244.94342543 -0.1499398 248.33903503 -0.14044189 C249.32503651 -0.14130838 250.31103799 -0.14217486 251.3269183 -0.1430676 C265.59243313 -0.08317503 265.59243313 -0.08317503 270.51171875 4.46484375 C278 12.18897638 278 12.18897638 278 15 C278.55171875 15.22300781 279.1034375 15.44601563 279.671875 15.67578125 C282.7305676 17.41554097 284.8073812 19.65764482 287.25 22.1875 C290.47395024 25.49371582 293.7178059 28.70721123 297.25 31.6875 C300.6436533 34.58147429 303.51553067 37.74746885 306.40234375 41.140625 C309.33874348 44.55804865 312.25088439 47.5005896 316 50 C316 50.99 316 51.98 316 53 C316.8353125 53.3403125 316.8353125 53.3403125 317.6875 53.6875 C321.31799803 55.74805294 324.22600435 58.40647953 326.0625 62.1875 C326.8496324 64.14530243 326.8496324 64.14530243 328.796875 64.8984375 C331.272208 66.136104 333.10429899 67.62007323 335.1875 69.4375 C335.88230469 70.03433594 336.57710938 70.63117188 337.29296875 71.24609375 C340.17716679 74.20949173 340.12554903 77.05825559 340.12863445 80.9917593 C340.1318589 82.02896695 340.13508335 83.06617459 340.1384055 84.13481277 C340.1368569 85.27815033 340.1353083 86.42148789 340.13371277 87.59947205 C340.13597833 88.81142874 340.13824388 90.02338543 340.14057809 91.27206808 C340.14582597 94.64312416 340.14656075 98.01412704 340.14538372 101.38518345 C340.14518002 105.01965095 340.15069612 108.65411043 340.15544128 112.28857422 C340.16376095 119.41834152 340.16649689 126.54810055 340.16705366 133.67787229 C340.16752908 139.48562844 340.16958514 145.29338187 340.17275429 151.10113716 C340.18157159 167.5981716 340.18617306 184.09519952 340.18542381 200.59223633 C340.18536388 201.92728614 340.18536388 201.92728614 340.18530273 203.28930664 C340.18526185 204.18044049 340.18522097 205.07157434 340.18517885 205.98971225 C340.18477413 220.36833819 340.19429684 234.74693772 340.2084411 249.12555604 C340.22287798 263.91991044 340.229707 278.71425204 340.22884732 293.50861365 C340.22851742 301.80151421 340.23117175 310.09438725 340.24202538 318.38728142 C340.25122797 325.46406917 340.25322778 332.54081697 340.24651595 339.61760818 C340.24329646 343.21597423 340.24302291 346.81426411 340.2518692 350.41262245 C340.30456356 373.28486202 339.79966548 396.30376492 336.1875 418.9375 C335.92876099 420.59628174 335.92876099 420.59628174 335.66479492 422.28857422 C332.3776444 442.62113165 327.92887573 465.28342151 317 483 C316.16599601 485.05720985 315.45747354 487.12848213 314.74609375 489.23046875 C314 491 314 491 312 493 C311.71125 493.721875 311.4225 494.44375 311.125 495.1875 C308.87406901 500.81482747 305.80443403 505.33650022 302 510 C301.56945312 510.74378906 301.13890625 511.48757813 300.6953125 512.25390625 C298.69367073 515.49619696 296.37343401 518.39434324 293.9375 521.3125 C293.26750977 522.13717773 293.26750977 522.13717773 292.58398438 522.97851562 C291.436333 524.35947131 290.22269556 525.68502553 289 527 C288.34 527 287.68 527 287 527 C286.86851562 527.88365234 286.86851562 527.88365234 286.734375 528.78515625 C285.80267808 531.59511452 284.53211708 532.5800626 282.25 534.4375 C279.77320599 536.49780271 277.40399602 538.53649503 275.1875 540.875 C273 543 273 543 270 544 C270 544.66 270 545.32 270 546 C265.61538462 549 265.61538462 549 263 549 C262.67 549.99 262.34 550.98 262 552 C257.66666667 555 257.66666667 555 255 555 C255 555.66 255 556.32 255 557 C253.14531184 557.92734408 251.2902634 558.85397328 249.43359375 559.77734375 C247.73203897 560.63221798 246.03720414 561.50054041 244.34765625 562.37890625 C243.46980469 562.83136719 242.59195312 563.28382813 241.6875 563.75 C240.86636719 564.17796875 240.04523438 564.6059375 239.19921875 565.046875 C237 566 237 566 234 566 C234 566.66 234 567.32 234 568 C224.73276883 572.04682584 215.6697519 575.02853594 205.77734375 577.140625 C202.11946894 577.89631831 202.11946894 577.89631831 199.16088867 579.00268555 C195.93596193 580.02020511 193.00853118 580.47596178 189.6484375 580.81640625 C188.46765625 580.94080078 187.286875 581.06519531 186.0703125 581.19335938 C184.24113281 581.37608398 184.24113281 581.37608398 182.375 581.5625 C179.94506162 581.81136449 177.51536114 582.06256603 175.0859375 582.31640625 C173.4779126 582.47798218 173.4779126 582.47798218 171.83740234 582.64282227 C169.12794323 582.91523685 169.12794323 582.91523685 167.06665039 583.53222656 C161.98691948 584.681992 156.51134779 584.18586941 151.31323242 584.18530273 C149.10119587 584.18746222 146.88968097 584.2055558 144.67773438 584.22460938 C135.91258064 584.25985014 127.64944117 583.54034951 119 582 C116.97412506 581.70584599 114.94675642 581.4217806 112.91796875 581.1484375 C111.49194336 580.95507812 111.49194336 580.95507812 110.03710938 580.7578125 C109.09673828 580.63148438 108.15636719 580.50515625 107.1875 580.375 C105.7015332 580.17390625 105.7015332 580.17390625 104.18554688 579.96875 C101.79050431 579.64478289 99.39532502 579.32187079 97 579 C97 578.34 97 577.68 97 577 C95.741875 576.896875 94.48375 576.79375 93.1875 576.6875 C87.6148782 576.08409509 82.36039942 574.59309067 77 573 C77 572.34 77 571.68 77 571 C76.37351562 570.86722656 75.74703125 570.73445312 75.1015625 570.59765625 C74.28429687 570.42105469 73.46703125 570.24445312 72.625 570.0625 C71.81289062 569.88847656 71.00078125 569.71445312 70.1640625 569.53515625 C68 569 68 569 66 568 C66 567.34 66 566.68 66 566 C65.29875 565.896875 64.5975 565.79375 63.875 565.6875 C60.60862353 564.90640997 57.9528148 563.57941257 55 562 C55 561.34 55 560.68 55 560 C54.4225 559.87625 53.845 559.7525 53.25 559.625 C48.2373009 558.23258358 45.58361753 555.75842815 42 552 C41.175 551.175 40.35 550.35 39.5 549.5 C38.675 548.675 37.85 547.85 37 547 C36.113125 546.154375 35.22625 545.30875 34.3125 544.4375 C32 542 32 542 30.9375 539.8125 C29.72171843 537.46198896 28.33020244 537.12751731 26 536 C25.505 534.515 25.505 534.515 25 533 C24.401875 532.71125 23.80375 532.4225 23.1875 532.125 C20.30417859 530.64214899 18.98169446 528.53904603 17 526 C16.2575 525.443125 15.515 524.88625 14.75 524.3125 C13.88375 523.6628125 13.88375 523.6628125 13 523 C13 522.34 13 521.68 13 521 C12.443125 520.773125 11.88625 520.54625 11.3125 520.3125 C7.68200197 518.25194706 4.77399565 515.59352047 2.9375 511.8125 C1.72171843 509.46198896 0.33020244 509.12751731 -2 508 C-2.33 507.01 -2.66 506.02 -3 505 C-4.32621709 504.3192868 -5.66109623 503.65540744 -7 503 C-8.63132271 501.55233614 -10.21280208 500.04724497 -11.75 498.5 C-12.54921875 497.7059375 -13.3484375 496.911875 -14.171875 496.09375 C-16 494 -16 494 -16 492 C-16.639375 491.87625 -17.27875 491.7525 -17.9375 491.625 C-18.9584375 491.315625 -18.9584375 491.315625 -20 491 C-21.1968567 488.6062866 -21.12321706 487.14178739 -21.12025452 484.46957397 C-21.12162918 483.51602524 -21.12300385 482.5624765 -21.12442017 481.58003235 C-21.12082489 480.53058945 -21.11722961 479.48114655 -21.11352539 478.39990234 C-21.11367142 477.29745682 -21.11381744 476.19501129 -21.1139679 475.05915833 C-21.11326912 471.40139829 -21.10547833 467.74368868 -21.09765625 464.0859375 C-21.09579195 461.55530831 -21.0943681 459.02467875 -21.09336853 456.49404907 C-21.08993557 450.50526544 -21.08204755 444.51650358 -21.07201904 438.52772868 C-21.06085033 431.7104022 -21.05534554 424.89307487 -21.05032361 418.07574153 C-21.03986475 404.05048426 -21.02227001 390.02524313 -21 376 C-17.45563832 377.15886742 -14.11605971 378.328296 -10.8125 380.0625 C-8.51507138 381.26332561 -6.47820577 382.17393141 -4 383 C-4 383.66 -4 384.32 -4 385 C-2.205625 385.3403125 -2.205625 385.3403125 -0.375 385.6875 C3.89507133 386.62368283 7.898554 387.9919846 12 389.5 C16.62275534 391.19866333 21.09381858 392.65430946 25.9375 393.54296875 C28 394 28 394 30.87890625 394.984375 C51.21208056 401.60092734 78.16197868 401.02622536 99 397 C101.99691006 396.61588899 104.99383426 396.30571177 108 396 C108 395.34 108 394.68 108 394 C114.625 391 114.625 391 118 391 C118 390.34 118 389.68 118 389 C119.99330842 387.65668346 121.99384866 386.32405988 124 385 C124.66 384.01 125.32 383.02 126 382 C126.66 382 127.32 382 128 382 C128.226875 381.34 128.45375 380.68 128.6875 380 C129.77474867 377.51486019 130.88295087 375.60618731 132.375 373.375 C135.46230348 368.53519779 137.25897534 363.44724023 139 358 C139.29003906 357.11183594 139.58007812 356.22367187 139.87890625 355.30859375 C143.37563829 343.70349756 143.15090576 331.6045722 143.20532227 319.58081055 C143.21493114 318.18974537 143.22494282 316.79868294 143.23532104 315.40762329 C143.26205085 311.67505881 143.28323048 307.94248209 143.30332303 304.20987678 C143.32538268 300.2927941 143.3526724 296.37574771 143.37937927 292.45869446 C143.42903888 285.06075181 143.4740754 277.66278873 143.51740164 270.26480657 C143.57630102 260.25408982 143.64244204 250.243421 143.70815182 240.23274708 C143.81130765 224.48853048 143.90487456 208.74427192 144 193 C108.855 192.505 108.855 192.505 73 192 C73 191.34 73 190.68 73 190 C72.278125 189.79375 71.55625 189.5875 70.8125 189.375 C67.80730275 187.90579246 66.39638193 186.24797537 64.375 183.6328125 C62.91798367 181.90260561 61.37531695 180.55494644 59.625 179.125 C56.20459465 176.30204537 53.40527591 173.14280928 50.578125 169.734375 C48.9207532 167.77231826 48.9207532 167.77231826 46 166 C46 165.34 46 164.68 46 164 C45.34 164 44.68 164 44 164 C42.44921875 162.42578125 42.44921875 162.42578125 40.6875 160.3125 C37.91715219 157.05461686 35.066393 153.98569845 32 151 C31.175 150.154375 30.35 149.30875 29.5 148.4375 C27.10609032 146.00543753 27.10609032 146.00543753 24.625 144.1875 C21.55471527 141.62892939 19.11038475 138.76606958 16.55078125 135.70703125 C15.09320225 133.89605411 15.09320225 133.89605411 13 133 C13 132.34 13 131.68 13 131 C12.34 131 11.68 131 11 131 C9.375 129.625 9.375 129.625 8 128 C8 127.34 8 126.68 8 126 C6.515 125.505 6.515 125.505 5 125 C5 124.34 5 123.68 5 123 C4.34 123 3.68 123 3 123 C3 122.34 3 121.68 3 121 C1.515 120.505 1.515 120.505 0 120 C-1.93972234 117.07694387 -2.2508063 114.71066028 -2.25396729 111.24925232 C-2.25960693 110.29728973 -2.26524658 109.34532715 -2.27105713 108.36451721 C-2.26700867 107.326978 -2.26296021 106.28943878 -2.25878906 105.22045898 C-2.2622937 104.12254028 -2.26579834 103.02462158 -2.26940918 101.89343262 C-2.27821853 98.2609222 -2.27238043 94.62860619 -2.265625 90.99609375 C-2.26697178 88.47550926 -2.26891242 85.95492503 -2.27142334 83.43434143 C-2.27437345 78.15094287 -2.27027062 72.86761417 -2.26074219 67.58422852 C-2.2498525 61.4754868 -2.25338799 55.36687853 -2.264395 49.25814003 C-2.2745616 43.38056351 -2.2734895 37.50302848 -2.26763153 31.62544441 C-2.26629479 29.12431889 -2.26794359 26.62318997 -2.27259064 24.12206841 C-2.27765318 20.63133511 -2.2699495 17.14086045 -2.25878906 13.65014648 C-2.26283752 12.61058304 -2.26688599 11.57101959 -2.27105713 10.49995422 C-2.26541748 9.55081146 -2.25977783 8.6016687 -2.25396729 7.62376404 C-2.25321323 6.79842383 -2.25245918 5.97308363 -2.25168228 5.12273312 C-2 3 -2 3 0 0 Z M30 122 C29.67 123.32 29.34 124.64 29 126 C31.78114056 128.33391203 31.78114056 128.33391203 34.6875 127.625 C35.450625 127.41875 36.21375 127.2125 37 127 C37.33 126.01 37.66 125.02 38 124 C37.67 123.34 37.34 122.68 37 122 C34.69 122 32.38 122 30 122 Z M56 122 C56 123.65 56 125.3 56 127 C57.65 127 59.3 127 61 127 C61.66 125.68 62.32 124.36 63 123 C61.87465895 121.64381501 61.87465895 121.64381501 58.9375 121.9375 C57.968125 121.958125 56.99875 121.97875 56 122 Z M42 134 C41.95919217 135.99958364 41.95745644 138.00045254 42 140 C44.33294775 140.04241723 46.66702567 140.04092937 49 140 C50.35618499 138.87465895 50.35618499 138.87465895 50.0625 135.9375 C50.041875 134.968125 50.02125 133.99875 50 133 C45.67679914 132.49633499 45.67679914 132.49633499 42 134 Z M69 134 C69 135.65 69 137.3 69 139 C70.98 139 72.96 139 75 139 C75.59070014 137.05396726 75.59070014 137.05396726 76 135 C74.87465895 133.64381501 74.87465895 133.64381501 71.9375 133.9375 C70.968125 133.958125 69.99875 133.97875 69 134 Z M96 134 C95.34 135.32 94.68 136.64 94 138 C95.06645115 139.29633621 95.06645115 139.29633621 97.5625 139.0625 C98.366875 139.041875 99.17125 139.02125 100 139 C100 137.35 100 135.7 100 134 C98.68 134 97.36 134 96 134 Z M123 134 C122.34 135.32 121.68 136.64 121 138 C122.32 138.33 123.64 138.66 125 139 C125.33 138.34 125.66 137.68 126 137 C125.01 136.01 124.02 135.02 123 134 Z M56 146 C55.61866701 147.9914056 55.28674418 149.99279077 55 152 C56.18424326 153.41577477 56.18424326 153.41577477 59.5625 153.0625 C61.2640625 153.0315625 61.2640625 153.0315625 63 153 C63 151.02 63 149.04 63 147 C60.69 146.67 58.38 146.34 56 146 Z M82 147 C80.98888907 150.04913228 80.98888907 150.04913228 82 153 C83.98 153 85.96 153 88 153 C88.38218767 151.34385343 88.71395102 149.67542976 89 148 C87.87465895 146.64381501 87.87465895 146.64381501 84.9375 146.9375 C83.968125 146.958125 82.99875 146.97875 82 147 Z M108 148 C108 148.99 108 149.98 108 151 C109.65 151 111.3 151 113 151 C113 150.01 113 149.02 113 148 C111.35 148 109.7 148 108 148 Z M134 148 C134 148.99 134 149.98 134 151 C135.32 150.67 136.64 150.34 138 150 C138 149.34 138 148.68 138 148 C136.68 148 135.36 148 134 148 Z M69 159 C68.67 160.98 68.34 162.96 68 165 C70.64 165 73.28 165 76 165 C76.042721 163.33388095 76.04063832 161.66617115 76 160 C74.87465895 158.64381501 74.87465895 158.64381501 71.9375 158.9375 C70.968125 158.958125 69.99875 158.97875 69 159 Z M94 160 C94 161.65 94 163.3 94 165 C96.31 165 98.62 165 101 165 C101 163.35 101 161.7 101 160 C98.3333581 158.66667905 96.83319697 159.32897967 94 160 Z M121 160 C120.67 161.32 120.34 162.64 120 164 C122.475 164.495 122.475 164.495 125 165 C125.33 163.68 125.66 162.36 126 161 C124.35 160.67 122.7 160.34 121 160 Z M81 171 C80.61781233 172.65614657 80.28604898 174.32457024 80 176 C80.98267859 177.20561184 80.98267859 177.20561184 82.84765625 177.09765625 C84.8984375 177.06510417 86.94921875 177.03255208 89 177 C89.33 175.35 89.66 173.7 90 172 C86.846632 171.29925156 84.27275026 171 81 171 Z M108 172 C107.40929986 173.94603274 107.40929986 173.94603274 107 176 C108.12534105 177.35618499 108.12534105 177.35618499 111.0625 177.0625 C112.031875 177.041875 113.00125 177.02125 114 177 C114 175.35 114 173.7 114 172 C112.02 172 110.04 172 108 172 Z M133 173 C133 174.32 133 175.64 133 177 C134.65 177 136.3 177 138 177 C138 175.68 138 174.36 138 173 C136.35 173 134.7 173 133 173 Z M219 447 C218.06027344 447.95712891 218.06027344 447.95712891 217.1015625 448.93359375 C216.28429687 449.75988281 215.46703125 450.58617187 214.625 451.4375 C213.81289063 452.26121094 213.00078125 453.08492188 212.1640625 453.93359375 C210 456 210 456 208 457 C208.33 457.99 208.66 458.98 209 460 C209.70125 459.29875 210.4025 458.5975 211.125 457.875 C214.08333333 454.91666667 217.04166667 451.95833333 220 449 C219.67 448.34 219.34 447.68 219 447 Z " fill="#080808" transform="translate(55,14)"/>
<path d="M0 0 C80.52 0 161.04 0 244 0 C244.12099405 82.05637031 244.12099405 82.05637031 244.14648438 116.43945312 C244.15235706 124.30802428 244.15841824 132.17659525 244.16479492 140.04516602 C244.16598179 141.52424666 244.16598179 141.52424666 244.16719264 143.03320771 C244.18020308 158.90507934 244.20383364 174.776918 244.23145839 190.64877015 C244.25961773 206.96513786 244.27619839 223.28148845 244.28226548 239.59787947 C244.28636021 249.64752002 244.29924268 259.69706741 244.3237494 269.74667925 C244.33973693 276.65935176 244.34437129 283.57197685 244.34050413 290.48466646 C244.33860258 294.45937524 244.3412955 298.43392249 244.35761642 302.40860176 C244.51749323 343.4111733 238.6598758 380.69460044 220.95288086 417.94702148 C220.04759243 419.89746228 219.21134423 421.86435204 218.390625 423.8515625 C216.58246316 427.94532218 214.34600383 431.8980149 210.12890625 433.87890625 C207.33120638 435.3521904 205.5466449 437.33714668 203.375 439.625 C201.95489873 441.12058838 200.50405032 442.58886398 199 444 C198.34 444 197.68 444 197 444 C197.33 445.32 197.66 446.64 198 448 C184.58210859 460.36085494 169.92051298 470.03513993 153 477 C151.85273438 477.50015625 150.70546875 478.0003125 149.5234375 478.515625 C128.46580943 487.33244804 103.9678108 490.43243176 81.3125 490.3125 C80.60777557 490.31100952 79.90305115 490.30951904 79.17697144 490.3079834 C51.35191716 490.20345857 1.5383595 488.5383595 -20 467 C-20.09511266 464.35261911 -20.12555635 461.73140999 -20.11352539 459.08374023 C-20.11367142 458.25454071 -20.11381744 457.42534119 -20.1139679 456.5710144 C-20.11326851 453.81684802 -20.10547493 451.06274839 -20.09765625 448.30859375 C-20.09579216 446.40430234 -20.09436822 444.50001045 -20.09336853 442.59571838 C-20.08954263 437.57332037 -20.07971173 432.55095108 -20.06866455 427.52856445 C-20.05845198 422.4077188 -20.05387124 417.28686852 -20.04882812 412.16601562 C-20.03808953 402.11066443 -20.02101224 392.0553346 -20 382 C-17.92258212 382.79868093 -15.84519559 383.59744341 -13.76782227 384.39624023 C-12.03255028 385.06344337 -12.03255028 385.06344337 -10.26222229 385.74412537 C-8.35821253 386.47712188 -6.45465761 387.2113059 -4.55224609 387.94844055 C6.74228078 392.32336263 18.06123238 395.02297369 30 397 C31.04969971 397.17789063 31.04969971 397.17789063 32.12060547 397.359375 C43.42510455 399.2135667 54.580115 399.29598477 66 399 C66.72251953 398.98598145 67.44503906 398.97196289 68.18945312 398.95751953 C87.59340758 398.51486112 107.56270194 393.63102662 122 380 C122.70769531 379.33355469 123.41539062 378.66710937 124.14453125 377.98046875 C144.93878086 356.55006618 145.12768474 322.25243507 145.20532227 294.37231445 C145.21491327 292.1835258 145.22492405 289.99473895 145.23532104 287.80595398 C145.26224374 281.8894503 145.28332134 275.97293875 145.30332303 270.05640817 C145.32526095 263.86377816 145.35261129 257.67117207 145.37937927 251.4785614 C145.42920096 239.76333887 145.47417864 228.04810298 145.51740164 216.33285445 C145.55211174 206.97002235 145.58905151 197.60720148 145.62768555 188.24438477 C145.63043505 187.57744707 145.63318456 186.91050937 145.63601738 186.22336143 C145.65995549 180.42102257 145.68404617 174.61868434 145.70815182 168.81634617 C145.81156178 143.87758537 145.90496039 118.93879735 146 94 C97.82 94 49.64 94 0 94 C0 62.98 0 31.96 0 0 Z " fill="#FEFEFE" transform="translate(66,27)"/>
<path d="M0 0 C3.3 0 6.6 0 10 0 C10 3.96 10 7.92 10 12 C13.96 12 17.92 12 22 12 C22 16.29 22 20.58 22 25 C26.29 25 30.58 25 35 25 C35 29.29 35 33.58 35 38 C38.96 38 42.92 38 47 38 C47 41.96 47 45.92 47 50 C50.3 50 53.6 50 57 50 C57 54.29 57 58.58 57 63 C54.03 63 51.06 63 48 63 C48 66.96 48 70.92 48 75 C50.97 75 53.94 75 57 75 C57 79.29 57 83.58 57 88 C54.03 88 51.06 88 48 88 C48 91.63 48 95.26 48 99 C50.97 99 53.94 99 57 99 C57 103.95 57 108.9 57 114 C54.36 114 51.72 114 49 114 C49 116.97 49 119.94 49 123 C51.64 123 54.28 123 57 123 C57 128.61 57 134.22 57 140 C54.69 140 52.38 140 50 140 C50 142.64 50 145.28 50 148 C52.31 148 54.62 148 57 148 C57 153.61 57 159.22 57 165 C54.69 165 52.38 165 50 165 C50 167.31 50 169.62 50 172 C52.31 172 54.62 172 57 172 C57.07056853 188.16149501 57.12321952 204.32293886 57.15543652 220.48455143 C57.17080338 227.99130006 57.19169389 235.49795211 57.22631836 243.00463867 C57.25653706 249.55935299 57.27564859 256.11399726 57.28226548 262.66877931 C57.28612379 266.1287168 57.29496856 269.58845419 57.31719017 273.04832649 C57.4068589 288.78107082 56.80074862 303.96678771 54.35514259 319.51801872 C53.86704252 322.92919853 53.55474328 326.34930947 53.26211834 329.78216648 C53.00850353 331.92804996 52.5453943 333.91245891 52 336 C51.78552181 338.29173921 51.62375542 340.58192196 51.4765625 342.87890625 C50.89577246 345.46389797 50.09549459 346.41204727 48 348 C45.3125 348.1875 45.3125 348.1875 43 348 C43 350.31 43 352.62 43 355 C43.99 355 44.98 355 46 355 C44.97424161 360.84682282 43.27543148 366.18498422 41.0625 371.6875 C40.80968262 372.31664307 40.55686523 372.94578613 40.29638672 373.59399414 C38.69839988 377.4885105 36.92577193 381.25767903 35 385 C33.02 385 31.04 385 29 385 C29.16048828 385.99580078 29.16048828 385.99580078 29.32421875 387.01171875 C30.31560892 394.31389365 30.31560892 394.31389365 28.5625 398.125 C28.046875 398.74375 27.53125 399.3625 27 400 C26.505 398.515 26.505 398.515 26 397 C22.7 397 19.4 397 16 397 C16 400.3 16 403.6 16 407 C17.98 407 19.96 407 22 407 C19.83735988 410.98381075 17.28788824 413.88983545 14 417 C14 414.03 14 411.06 14 408 C10.37 408 6.74 408 3 408 C3 411.96 3 415.92 3 420 C-1.29 420 -5.58 420 -10 420 C-10 416.04 -10 412.08 -10 408 C-13.96 408 -17.92 408 -22 408 C-22 403.71 -22 399.42 -22 395 C-26.29 395 -30.58 395 -35 395 C-35 391.04 -35 387.08 -35 383 C-31.04 383 -27.08 383 -23 383 C-23 379.04 -23 375.08 -23 371 C-26.96 371 -30.92 371 -35 371 C-35 374.63 -35 378.26 -35 382 C-38.96 382 -42.92 382 -47 382 C-47.09765625 373.50390625 -47.09765625 373.50390625 -47 371 C-46 370 -46 370 -43.49609375 369.90234375 C-41.98208984 369.91974609 -41.98208984 369.91974609 -40.4375 369.9375 C-39.42558594 369.94652344 -38.41367187 369.95554687 -37.37109375 369.96484375 C-36.19740234 369.98224609 -36.19740234 369.98224609 -35 370 C-35.10699219 369.16855469 -35.21398437 368.33710938 -35.32421875 367.48046875 C-35.50404297 365.85044922 -35.50404297 365.85044922 -35.6875 364.1875 C-35.81511719 363.10855469 -35.94273437 362.02960938 -36.07421875 360.91796875 C-36 358 -36 358 -34.51953125 356.11328125 C-34.01808594 355.74589844 -33.51664062 355.37851562 -33 355 C-33 355.66 -33 356.32 -33 357 C-30.03 357 -27.06 357 -24 357 C-24 353.7 -24 350.4 -24 347 C-25.32 347 -26.64 347 -28 347 C-26.06830609 341.84547999 -23.52901768 337.03074857 -21.00976562 332.14648438 C-18.66085765 327.52386887 -16.74471247 322.88410105 -15 318 C-14.01 318 -13.02 318 -12 318 C-12.0825 316.7625 -12.165 315.525 -12.25 314.25 C-12.25793383 309.15648342 -10.81111793 305.091055 -9.0859375 300.34375 C-7.45702156 295.32809515 -6.5615763 290.235875 -5.61328125 285.0546875 C-5 282 -5 282 -4 280 C-3.01 280 -2.02 280 -1 280 C-1 278.02 -1 276.04 -1 274 C-1.66 274 -2.32 274 -3 274 C-2.94158243 273.33909205 -2.88316486 272.67818411 -2.82297707 271.99724865 C-1.23963303 253.65090831 -0.66652252 235.42806908 -0.5859375 217.01953125 C-0.56817887 214.25557626 -0.54767543 211.49164332 -0.5272522 208.72770691 C-0.48113126 202.27938939 -0.44407295 195.83105567 -0.41057932 189.38266152 C-0.37187543 182.02057739 -0.32259835 174.65857463 -0.27259517 167.29655993 C-0.17027187 152.19776734 -0.08069979 137.09892488 0 122 C2.31 122 4.62 122 7 122 C7 119.69 7 117.38 7 115 C4.69 115 2.38 115 0 115 C0 109.06 0 103.12 0 97 C2.31 97 4.62 97 7 97 C7 94.69 7 92.38 7 90 C4.69 90 2.38 90 0 90 C0 84.39 0 78.78 0 73 C2.64 73 5.28 73 8 73 C8 70.03 8 67.06 8 64 C5.36 64 2.72 64 0 64 C0 59.05 0 54.1 0 49 C2.97 49 5.94 49 9 49 C9 45.37 9 41.74 9 38 C6.03 38 3.06 38 0 38 C0 33.38 0 28.76 0 24 C2.97 24 5.94 24 9 24 C9 20.37 9 16.74 9 13 C6.03 13 3.06 13 0 13 C0 8.71 0 4.42 0 0 Z " fill="#F9F9F9" transform="translate(323,108)"/>
<path d="M0 0 C0.99 0.33 1.98 0.66 3 1 C3.98941276 3.96823828 4.12620591 5.89568503 4.12863445 8.9917593 C4.1318589 10.02896695 4.13508335 11.06617459 4.1384055 12.13481277 C4.1368569 13.27815033 4.1353083 14.42148789 4.13371277 15.59947205 C4.13597833 16.81142874 4.13824388 18.02338543 4.14057809 19.27206808 C4.14582597 22.64312416 4.14656075 26.01412704 4.14538372 29.38518345 C4.14518002 33.01965095 4.15069612 36.65411043 4.15544128 40.28857422 C4.16376095 47.41834152 4.16649689 54.54810055 4.16705366 61.67787229 C4.16752908 67.48562844 4.16958514 73.29338187 4.17275429 79.10113716 C4.18157159 95.5981716 4.18617306 112.09519952 4.18542381 128.59223633 C4.18536388 129.92728614 4.18536388 129.92728614 4.18530273 131.28930664 C4.18526185 132.18044049 4.18522097 133.07157434 4.18517885 133.98971225 C4.18477413 148.36833819 4.19429684 162.74693772 4.2084411 177.12555604 C4.22287798 191.91991044 4.229707 206.71425204 4.22884732 221.50861365 C4.22851742 229.80151421 4.23117175 238.09438725 4.24202538 246.38728142 C4.25122797 253.46406917 4.25322778 260.54081697 4.24651595 267.61760818 C4.24329646 271.21597423 4.24302291 274.81426411 4.2518692 278.41262245 C4.30456356 301.28486202 3.79966548 324.30376492 0.1875 346.9375 C-0.07123901 348.59628174 -0.07123901 348.59628174 -0.33520508 350.28857422 C-3.6223556 370.62113165 -8.07112427 393.28342151 -19 411 C-19.83400399 413.05720985 -20.54252646 415.12848213 -21.25390625 417.23046875 C-22 419 -22 419 -24 421 C-24.28875 421.721875 -24.5775 422.44375 -24.875 423.1875 C-27.12593099 428.81482747 -30.19556597 433.33650022 -34 438 C-34.43054688 438.74378906 -34.86109375 439.48757813 -35.3046875 440.25390625 C-37.30632927 443.49619696 -39.62656599 446.39434324 -42.0625 449.3125 C-42.50916016 449.86228516 -42.95582031 450.41207031 -43.41601562 450.97851562 C-44.563667 452.35947131 -45.77730444 453.68502553 -47 455 C-47.66 455 -48.32 455 -49 455 C-49.08765625 455.58910156 -49.1753125 456.17820312 -49.265625 456.78515625 C-50.19732192 459.59511452 -51.46788292 460.5800626 -53.75 462.4375 C-56.22679401 464.49780271 -58.59600398 466.53649503 -60.8125 468.875 C-63 471 -63 471 -66 472 C-66 472.66 -66 473.32 -66 474 C-70.38461538 477 -70.38461538 477 -73 477 C-73.33 477.99 -73.66 478.98 -74 480 C-78.33333333 483 -78.33333333 483 -81 483 C-81 483.66 -81 484.32 -81 485 C-82.85468816 485.92734408 -84.7097366 486.85397328 -86.56640625 487.77734375 C-88.26796103 488.63221798 -89.96279586 489.50054041 -91.65234375 490.37890625 C-92.96912109 491.05759766 -92.96912109 491.05759766 -94.3125 491.75 C-95.54419922 492.39195312 -95.54419922 492.39195312 -96.80078125 493.046875 C-99 494 -99 494 -102 494 C-102 494.66 -102 495.32 -102 496 C-111.26723117 500.04682584 -120.3302481 503.02853594 -130.22265625 505.140625 C-133.88053106 505.89631831 -133.88053106 505.89631831 -136.83911133 507.00268555 C-140.06403807 508.02020511 -142.99146882 508.47596178 -146.3515625 508.81640625 C-147.53234375 508.94080078 -148.713125 509.06519531 -149.9296875 509.19335938 C-151.75886719 509.37608398 -151.75886719 509.37608398 -153.625 509.5625 C-156.05493838 509.81136449 -158.48463886 510.06256603 -160.9140625 510.31640625 C-162.5220874 510.47798218 -162.5220874 510.47798218 -164.16259766 510.64282227 C-166.87205677 510.91523685 -166.87205677 510.91523685 -168.93334961 511.53222656 C-174.01308052 512.681992 -179.48865221 512.18586941 -184.68676758 512.18530273 C-186.89880413 512.18746222 -189.11031903 512.2055558 -191.32226562 512.22460938 C-200.08741936 512.25985014 -208.35055883 511.54034951 -217 510 C-219.02587494 509.70584599 -221.05324358 509.4217806 -223.08203125 509.1484375 C-224.50805664 508.95507812 -224.50805664 508.95507812 -225.96289062 508.7578125 C-226.90326172 508.63148438 -227.84363281 508.50515625 -228.8125 508.375 C-229.80314453 508.2409375 -230.79378906 508.106875 -231.81445312 507.96875 C-234.20949569 507.64478289 -236.60467498 507.32187079 -239 507 C-239 506.34 -239 505.68 -239 505 C-240.258125 504.896875 -241.51625 504.79375 -242.8125 504.6875 C-248.3851218 504.08409509 -253.63960058 502.59309067 -259 501 C-259 500.34 -259 499.68 -259 499 C-259.62648438 498.86722656 -260.25296875 498.73445313 -260.8984375 498.59765625 C-261.71570313 498.42105469 -262.53296875 498.24445313 -263.375 498.0625 C-264.59316406 497.80146484 -264.59316406 497.80146484 -265.8359375 497.53515625 C-268 497 -268 497 -270 496 C-270 495.34 -270 494.68 -270 494 C-265.57633267 495.28026137 -261.17462432 496.57748371 -256.83984375 498.13671875 C-208.65138272 515.358525 -149.69901527 513.56786532 -102.93261719 492.62646484 C-85.71219926 484.43318859 -71.06944622 474.60423708 -57.41503906 461.359375 C-56.19222669 460.18466498 -54.93857448 459.04221536 -53.6796875 457.90625 C-31.68643492 437.45495978 -19.26996931 408.63169849 -10.1875 380.625 C-9.90938477 379.7705127 -9.63126953 378.91602539 -9.34472656 378.03564453 C-5.52329405 365.83824636 -3.4827265 353.40602302 -1.875 340.75 C-1.70613281 339.46609375 -1.53726562 338.1821875 -1.36328125 336.859375 C-0.89244685 333.24099412 -0.42799364 329.62371163 0 326 C0.08467179 325.31152542 0.16934358 324.62305084 0.25658119 323.9137134 C1.04710351 316.90929641 1.14022423 309.97863853 1.12698364 302.93495178 C1.12932363 301.00808262 1.12932363 301.00808262 1.13171089 299.04228681 C1.13586115 295.50197055 1.13383313 291.96168146 1.13072467 288.42136514 C1.12845333 284.59390673 1.13195868 280.76645286 1.13470459 276.93899536 C1.13914185 269.45294388 1.13819517 261.96690245 1.13529195 254.48085058 C1.13303107 248.39892455 1.13272836 242.31700133 1.13381577 236.235075 C1.133969 235.368608 1.13412223 234.502141 1.13428011 233.60941742 C1.13459984 231.84914895 1.13492405 230.08888049 1.1352527 228.32861202 C1.13810119 211.84085295 1.13482973 195.35309945 1.12945233 178.8653413 C1.12497932 164.71190118 1.12576553 150.55846927 1.13037109 136.4050293 C1.13571844 119.96431053 1.13783239 103.52359662 1.13475883 87.0828771 C1.13444028 85.33132295 1.13412591 83.5797688 1.13381577 81.82821465 C1.13366149 80.96642014 1.13350721 80.10462564 1.13334826 79.21671616 C1.132484 73.13709672 1.13394392 67.05748037 1.13629532 60.9778614 C1.13909503 53.57664616 1.13835118 46.17544153 1.13301457 38.77422751 C1.13038075 34.99665835 1.12936722 31.2191069 1.13266373 27.44153786 C1.13617775 23.35306395 1.13199124 19.26463505 1.12698364 15.17616272 C1.13032973 13.37270208 1.13032973 13.37270208 1.13374341 11.53280789 C1.12983178 9.89764443 1.12983178 9.89764443 1.12584114 8.22944736 C1.12567879 7.28518755 1.12551644 6.34092773 1.12534916 5.36805397 C1.09712278 2.84863695 1.09712278 2.84863695 0 0 Z " fill="#F9F9F9" transform="translate(391,86)"/>
<path d="M0 0 C3.06713244 1.36242426 5.11840293 2.89699705 7.4375 5.3125 C7.99308594 5.88613281 8.54867187 6.45976562 9.12109375 7.05078125 C10.52553015 8.50777453 11.86313369 10.02971691 13.16313171 11.58061218 C16.75620986 14.64492417 18.59356382 14.63519981 23.26879883 14.65942383 C23.98153961 14.66990753 24.6942804 14.68039124 25.42861938 14.69119263 C27.77187012 14.71987095 30.11363698 14.71366039 32.45703125 14.70703125 C34.08658188 14.72015082 35.71611626 14.73545585 37.34562683 14.75285339 C41.6249551 14.79268669 45.90385781 14.8028927 50.18334961 14.80688477 C54.55400488 14.81621944 58.92441044 14.85363502 63.29492188 14.88867188 C71.86328586 14.95323064 80.43140418 14.98648464 89 15 C90.27031421 17.54062843 90.1287095 19.31001542 90.13371277 22.15512085 C90.14011024 23.79451378 90.14011024 23.79451378 90.14663696 25.46702576 C90.14595718 27.27458092 90.14595718 27.27458092 90.14526367 29.11865234 C90.14862228 30.38404343 90.1519809 31.64943451 90.15544128 32.95317078 C90.16430054 36.43569393 90.16662062 39.91819251 90.16725707 43.40072584 C90.16796819 45.5842168 90.17010402 47.76770154 90.17275429 49.95119095 C90.18202444 57.59279016 90.18608839 65.23437191 90.18530273 72.87597656 C90.18470625 79.95453257 90.19516854 87.0330113 90.2110464 94.11154783 C90.22423694 100.2137647 90.22948164 106.31595676 90.22884732 112.41818774 C90.22859505 116.05064324 90.23129186 119.68303056 90.24202538 123.31547165 C90.2852359 138.99096374 90.03357798 154.43797239 88 170 C87.67 170 87.34 170 87 170 C87.33 120.17 87.66 70.34 88 19 C52.855 18.505 52.855 18.505 17 18 C17 17.34 17 16.68 17 16 C16.278125 15.79375 15.55625 15.5875 14.8125 15.375 C11.81722617 13.91064391 10.40856383 12.27138672 8.40234375 9.65625 C6.32550365 7.20338035 3.86688515 5.28887266 1.35546875 3.296875 C0.90816406 2.86890625 0.46085937 2.4409375 0 2 C0 1.34 0 0.68 0 0 Z " fill="#DDDDDD" transform="translate(111,188)"/>
<path d="M0 0 C4.42366733 1.28026137 8.82537568 2.57748371 13.16015625 4.13671875 C40.96755715 14.0746512 69.77051155 15.2096665 99 16 C99 16.66 99 17.32 99 18 C94.53834423 18.05016131 90.07684626 18.08607179 85.61499023 18.10986328 C84.10324233 18.11980161 82.59151301 18.13335698 81.07983398 18.15087891 C71.48394585 18.25916307 62.47546962 17.69921819 53 16 C50.97416131 15.70559638 48.94678987 15.42153224 46.91796875 15.1484375 C45.49194336 14.95507812 45.49194336 14.95507812 44.03710938 14.7578125 C42.62655273 14.56832031 42.62655273 14.56832031 41.1875 14.375 C40.19685547 14.2409375 39.20621094 14.106875 38.18554688 13.96875 C35.79050431 13.64478289 33.39532502 13.32187079 31 13 C31 12.34 31 11.68 31 11 C29.1128125 10.8453125 29.1128125 10.8453125 27.1875 10.6875 C21.6148782 10.08409509 16.36039942 8.59309067 11 7 C11 6.34 11 5.68 11 5 C10.37351563 4.86722656 9.74703125 4.73445312 9.1015625 4.59765625 C8.28429687 4.42105469 7.46703125 4.24445312 6.625 4.0625 C5.81289062 3.88847656 5.00078125 3.71445312 4.1640625 3.53515625 C2 3 2 3 0 2 C0 1.34 0 0.68 0 0 Z " fill="#F5F5F5" transform="translate(121,580)"/>
<path d="M0 0 C4.29 0 8.58 0 13 0 C13 3.96 13 7.92 13 12 C8.71 12 4.42 12 0 12 C0 8.04 0 4.08 0 0 Z " fill="#F6F6F6" transform="translate(288,491)"/>
<path d="M0 0 C3.96 0 7.92 0 12 0 C12 4.29 12 8.58 12 13 C8.04 12.67 4.08 12.34 0 12 C0 8.04 0 4.08 0 0 Z " fill="#000000" transform="translate(301,516)"/>
<path d="M0 0 C3.96 0 7.92 0 12 0 C12 3.96 12 7.92 12 12 C8.04 12 4.08 12 0 12 C0 8.04 0 4.08 0 0 Z " fill="#000000" transform="translate(276,491)"/>
<path d="M0 0 C3.96 0 7.92 0 12 0 C12 3.96 12 7.92 12 12 C8.04 12 4.08 12 0 12 C0 8.04 0 4.08 0 0 Z " fill="#FFFFFF" transform="translate(358,146)"/>
<path d="M0 0 C3.96 0 7.92 0 12 0 C12 3.96 12 7.92 12 12 C8.04 12 4.08 12 0 12 C0 8.04 0 4.08 0 0 Z " fill="#121212" transform="translate(333,133)"/>
<path d="M0 0 C3.96 0 7.92 0 12 0 C12 3.96 12 7.92 12 12 C8.04 12 4.08 12 0 12 C0 8.04 0 4.08 0 0 Z " fill="#000000" transform="translate(358,133)"/>
<path d="M0 0 C3.96 0 7.92 0 12 0 C12 3.96 12 7.92 12 12 C8.04 12 4.08 12 0 12 C0 8.04 0 4.08 0 0 Z " fill="#F3F3F3" transform="translate(358,121)"/>
<path d="M0 0 C3.96 0 7.92 0 12 0 C12 3.96 12 7.92 12 12 C8.04 12 4.08 12 0 12 C0 8.04 0 4.08 0 0 Z " fill="#FFFFFF" transform="translate(333,121)"/>
<path d="M0 0 C3.96 0 7.92 0 12 0 C12 3.96 12 7.92 12 12 C8.04 12 4.08 12 0 12 C0 8.04 0 4.08 0 0 Z " fill="#000000" transform="translate(333,108)"/>
<path d="M0 0 C3.96 0 7.92 0 12 0 C12 3.96 12 7.92 12 12 C8.04 12 4.08 12 0 12 C0 8.04 0 4.08 0 0 Z " fill="#EEEEEE" transform="translate(333,96)"/>
<path d="M0 0 C1.93293122 3.21814462 2.17170778 5.23941665 1.75 8.9453125 C1.63946289 9.92677246 1.52892578 10.90823242 1.41503906 11.91943359 C1.27807617 12.97727051 1.14111328 14.03510742 1 15.125 C0.86045898 16.2279541 0.72091797 17.3309082 0.57714844 18.46728516 C-1.61483893 34.65550086 -5.12385797 50.6242785 -10.6875 66 C-10.97270508 66.78938965 -11.25791016 67.5787793 -11.55175781 68.39208984 C-12.96338454 72.06149383 -13.65096355 73.76730904 -17 76 C-15.49118077 70.87941021 -13.9434517 65.77622474 -12.28125 60.703125 C-11.98863281 59.8059375 -11.69601562 58.90875 -11.39453125 57.984375 C-10.80279259 56.17556688 -10.20650698 54.36823932 -9.60546875 52.5625 C-5.52966904 39.99395464 -3.45975551 27.19779832 -1.8125 14.125 C-1.63399593 12.74342069 -1.45496165 11.36190978 -1.27539062 9.98046875 C-0.84507893 6.65427563 -0.42002924 3.32750441 0 0 Z " fill="#E3E3E3" transform="translate(391,412)"/>
<path d="M0 0 C3.63 0 7.26 0 11 0 C11 3.96 11 7.92 11 12 C7.37 12 3.74 12 0 12 C0 8.04 0 4.08 0 0 Z " fill="#FFFFFF" transform="translate(314,516)"/>
<path d="M0 0 C3.63 0 7.26 0 11 0 C11 3.96 11 7.92 11 12 C7.37 12 3.74 12 0 12 C0 8.04 0 4.08 0 0 Z " fill="#F9F9F9" transform="translate(289,516)"/>
<path d="M0 0 C3.96 0 7.92 0 12 0 C12 3.63 12 7.26 12 11 C8.04 11 4.08 11 0 11 C0 7.37 0 3.74 0 0 Z " fill="#030303" transform="translate(313,504)"/>
<path d="M0 0 C3.96 0 7.92 0 12 0 C12 3.63 12 7.26 12 11 C8.04 11 4.08 11 0 11 C0 7.37 0 3.74 0 0 Z " fill="#FFFFFF" transform="translate(301,504)"/>
<path d="M0 0 C3.63 0 7.26 0 11 0 C11 3.96 11 7.92 11 12 C7.37 12 3.74 12 0 12 C0 8.04 0 4.08 0 0 Z " fill="#050505" transform="translate(301,491)"/>
<path d="M0 0 C3.63 0 7.26 0 11 0 C11 3.96 11 7.92 11 12 C7.37 12 3.74 12 0 12 C0 8.04 0 4.08 0 0 Z " fill="#0A0A0A" transform="translate(346,146)"/>
<path d="M0 0 C3.63 0 7.26 0 11 0 C11 3.63 11 7.26 11 11 C7.37 11 3.74 11 0 11 C0 7.37 0 3.74 0 0 Z " fill="#FAFAFA" transform="translate(301,529)"/>
<path d="M0 0 C3.63 0 7.26 0 11 0 C11 3.63 11 7.26 11 11 C7.37 11 3.74 11 0 11 C0 7.37 0 3.74 0 0 Z " fill="#F9F9F9" transform="translate(264,491)"/>
<path d="M0 0 C3.63 0 7.26 0 11 0 C11 3.63 11 7.26 11 11 C7.37 11 3.74 11 0 11 C0 7.37 0 3.74 0 0 Z " fill="#020202" transform="translate(289,479)"/>
<path d="M0 0 C3.63 0 7.26 0 11 0 C11 3.63 11 7.26 11 11 C7.37 11 3.74 11 0 11 C0 7.37 0 3.74 0 0 Z " fill="#161616" transform="translate(346,171)"/>
<path d="M0 0 C3.63 0 7.26 0 11 0 C11 3.63 11 7.26 11 11 C7.37 11 3.74 11 0 11 C0 7.37 0 3.74 0 0 Z " fill="#000000" transform="translate(359,159)"/>
<path d="M0 0 C3.63 0 7.26 0 11 0 C11 3.63 11 7.26 11 11 C7.37 11 3.74 11 0 11 C0 7.37 0 3.74 0 0 Z " fill="#FFFFFF" transform="translate(346,109)"/>
<path d="M0 0 C2.97 0 5.94 0 9 0 C9 4.29 9 8.58 9 13 C6.03 13 3.06 13 0 13 C0 8.71 0 4.42 0 0 Z " fill="#FDFDFD" transform="translate(323,108)"/>
<path d="M0 0 C3.63 0 7.26 0 11 0 C11 3.3 11 6.6 11 10 C7.37 10 3.74 10 0 10 C0 6.7 0 3.4 0 0 Z " fill="#E3E3E3" transform="translate(289,542)"/>
<path d="M0 0 C3.3 0 6.6 0 10 0 C10 3.63 10 7.26 10 11 C6.7 11 3.4 11 0 11 C0 7.37 0 3.74 0 0 Z " fill="#FFFFFF" transform="translate(277,504)"/>
<path d="M0 0 C3.3 0 6.6 0 10 0 C10 3.63 10 7.26 10 11 C6.7 11 3.4 11 0 11 C0 7.37 0 3.74 0 0 Z " fill="#0B0B0B" transform="translate(314,479)"/>
<path d="M0 0 C3.63 0 7.26 0 11 0 C11 3.3 11 6.6 11 10 C7.37 10 3.74 10 0 10 C0 6.7 0 3.4 0 0 Z " fill="#080808" transform="translate(301,467)"/>
<path d="M0 0 C3.3 0 6.6 0 10 0 C10 3.63 10 7.26 10 11 C6.7 11 3.4 11 0 11 C0 7.37 0 3.74 0 0 Z " fill="#E9E9E9" transform="translate(359,96)"/>
<path d="M0 0 C2.97 0 5.94 0 9 0 C9 3.96 9 7.92 9 12 C6.03 12 3.06 12 0 12 C0 8.04 0 4.08 0 0 Z " fill="#F2F2F2" transform="translate(323,83)"/>
<path d="M0 0 C3.06713244 1.36242426 5.11840293 2.89699705 7.4375 5.3125 C7.99308594 5.88613281 8.54867187 6.45976562 9.12109375 7.05078125 C10.52553015 8.50777453 11.86313369 10.02971691 13.16313171 11.58061218 C16.75620986 14.64492417 18.59356382 14.63519981 23.26879883 14.65942383 C23.98153961 14.66990753 24.6942804 14.68039124 25.42861938 14.69119263 C27.77187012 14.71987095 30.11363698 14.71366039 32.45703125 14.70703125 C34.08658188 14.72015082 35.71611626 14.73545585 37.34562683 14.75285339 C41.6249551 14.79268669 45.90385781 14.8028927 50.18334961 14.80688477 C54.55400488 14.81621944 58.92441044 14.85363502 63.29492188 14.88867188 C71.86328586 14.95323064 80.43140418 14.98648464 89 15 C89 15.33 89 15.66 89 16 C79.43801728 16.09272506 69.87618958 16.16377752 60.31385517 16.20724869 C55.87354451 16.2281139 51.4335417 16.25641177 46.9934082 16.30175781 C42.70752631 16.34525406 38.42194032 16.36914513 34.13585472 16.37950897 C32.50157196 16.3868936 30.86730519 16.40131425 29.23314857 16.42292023 C26.94194306 16.45200559 24.65195645 16.45595403 22.3605957 16.45410156 C20.40534721 16.46742523 20.40534721 16.46742523 18.41059875 16.48101807 C12.76288059 15.68448506 9.88589055 12.09127495 6.375 7.875 C4.28369434 5.3673258 2.76001206 3.84000804 0 2 C0 1.34 0 0.68 0 0 Z " fill="#8A8A8A" transform="translate(111,188)"/>
<path d="M0 0 C3.3 0 6.6 0 10 0 C10 3.3 10 6.6 10 10 C6.7 10 3.4 10 0 10 C0 6.7 0 3.4 0 0 Z " fill="#FDFDFD" transform="translate(277,529)"/>
<path d="M0 0 C3.3 0 6.6 0 10 0 C10 3.3 10 6.6 10 10 C6.7 10 3.4 10 0 10 C0 6.7 0 3.4 0 0 Z " fill="#F4F4F4" transform="translate(265,517)"/>
<path d="M0 0 C3.3 0 6.6 0 10 0 C10 3.3 10 6.6 10 10 C6.7 10 3.4 10 0 10 C0 6.7 0 3.4 0 0 Z " fill="#FFFFFF" transform="translate(252,504)"/>
<path d="M0 0 C3.3 0 6.6 0 10 0 C10 3.3 10 6.6 10 10 C6.7 10 3.4 10 0 10 C0 6.7 0 3.4 0 0 Z " fill="#010101" transform="translate(327,492)"/>
<path d="M0 0 C3.3 0 6.6 0 10 0 C10 3.3 10 6.6 10 10 C6.7 10 3.4 10 0 10 C0 6.7 0 3.4 0 0 Z " fill="#000000" transform="translate(359,184)"/>
<path d="M0 0 C3.3 0 6.6 0 10 0 C10 3.3 10 6.6 10 10 C6.7 10 3.4 10 0 10 C0 6.7 0 3.4 0 0 Z " fill="#000000" transform="translate(334,159)"/>
<path d="M0 0 C3.3 0 6.6 0 10 0 C10 3.3 10 6.6 10 10 C6.7 10 3.4 10 0 10 C0 6.7 0 3.4 0 0 Z " fill="#F7F7F7" transform="translate(347,84)"/>
<path d="M0 0 C2.97 0 5.94 0 9 0 C9 3.63 9 7.26 9 11 C6.03 11 3.06 11 0 11 C0 7.37 0 3.74 0 0 Z " fill="#FFFFFF" transform="translate(371,134)"/>
<path d="M0 0 C3.3 0 6.6 0 10 0 C10 2.97 10 5.94 10 9 C6.7 9 3.4 9 0 9 C0 6.03 0 3.06 0 0 Z " fill="#161616" transform="translate(339,480)"/>
<path d="M0 0 C3.3 0 6.6 0 10 0 C10 2.97 10 5.94 10 9 C6.7 9 3.4 9 0 9 C0 6.03 0 3.06 0 0 Z " fill="#1C1C1C" transform="translate(359,210)"/>
<path d="M0 0 C3.3 0 6.6 0 10 0 C10 2.97 10 5.94 10 9 C6.7 9 3.4 9 0 9 C0 6.03 0 3.06 0 0 Z " fill="#FEFEFE" transform="translate(334,72)"/>
<path d="M0 0 C2.97 0 5.94 0 9 0 C9 2.97 9 5.94 9 9 C6.03 9 3.06 9 0 9 C0 6.03 0 3.06 0 0 Z " fill="#ECECEC" transform="translate(278,555)"/>
<path d="M0 0 C2.97 0 5.94 0 9 0 C9 2.97 9 5.94 9 9 C6.03 9 3.06 9 0 9 C0 6.03 0 3.06 0 0 Z " fill="#070707" transform="translate(327,468)"/>
<path d="M0 0 C2.97 0 5.94 0 9 0 C9 2.97 9 5.94 9 9 C6.03 9 3.06 9 0 9 C0 6.03 0 3.06 0 0 Z " fill="#0A0A0A" transform="translate(315,455)"/>
<path d="M0 0 C2.97 0 5.94 0 9 0 C9 2.97 9 5.94 9 9 C6.03 9 3.06 9 0 9 C0 6.03 0 3.06 0 0 Z " fill="#0D0D0D" transform="translate(347,197)"/>
<path d="M0 0 C2.97 0 5.94 0 9 0 C9 2.97 9 5.94 9 9 C6.03 9 3.06 9 0 9 C0 6.03 0 3.06 0 0 Z " fill="#0C0C0C" transform="translate(335,185)"/>
<path d="M0 0 C2.64 0 5.28 0 8 0 C8 3.3 8 6.6 8 10 C5.36 10 2.72 10 0 10 C0 6.7 0 3.4 0 0 Z " fill="#F8F8F8" transform="translate(372,109)"/>
<path d="M0 0 C2.64 0 5.28 0 8 0 C8 3.3 8 6.6 8 10 C5.36 10 2.72 10 0 10 C0 6.7 0 3.4 0 0 Z " fill="#FDFDFD" transform="translate(323,59)"/>
<path d="M0 0 C1.65 0 3.3 0 5 0 C5 1.98 5 3.96 5 6 C3.35 6 1.7 6 0 6 C0 12.27 0 18.54 0 25 C1.32 25 2.64 25 4 25 C4 26.65 4 28.3 4 30 C2.35 30 0.7 30 -1 30 C-1.02909769 25.93751511 -1.04683174 21.87505714 -1.0625 17.8125 C-1.07087891 16.66201172 -1.07925781 15.51152344 -1.08789062 14.32617188 C-1.09111328 13.21435547 -1.09433594 12.10253906 -1.09765625 10.95703125 C-1.10289307 9.93585205 -1.10812988 8.91467285 -1.11352539 7.86254883 C-1.00519467 5.13098384 -0.61706868 2.65830626 0 0 Z " fill="#B7B7B7" transform="translate(324,249)"/>
<path d="M0 0 C2.97 0 5.94 0 9 0 C9 2.64 9 5.28 9 8 C6.03 8 3.06 8 0 8 C0 5.36 0 2.72 0 0 Z " fill="#F7F7F7" transform="translate(265,543)"/>
<path d="M0 0 C2.97 0 5.94 0 9 0 C9 2.64 9 5.28 9 8 C6.03 8 3.06 8 0 8 C0 5.36 0 2.72 0 0 Z " fill="#F7F7F7" transform="translate(240,518)"/>
<path d="M0 0 C2.64 0 5.28 0 8 0 C8 2.97 8 5.94 8 9 C5.36 9 2.72 9 0 9 C0 6.03 0 3.06 0 0 Z " fill="#1A1A1A" transform="translate(340,455)"/>
<path d="M0 0 C2.97 0 5.94 0 9 0 C9 2.64 9 5.28 9 8 C6.03 8 3.06 8 0 8 C0 5.36 0 2.72 0 0 Z " fill="#000000" transform="translate(302,443)"/>
<path d="M0 0 C-0.33 0.66 -0.66 1.32 -1 2 C-5.25492731 2.9063119 -9.61393273 3.22917929 -13.9375 3.6875 C-15.13697266 3.82994141 -16.33644531 3.97238281 -17.57226562 4.11914062 C-24.56217338 4.88562806 -31.04197645 5.0886021 -38 4 C-38 3.67 -38 3.34 -38 3 C-37.32533691 2.9498877 -36.65067383 2.89977539 -35.95556641 2.84814453 C-32.84486184 2.61344467 -29.73496663 2.36927639 -26.625 2.125 C-25.56410156 2.04636719 -24.50320312 1.96773437 -23.41015625 1.88671875 C-17.51795329 1.41678845 -11.88180876 0.70068835 -6.13427734 -0.69970703 C-3.79506116 -1.02883491 -2.2319765 -0.71866477 0 0 Z " fill="#E5E5E5" transform="translate(252,592)"/>
<path d="M0 0 C3.3 0 6.6 0 10 0 C11.1577506 3.47325181 11.06866652 6.36067448 11 10 C7.18243176 11.37432457 3.92744671 10.67975039 0 10 C0 6.7 0 3.4 0 0 Z M3 3 C2.67 4.98 2.34 6.96 2 9 C4.64 9 7.28 9 10 9 C10.042721 7.33388095 10.04063832 5.66617115 10 4 C8.87465895 2.64381501 8.87465895 2.64381501 5.9375 2.9375 C4.968125 2.958125 3.99875 2.97875 3 3 Z " fill="#C7C7C7" transform="translate(121,170)"/>
<path d="M0 0 C2.64 0 5.28 0 8 0 C8 2.64 8 5.28 8 8 C5.36 8 2.72 8 0 8 C0 5.36 0 2.72 0 0 Z " fill="#D7D7D7" transform="translate(228,530)"/>
<path d="M0 0 C2.64 0 5.28 0 8 0 C8 2.64 8 5.28 8 8 C5.36 8 2.72 8 0 8 C0 5.36 0 2.72 0 0 Z " fill="#FFFFFF" transform="translate(253,530)"/>
<path d="M0 0 C2.64 0 5.28 0 8 0 C8 2.64 8 5.28 8 8 C5.36 8 2.72 8 0 8 C0 5.36 0 2.72 0 0 Z " fill="#030303" transform="translate(353,468)"/>
<path d="M0 0 C2.64 0 5.28 0 8 0 C8 2.64 8 5.28 8 8 C5.36 8 2.72 8 0 8 C0 5.36 0 2.72 0 0 Z " fill="#060606" transform="translate(360,235)"/>
<path d="M0 0 C2.64 0 5.28 0 8 0 C8 2.64 8 5.28 8 8 C5.36 8 2.72 8 0 8 C0 5.36 0 2.72 0 0 Z " fill="#0E0E0E" transform="translate(335,210)"/>
<path d="M0 0 C1.47906892 -0.02689216 2.95827483 -0.04634621 4.4375 -0.0625 C5.26121094 -0.07410156 6.08492188 -0.08570313 6.93359375 -0.09765625 C9 0 9 0 10 1 C10.23880597 8.52238806 10.23880597 8.52238806 9 11 C6.36 11 3.72 11 1 11 C-0.20272819 8.59454362 -0.10071472 7.05003047 -0.0625 4.375 C-0.05347656 3.55773437 -0.04445313 2.74046875 -0.03515625 1.8984375 C-0.02355469 1.27195313 -0.01195313 0.64546875 0 0 Z M2 2 C1.61866701 3.9914056 1.28674418 5.99279077 1 8 C2.18424326 9.41577477 2.18424326 9.41577477 5.5625 9.0625 C7.2640625 9.0315625 7.2640625 9.0315625 9 9 C9 7.02 9 5.04 9 3 C6.69 2.67 4.38 2.34 2 2 Z " fill="#E0E0E0" transform="translate(109,158)"/>
<path d="M0 0 C2.31 0 4.62 0 7 0 C7 2.64 7 5.28 7 8 C4.69 8 2.38 8 0 8 C0 5.36 0 2.72 0 0 Z " fill="#E6E6E6" transform="translate(216,518)"/>
<path d="M0 0 C2.31 0 4.62 0 7 0 C7 2.64 7 5.28 7 8 C4.69 8 2.38 8 0 8 C0 5.36 0 2.72 0 0 Z " fill="#000000" transform="translate(328,443)"/>
<path d="M0 0 C2.64 0 5.28 0 8 0 C8 2.31 8 4.62 8 7 C5.36 7 2.72 7 0 7 C0 4.69 0 2.38 0 0 Z " fill="#262626" transform="translate(340,431)"/>
<path d="M0 0 C2.64 0 5.28 0 8 0 C8 2.31 8 4.62 8 7 C5.36 7 2.72 7 0 7 C0 4.69 0 2.38 0 0 Z " fill="#000000" transform="translate(315,431)"/>
<path d="M0 0 C2.64 0 5.28 0 8 0 C8 2.31 8 4.62 8 7 C5.36 7 2.72 7 0 7 C0 4.69 0 2.38 0 0 Z " fill="#3E3E3E" transform="translate(373,273)"/>
<path d="M0 0 C2.97 0 5.94 0 9 0 C10.36623674 2.73247348 10.128426 4.98198902 10 8 C9 9 9 9 7.1875 9.1328125 C6.465625 9.13023437 5.74375 9.12765625 5 9.125 C4.278125 9.12757813 3.55625 9.13015625 2.8125 9.1328125 C1 9 1 9 0 8 C-0.14115161 5.32941149 -0.04247107 2.67567762 0 0 Z M2 2 C2 3.65 2 5.3 2 7 C3.98 7 5.96 7 8 7 C8.59070014 5.05396726 8.59070014 5.05396726 9 3 C7.87465895 1.64381501 7.87465895 1.64381501 4.9375 1.9375 C3.968125 1.958125 2.99875 1.97875 2 2 Z " fill="#F2F2F2" transform="translate(122,146)"/>
<path d="M0 0 C3.3 0 6.6 0 10 0 C10.625 3.375 10.625 3.375 11 7 C9 9 9 9 7.08984375 9.23046875 C1.11111111 9.11111111 1.11111111 9.11111111 0 8 C-0.14115161 5.32941149 -0.04247107 2.67567762 0 0 Z M2 2 C1.67 3.32 1.34 4.64 1 6 C3.78114056 8.33391203 3.78114056 8.33391203 6.6875 7.625 C7.450625 7.41875 8.21375 7.2125 9 7 C9.33 6.01 9.66 5.02 10 4 C9.67 3.34 9.34 2.68 9 2 C6.69 2 4.38 2 2 2 Z " fill="#EAEAEA" transform="translate(83,134)"/>
<path d="M0 0 C6.15234375 -0.09765625 6.15234375 -0.09765625 8 0 C9 1 9 1 9.1328125 2.8125 C9.13023437 3.534375 9.12765625 4.25625 9.125 5 C9.12757813 5.721875 9.13015625 6.44375 9.1328125 7.1875 C9 9 9 9 8 10 C4.5 10.125 4.5 10.125 1 10 C0 9 0 9 -0.09765625 6.93359375 C-0.08605469 6.10988281 -0.07445312 5.28617188 -0.0625 4.4375 C-0.05347656 3.61121094 -0.04445312 2.78492188 -0.03515625 1.93359375 C-0.02355469 1.29550781 -0.01195312 0.65742188 0 0 Z M1 3 C1 4.65 1 6.3 1 8 C3.31 8 5.62 8 8 8 C8 6.35 8 4.7 8 3 C5.3333581 1.66667905 3.83319697 2.32897967 1 3 Z " fill="#E9E9E9" transform="translate(148,171)"/>
<path d="M0 0 C2.31 0 4.62 0 7 0 C7 2.31 7 4.62 7 7 C4.69 7 2.38 7 0 7 C0 4.69 0 2.38 0 0 Z " fill="#F3F3F3" transform="translate(253,556)"/>
<path d="M0 0 C2.31 0 4.62 0 7 0 C7 2.31 7 4.62 7 7 C4.69 7 2.38 7 0 7 C0 4.69 0 2.38 0 0 Z " fill="#FFFFFF" transform="translate(241,543)"/>
<path d="M0 0 C2.31 0 4.62 0 7 0 C7 2.31 7 4.62 7 7 C4.69 7 2.38 7 0 7 C0 4.69 0 2.38 0 0 Z " fill="#0B0B0B" transform="translate(316,406)"/>
<path d="M0 0 C2.31 0 4.62 0 7 0 C7 2.31 7 4.62 7 7 C4.69 7 2.38 7 0 7 C0 4.69 0 2.38 0 0 Z " fill="#2A2A2A" transform="translate(348,248)"/>
<path d="M0 0 C2.31 0 4.62 0 7 0 C7 2.31 7 4.62 7 7 C4.69 7 2.38 7 0 7 C0 4.69 0 2.38 0 0 Z " fill="#000000" transform="translate(348,223)"/>
<path d="M0 0 C3.375 -0.1875 3.375 -0.1875 7 0 C9 3 9 3 8.6875 5.625 C8 8 8 8 7 9 C4.5625 9.1875 4.5625 9.1875 2 9 C0 7 0 7 -0.125 3.375 C-0.08375 2.26125 -0.0425 1.1475 0 0 Z M3 2 C2.34 3.32 1.68 4.64 1 6 C2.06645115 7.29633621 2.06645115 7.29633621 4.5625 7.0625 C5.366875 7.041875 6.17125 7.02125 7 7 C7 5.35 7 3.7 7 2 C5.68 2 4.36 2 3 2 Z " fill="#D8D8D8" transform="translate(148,146)"/>
<path d="M0 0 C1.47906892 -0.02689216 2.95827483 -0.04634621 4.4375 -0.0625 C5.26121094 -0.07410156 6.08492188 -0.08570313 6.93359375 -0.09765625 C9 0 9 0 10 1 C10.1328125 2.8125 10.1328125 2.8125 10.125 5 C10.12757812 5.721875 10.13015625 6.44375 10.1328125 7.1875 C10 9 10 9 9 10 C7.1875 10.1328125 7.1875 10.1328125 5 10.125 C4.278125 10.12757813 3.55625 10.13015625 2.8125 10.1328125 C1 10 1 10 0 9 C-0.07179964 7.48071962 -0.08392007 5.95832518 -0.0625 4.4375 C-0.05347656 3.61121094 -0.04445313 2.78492188 -0.03515625 1.93359375 C-0.02355469 1.29550781 -0.01195313 0.65742188 0 0 Z M1 3 C0.95919217 4.99958364 0.95745644 7.00045254 1 9 C3.33294775 9.04241723 5.66702567 9.04092937 8 9 C9.35618499 7.87465895 9.35618499 7.87465895 9.0625 4.9375 C9.041875 3.968125 9.02125 2.99875 9 2 C4.67679914 1.49633499 4.67679914 1.49633499 1 3 Z " fill="#FAFAFA" transform="translate(96,145)"/>
<path d="M0 0 C2.97 0 5.94 0 9 0 C3.375 6.75 3.375 6.75 0 9 C0 6.03 0 3.06 0 0 Z " fill="#FCFCFC" transform="translate(326,528)"/>
<path d="M0 0 C1.47906892 -0.02689216 2.95827483 -0.04634621 4.4375 -0.0625 C5.26121094 -0.07410156 6.08492187 -0.08570313 6.93359375 -0.09765625 C9 0 9 0 10 1 C10.04092937 3.33297433 10.04241723 5.66705225 10 8 C8.52093108 8.02689216 7.04172517 8.04634621 5.5625 8.0625 C4.32693359 8.07990234 4.32693359 8.07990234 3.06640625 8.09765625 C1 8 1 8 0 7 C-0.04092937 4.66702567 -0.04241723 2.33294775 0 0 Z M3 2 C2.40929986 3.94603274 2.40929986 3.94603274 2 6 C3.12534105 7.35618499 3.12534105 7.35618499 6.0625 7.0625 C7.031875 7.041875 8.00125 7.02125 9 7 C9 5.35 9 3.7 9 2 C7.02 2 5.04 2 3 2 Z " fill="#DADADA" transform="translate(160,184)"/>
<path d="M0 0 C0.33 0 0.66 0 1 0 C1 3.63 1 7.26 1 11 C3.97 11 6.94 11 10 11 C10 11.33 10 11.66 10 12 C7.03 12 4.06 12 1 12 C1 15.96 1 19.92 1 24 C0.67 24 0.34 24 0 24 C0 20.04 0 16.08 0 12 C-3.96 12 -7.92 12 -12 12 C-12 11.67 -12 11.34 -12 11 C-8.04 11 -4.08 11 0 11 C0 7.37 0 3.74 0 0 Z " fill="#535353" transform="translate(370,134)"/>
<path d="M0 0 C2.31 0 4.62 0 7 0 C7 1.98 7 3.96 7 6 C4.69 6 2.38 6 0 6 C0 4.02 0 2.04 0 0 Z " fill="#030303" transform="translate(353,444)"/>
<path d="M0 0 C2.31 0 4.62 0 7 0 C7 1.98 7 3.96 7 6 C4.69 6 2.38 6 0 6 C0 4.02 0 2.04 0 0 Z " fill="#070707" transform="translate(328,419)"/>
<path d="M0 0 C1.98 0 3.96 0 6 0 C6 2.31 6 4.62 6 7 C4.02 7 2.04 7 0 7 C0 4.69 0 2.38 0 0 Z " fill="#262626" transform="translate(341,406)"/>
<path d="M0 0 C1.98 0 3.96 0 6 0 C6 2.31 6 4.62 6 7 C4.02 7 2.04 7 0 7 C0 4.69 0 2.38 0 0 Z " fill="#1B1B1B" transform="translate(361,261)"/>
<path d="M0 0 C3.3 0 6.6 0 10 0 C10 0.99 10 1.98 10 3 C7.36 3 4.72 3 2 3 C2 4.32 2 5.64 2 7 C4.97 7 7.94 7 11 7 C11 7.66 11 8.32 11 9 C9.35425434 9.02688151 7.70838587 9.04634123 6.0625 9.0625 C5.14597656 9.07410156 4.22945312 9.08570313 3.28515625 9.09765625 C1 9 1 9 0 8 C-0.14115161 5.32941149 -0.04247107 2.67567762 0 0 Z " fill="#D2D2D2" transform="translate(134,183)"/>
<path d="M0 0 C2.64 0 5.28 0 8 0 C8.33 1.32 8.66 2.64 9 4 C6.69 4 4.38 4 2 4 C2 5.65 2 7.3 2 9 C3.98 9 5.96 9 8 9 C8 9.33 8 9.66 8 10 C5.66705225 10.04241723 3.33297433 10.04092937 1 10 C0 9 0 9 -0.09765625 6.93359375 C-0.08605469 6.10988281 -0.07445312 5.28617188 -0.0625 4.4375 C-0.05347656 3.61121094 -0.04445312 2.78492188 -0.03515625 1.93359375 C-0.02355469 1.29550781 -0.01195312 0.65742188 0 0 Z " fill="#D9D9D9" transform="translate(135,158)"/>
<path d="M0 0 C1.98 0 3.96 0 6 0 C6 2.31 6 4.62 6 7 C4.02 7 2.04 7 0 7 C0 4.69 0 2.38 0 0 Z " fill="#F3F3F3" transform="translate(136,134)"/>
<path d="M0 0 C2.62187494 1.04874998 3.79371361 1.64931313 5.25 4.125 C5.4975 4.74375 5.745 5.3625 6 6 C6.66 6 7.32 6 8 6 C8 6.66 8 7.32 8 8 C5.36 8 2.72 8 0 8 C0 5.36 0 2.72 0 0 Z " fill="#D4D4D4" transform="translate(334,48)"/>
<path d="M0 0 C3.36179774 1.44077046 5.59156268 3.24750021 8 6 C8 6.66 8 7.32 8 8 C5.36 8 2.72 8 0 8 C0 5.36 0 2.72 0 0 Z " fill="#C1C1C1" transform="translate(372,86)"/>
<path d="M0 0 C6.77515561 1.90280966 13.68363709 3.84819871 20 7 C20.33 7.66 20.66 8.32 21 9 C17.7 8.34 14.4 7.68 11 7 C11 6.34 11 5.68 11 5 C10.37351563 4.86722656 9.74703125 4.73445312 9.1015625 4.59765625 C8.28429687 4.42105469 7.46703125 4.24445312 6.625 4.0625 C5.81289062 3.88847656 5.00078125 3.71445312 4.1640625 3.53515625 C2 3 2 3 0 2 C0 1.34 0 0.68 0 0 Z " fill="#F3F3F3" transform="translate(121,580)"/>
<path d="M0 0 C2.31 0 4.62 0 7 0 C7.38133299 1.9914056 7.71325582 3.99279077 8 6 C7 7 7 7 3.4375 7.0625 C2.303125 7.041875 1.16875 7.02125 0 7 C0 4.69 0 2.38 0 0 Z M2 3 C2 3.99 2 4.98 2 6 C3.65 6 5.3 6 7 6 C7 5.01 7 4.02 7 3 C5.35 3 3.7 3 2 3 Z " fill="#FDFDFD" transform="translate(161,159)"/>
<path d="M0 0 C1.98 0 3.96 0 6 0 C6.625 2.875 6.625 2.875 7 6 C6.34 6.66 5.68 7.32 5 8 C1.46428571 7.46428571 1.46428571 7.46428571 0 6 C-0.04080783 4.00041636 -0.04254356 1.99954746 0 0 Z M2 3 C2 3.99 2 4.98 2 6 C3.32 5.67 4.64 5.34 6 5 C6 4.34 6 3.68 6 3 C4.68 3 3.36 3 2 3 Z " fill="#CCCCCC" transform="translate(187,159)"/>
<path d="M0 0 C1.98 0 3.96 0 6 0 C6 1.98 6 3.96 6 6 C4.02 6 2.04 6 0 6 C0 4.02 0 2.04 0 0 Z " fill="#DADADA" transform="translate(242,569)"/>
<path d="M0 0 C1.98 0 3.96 0 6 0 C6 1.98 6 3.96 6 6 C4.02 6 2.04 6 0 6 C0 4.02 0 2.04 0 0 Z " fill="#F4F4F4" transform="translate(229,556)"/>
<path d="M0 0 C1.98 0 3.96 0 6 0 C6 1.98 6 3.96 6 6 C4.02 6 2.04 6 0 6 C0 4.02 0 2.04 0 0 Z " fill="#FCFCFC" transform="translate(204,531)"/>
<path d="M0 0 C1.98 0 3.96 0 6 0 C6 1.98 6 3.96 6 6 C4.02 6 2.04 6 0 6 C0 4.02 0 2.04 0 0 Z " fill="#262626" transform="translate(354,419)"/>
<path d="M0 0 C1.98 0 3.96 0 6 0 C6 1.98 6 3.96 6 6 C4.02 6 2.04 6 0 6 C0 4.02 0 2.04 0 0 Z " fill="#0E0E0E" transform="translate(329,394)"/>
<path d="M0 0 C1.98 0 3.96 0 6 0 C6 1.98 6 3.96 6 6 C4.02 6 2.04 6 0 6 C0 4.02 0 2.04 0 0 Z " fill="#000000" transform="translate(336,236)"/>
<path d="M0 0 C2.31 0 4.62 0 7 0 C7.38063221 2.3260857 7.71269945 4.66055264 8 7 C7 8 7 8 4.5625 8.1875 C2 8 2 8 0 6 C-0.125 2.875 -0.125 2.875 0 0 Z M1 2 C1 3.32 1 4.64 1 6 C2.65 6 4.3 6 6 6 C6 4.68 6 3.36 6 2 C4.35 2 2.7 2 1 2 Z " fill="#E7E7E7" transform="translate(187,185)"/>
<path d="M0 0 C3.7952131 1.49097658 5.61042731 3.75700849 8 7 C5.36 7 2.72 7 0 7 C0 4.69 0 2.38 0 0 Z " fill="#DCDCDC" transform="translate(360,74)"/>
<path d="M0 0 C2.64 0 5.28 0 8 0 C3.375 5.875 3.375 5.875 0 7 C0 4.69 0 2.38 0 0 Z " fill="#F7F7F7" transform="translate(314,541)"/>
<path d="M0 0 C3.06713244 1.36242426 5.11840293 2.89699705 7.4375 5.3125 C8.3346875 6.23675781 8.3346875 6.23675781 9.25 7.1796875 C9.8275 7.78039062 10.405 8.38109375 11 9 C11.97672182 9.98160543 12.95554767 10.96112694 13.9375 11.9375 C14.618125 12.618125 15.29875 13.29875 16 14 C15.67 14.66 15.34 15.32 15 16 C10.93262923 13.04191217 7.84809895 9.64138562 4.6484375 5.8046875 C2.93367669 3.78227744 2.93367669 3.78227744 0 2 C0 1.34 0 0.68 0 0 Z " fill="#DEDEDE" transform="translate(111,188)"/>
<path d="M0 0 C2.31 0 4.62 0 7 0 C7 1.32 7 2.64 7 4 C4.69 4.66 2.38 5.32 0 6 C0 4.02 0 2.04 0 0 Z " fill="#F9F9F9" transform="translate(266,568)"/>
<path d="M0 0 C2.31 0 4.62 0 7 0 C8.125 5.75 8.125 5.75 7 8 C5.00045254 8.04254356 2.99958364 8.04080783 1 8 C0 7 0 7 -0.0625 3.4375 C-0.041875 2.303125 -0.02125 1.16875 0 0 Z M2 2 C1.67 3.32 1.34 4.64 1 6 C3.475 6.495 3.475 6.495 6 7 C6.33 5.68 6.66 4.36 7 3 C5.35 2.67 3.7 2.34 2 2 Z " fill="#E5E5E5" transform="translate(174,172)"/>
<path d="M0 0 C1.65 0 3.3 0 5 0 C5 1.98 5 3.96 5 6 C3.35 6 1.7 6 0 6 C0 4.02 0 2.04 0 0 Z " fill="#F4F4F4" transform="translate(217,544)"/>
<path d="M0 0 C1.98 0 3.96 0 6 0 C6 1.65 6 3.3 6 5 C4.02 5 2.04 5 0 5 C0 3.35 0 1.7 0 0 Z " fill="#080808" transform="translate(366,432)"/>
<path d="M0 0 C1.65 0 3.3 0 5 0 C5 1.98 5 3.96 5 6 C3.35 6 1.7 6 0 6 C0 4.02 0 2.04 0 0 Z " fill="#000000" transform="translate(324,224)"/>
<path d="M0 0 C2 0 2 0 4.3125 2.1875 C5.199375 3.115625 6.08625 4.04375 7 5 C7.928125 5.86625 8.85625 6.7325 9.8125 7.625 C12 10 12 10 12 13 C11.46890625 12.52949219 10.9378125 12.05898438 10.390625 11.57421875 C9.68421875 10.95160156 8.9778125 10.32898437 8.25 9.6875 C7.55390625 9.07261719 6.8578125 8.45773438 6.140625 7.82421875 C4.0397126 5.96753151 4.0397126 5.96753151 1.734375 4.45703125 C1.16203125 3.97621094 0.5896875 3.49539062 0 3 C0 2.01 0 1.02 0 0 Z " fill="#D1D1D1" transform="translate(348,43)"/>
<path d="M0 0 C1.98 0 3.96 0 6 0 C6.38133299 1.9914056 6.71325582 3.99279077 7 6 C6 7 6 7 3.5 7.125 C1 7 1 7 0 6 C-0.04080783 4.00041636 -0.04254356 1.99954746 0 0 Z M3 1 C2.34 2.32 1.68 3.64 1 5 C2.32 5.33 3.64 5.66 5 6 C5.33 5.34 5.66 4.68 6 4 C5.01 3.01 4.02 2.02 3 1 Z " fill="#E3E3E3" transform="translate(175,147)"/>
<path d="M0 0 C0.66 0 1.32 0 2 0 C3.2890625 1.53125 3.2890625 1.53125 4.625 3.5 C5.07101562 4.1496875 5.51703125 4.799375 5.9765625 5.46875 C6.31429688 5.9740625 6.65203125 6.479375 7 7 C4.69 7 2.38 7 0 7 C0 4.69 0 2.38 0 0 Z " fill="#EDEDED" transform="translate(347,61)"/>
<path d="M0 0 C0 3.77910478 -0.99703962 4.46106101 -3.5 7.1875 C-4.1496875 7.90292969 -4.799375 8.61835937 -5.46875 9.35546875 C-5.9740625 9.89816406 -6.479375 10.44085937 -7 11 C-7.99 10.67 -8.98 10.34 -10 10 C-3.84965831 2.51708428 -3.84965831 2.51708428 0 0 Z " fill="#F8F8F8" transform="translate(351,530)"/>
<path d="M0 0 C5.42373208 2.7940438 11.03080562 7.09241685 13 13 C11 13 11 13 8.6875 10.8125 C7.800625 9.884375 6.91375 8.95625 6 8 C5.0925 7.13375 4.185 6.2675 3.25 5.375 C1 3 1 3 0 0 Z " fill="#D7D7D7" transform="translate(83,160)"/>
<path d="M0 0 C1.16959987 0.97566112 2.33561177 1.955625 3.5 2.9375 C4.1496875 3.48277344 4.799375 4.02804688 5.46875 4.58984375 C5.9740625 5.05519531 6.479375 5.52054688 7 6 C7 6.33 7 6.66 7 7 C4.69 7 2.38 7 0 7 C0 4.69 0 2.38 0 0 Z " fill="#E1E1E1" transform="translate(323,36)"/>
<path d="M0 0 C2.97 0 5.94 0 9 0 C8.67 0.99 8.34 1.98 8 3 C5.03 2.505 5.03 2.505 2 2 C1.67 3.98 1.34 5.96 1 8 C0.67 8 0.34 8 0 8 C0 5.36 0 2.72 0 0 Z " fill="#FEFEFE" transform="translate(122,171)"/>
<path d="M0 0 C3.3 0 6.6 0 10 0 C10 0.33 10 0.66 10 1 C7.03 1 4.06 1 1 1 C1 3.64 1 6.28 1 9 C0.34 8.34 -0.32 7.68 -1 7 C-1.99 7.495 -1.99 7.495 -3 8 C-2.690625 7.236875 -2.38125 6.47375 -2.0625 5.6875 C-1.32106407 3.81210323 -0.63771783 1.91315348 0 0 Z " fill="#BEBEBE" transform="translate(301,442)"/>
<path d="M0 0 C1.65 0 3.3 0 5 0 C5 1.65 5 3.3 5 5 C3.35 5 1.7 5 0 5 C0 3.35 0 1.7 0 0 Z " fill="#D1D1D1" transform="translate(192,544)"/>
<path d="M0 0 C0.66 0 1.32 0 2 0 C1.55530671 5.03985731 -0.71343362 7.37634988 -4 11 C-4.33 10.34 -4.66 9.68 -5 9 C-4.00390625 6.8359375 -4.00390625 6.8359375 -2.5625 4.375 C-2.08941406 3.55773437 -1.61632812 2.74046875 -1.12890625 1.8984375 C-0.75636719 1.27195312 -0.38382812 0.64546875 0 0 Z " fill="#ECECEC" transform="translate(364,507)"/>
<path d="M0 0 C1.65 0 3.3 0 5 0 C5 1.65 5 3.3 5 5 C3.35 5 1.7 5 0 5 C0 3.35 0 1.7 0 0 Z " fill="#171717" transform="translate(354,395)"/>
<path d="M0 0 C1.65 0 3.3 0 5 0 C5 1.65 5 3.3 5 5 C3.35 5 1.7 5 0 5 C0 3.35 0 1.7 0 0 Z " fill="#282828" transform="translate(329,370)"/>
<path d="M0 0 C1.65 0 3.3 0 5 0 C5 1.65 5 3.3 5 5 C3.35 5 1.7 5 0 5 C0 3.35 0 1.7 0 0 Z " fill="#161616" transform="translate(374,299)"/>
<path d="M0 0 C1.65 0 3.3 0 5 0 C5 1.65 5 3.3 5 5 C3.35 5 1.7 5 0 5 C0 3.35 0 1.7 0 0 Z " fill="#000000" transform="translate(374,274)"/>
<path d="M0 0 C1.65 0 3.3 0 5 0 C5 1.65 5 3.3 5 5 C3.35 5 1.7 5 0 5 C0 3.35 0 1.7 0 0 Z " fill="#070707" transform="translate(349,274)"/>
<path d="M0 0 C1.65 0 3.3 0 5 0 C5 1.65 5 3.3 5 5 C3.35 5 1.7 5 0 5 C0 3.35 0 1.7 0 0 Z " fill="#0F0F0F" transform="translate(324,249)"/>
<path d="M0 0 C1.65 0 3.3 0 5 0 C5 1.65 5 3.3 5 5 C3.35 5 1.7 5 0 5 C0 3.35 0 1.7 0 0 Z " fill="#FFFFFF" transform="translate(162,134)"/>
<path d="M0 0 C0 0.99 0 1.98 0 3 C-4.625 5.125 -4.625 5.125 -8 4 C-6.4425489 0.88509781 -3.40085499 0 0 0 Z " fill="#F4F4F4" transform="translate(289,579)"/>
<path d="M0 0 C1.32 0 2.64 0 4 0 C4 1.65 4 3.3 4 5 C2.68 5 1.36 5 0 5 C0 3.35 0 1.7 0 0 Z " fill="#F2F2F2" transform="translate(205,557)"/>
<path d="M0 0 C1.32 0 2.64 0 4 0 C4 1.65 4 3.3 4 5 C2.68 5 1.36 5 0 5 C0 3.35 0 1.7 0 0 Z " fill="#0C0C0C" transform="translate(367,407)"/>
<path d="M0 0 C1.32 0 2.64 0 4 0 C4 1.65 4 3.3 4 5 C2.68 5 1.36 5 0 5 C0 3.35 0 1.7 0 0 Z " fill="#000000" transform="translate(342,382)"/>
<path d="M0 0 C1.32 0 2.64 0 4 0 C4 1.65 4 3.3 4 5 C2.68 5 1.36 5 0 5 C0 3.35 0 1.7 0 0 Z " fill="#0C0C0C" transform="translate(337,262)"/>
<path d="M0 0 C1.65 0 3.3 0 5 0 C5 1.32 5 2.64 5 4 C3.35 4 1.7 4 0 4 C0 2.68 0 1.36 0 0 Z " fill="#D6D6D6" transform="translate(188,135)"/>
<path d="M0 0 C0.33 1.32 0.66 2.64 1 4 C-1.31 4 -3.62 4 -6 4 C-3.94766315 1.7522025 -2.99332739 0.9977758 0 0 Z " fill="#BDBDBD" transform="translate(235,510)"/>
<path d="M0 0 C0 3.57575896 -1.08840607 5.05295935 -3 8 C-3.66 7.67 -4.32 7.34 -5 7 C-2.25 1.125 -2.25 1.125 0 0 Z " fill="#F9F9F9" transform="translate(370,499)"/>
</svg>
