<?xml version="1.0" encoding="UTF-8"?>
<svg version="1.1" xmlns="http://www.w3.org/2000/svg" width="481" height="602">
<path d="M0 0 C127.05 0 254.1 0 385 0 C385 0.66 385 1.32 385 2 C386.32 2 387.64 2 389 2 C389 2.99 389 3.98 389 5 C390.32 5 391.64 5 393 5 C393 6.32 393 7.64 393 9 C394.98 9.495 394.98 9.495 397 10 C397 10.99 397 11.98 397 13 C397.99 13 398.98 13 400 13 C400 14.32 400 15.64 400 17 C401.32 17 402.64 17 404 17 C406.25 18.8125 406.25 18.8125 408 21 C408 21.99 408 22.98 408 24 C409.32 24 410.64 24 412 24 C412 25.32 412 26.64 412 28 C412.99 28 413.98 28 415 28 C415 28.66 415 29.32 415 30 C416.32 30 417.64 30 419 30 C419 31.32 419 32.64 419 34 C420.32 34.33 421.64 34.66 423 35 C423 35.99 423 36.98 423 38 C424.32 38.33 425.64 38.66 427 39 C427 40.32 427 41.64 427 43 C427.99 43 428.98 43 430 43 C430 43.66 430 44.32 430 45 C430.99 45 431.98 45 433 45 C433.4021875 46.2065625 433.4021875 46.2065625 433.8125 47.4375 C434.204375 48.283125 434.59625 49.12875 435 50 C435.99 50.33 436.98 50.66 438 51 C438 52.32 438 53.64 438 55 C439.32 55 440.64 55 442 55 C442 55.66 442 56.32 442 57 C442.99 57 443.98 57 445 57 C445 57.99 445 58.98 445 60 C445.99 60 446.98 60 448 60 C448.33 61.32 448.66 62.64 449 64 C450.32 64 451.64 64 453 64 C453 65.32 453 66.64 453 68 C454.32 68 455.64 68 457 68 C457 69.32 457 70.64 457 72 C457.99 72 458.98 72 460 72 C460 110.28 460 148.56 460 188 C455.73069619 189.70772153 454.06167716 190.24935464 449.76713562 190.24050903 C448.7337355 190.24325836 447.70033539 190.24600769 446.63562012 190.24884033 C445.5128064 190.24164978 444.38999268 190.23445923 443.2331543 190.22705078 C442.04248856 190.22734283 440.85182281 190.22763489 439.62507629 190.22793579 C436.36920876 190.22678298 433.11351418 190.21676739 429.85768104 190.20278788 C426.45174397 190.19026703 423.04580333 190.18910895 419.6398468 190.18673706 C413.19427462 190.18052626 406.74877046 190.16412089 400.3032282 190.14403808 C392.96347914 190.1216666 385.6237268 190.11068251 378.28395212 190.10064721 C363.18926354 190.07975429 348.09463858 190.04458612 333 190 C333 190.66 333 191.32 333 192 C331.68 192.33 330.36 192.66 329 193 C329 194.32 329 195.64 329 197 C330.32 197 331.64 197 333 197 C333.02316372 204.64082476 333.04093569 212.28164588 333.05181217 219.92249775 C333.05703216 223.47039848 333.0641138 227.0182752 333.07543945 230.56616211 C333.08837663 234.64437084 333.09323552 238.72255433 333.09765625 242.80078125 C333.10281754 244.07585037 333.10797882 245.35091949 333.11329651 246.66462708 C333.11340981 248.43612373 333.11340981 248.43612373 333.11352539 250.2434082 C333.115746 251.28487503 333.11796661 252.32634186 333.12025452 253.39936829 C333 256 333 256 332 259 C331.34 259.33 330.68 259.66 330 260 C329.53476937 261.89533342 329.53476937 261.89533342 329.375 264.0625 C329.25125 265.361875 329.1275 266.66125 329 268 C330.32 268.66 331.64 269.32 333 270 C333.02696365 271.79158489 333.04637917 273.58328473 333.0625 275.375 C333.07410156 276.37273437 333.08570313 277.37046875 333.09765625 278.3984375 C333 281 333 281 332 283 C331.01 283 330.02 283 329 283 C329 286.3 329 289.6 329 293 C329.99 293.33 330.98 293.66 332 294 C333.15527536 296.31055073 333.12724782 297.62065546 333.13142776 300.1917038 C333.13526891 301.07575158 333.13911005 301.95979936 333.1430676 302.87063646 C333.14220112 303.84785646 333.14133463 304.82507646 333.14044189 305.83190918 C333.14489858 307.38206388 333.14489858 307.38206388 333.1494453 308.96353483 C333.1581622 312.44900523 333.15964305 315.93444141 333.16113281 319.41992188 C333.16575878 321.90955174 333.17078313 324.39918089 333.17617798 326.8888092 C333.18932312 333.66753581 333.19578708 340.44624893 333.20018864 347.22498512 C333.2029489 351.45463309 333.20718579 355.68427876 333.21169281 359.91392517 C333.22388542 371.61659858 333.23418555 383.31927015 333.2375679 395.02194977 C333.23778747 395.77118205 333.23800703 396.52041433 333.23823325 397.29235062 C333.23845153 398.04340534 333.23866981 398.79446006 333.2388947 399.56827402 C333.23933817 401.09027513 333.23978474 402.61227624 333.24023438 404.13427734 C333.2404558 404.88924726 333.24067723 405.64421717 333.24090537 406.42206496 C333.24485639 418.66498198 333.26231967 430.90783959 333.2855939 443.15073365 C333.30927719 455.70976683 333.32176833 468.26877014 333.32293582 480.82782602 C333.32385416 487.88361757 333.32964638 494.93933166 333.34775543 501.99510193 C333.3647164 508.62703572 333.36643178 515.25884798 333.35761642 521.8908062 C333.35684169 524.33138357 333.36124555 526.77196862 333.37107468 529.21252632 C333.38366177 532.53122717 333.37798997 535.84939486 333.36749268 539.16809082 C333.37957728 540.63392081 333.37957728 540.63392081 333.39190602 542.12936354 C333.38202126 543.45543521 333.38202126 543.45543521 333.3719368 544.8082962 C333.37253389 545.57500657 333.37313097 546.34171693 333.37374616 547.13166094 C333 549 333 549 330 551 C329.61588725 553.609621 329.39706803 556.0058074 329.3125 558.625 C329.27833984 559.33140625 329.24417969 560.0378125 329.20898438 560.765625 C329.12648692 562.50985688 329.06156665 564.25490395 329 566 C330.32 566.33 331.64 566.66 333 567 C333 568.98 333 570.96 333 573 C331.68 573.33 330.36 573.66 329 574 C329 574.66 329 575.32 329 576 C287.09 576 245.18 576 202 576 C202 575.34 202 574.68 202 574 C200.68 574 199.36 574 198 574 C198 572.68 198 571.36 198 570 C196.68 570 195.36 570 194 570 C194 568.68 194 567.36 194 566 C192.68 565.67 191.36 565.34 190 565 C190 563.68 190 562.36 190 561 C189.01 561 188.02 561 187 561 C187 559.68 187 558.36 187 557 C185.68 557 184.36 557 183 557 C183 556.34 183 555.68 183 555 C181.68 554.67 180.36 554.34 179 554 C179 553.01 179 552.02 179 551 C177.68 550.67 176.36 550.34 175 550 C175 549.01 175 548.02 175 547 C174.01 547 173.02 547 172 547 C172 545.35 172 543.7 172 542 C170.68 542 169.36 542 168 542 C168 540.68 168 539.36 168 538 C166.68 538 165.36 538 164 538 C164 537.34 164 536.68 164 536 C163.01 536 162.02 536 161 536 C160.67 534.68 160.34 533.36 160 532 C159.01 532 158.02 532 157 532 C157 530.68 157 529.36 157 528 C155.68 527.67 154.36 527.34 153 527 C153 525.68 153 524.36 153 523 C151.68 523 150.36 523 149 523 C149 522.34 149 521.68 149 521 C147.68 520.34 146.36 519.68 145 519 C145 518.34 145 517.68 145 517 C144.01 517 143.02 517 142 517 C142 515.68 142 514.36 142 513 C140.68 513 139.36 513 138 513 C138 512.01 138 511.02 138 510 C136.68 509.67 135.36 509.34 134 509 C134 508.01 134 507.02 134 506 C133.01 506 132.02 506 131 506 C129.73269807 503.46539614 129.87581407 501.7197103 129.87695217 498.88128471 C129.87496112 497.7904832 129.87297007 496.69968168 129.87091869 495.57582557 C129.87383153 494.36767539 129.87674437 493.1595252 129.87974548 491.9147644 C129.87846385 490.00109863 129.87846385 490.00109863 129.87715632 488.04877293 C129.8749118 484.49598936 129.87893205 480.94323572 129.88393438 477.39045596 C129.88823931 473.56359782 129.88679242 469.73674147 129.8860321 465.90988159 C129.8855069 459.27572095 129.88865337 452.64157013 129.89426994 446.00741196 C129.90238537 436.41544735 129.90500021 426.8234875 129.90625793 417.23151983 C129.90844839 401.67045715 129.91510829 386.10939969 129.92456055 370.54833984 C129.93373484 355.42919949 129.94081559 340.31006055 129.94506836 325.19091797 C129.94533108 324.2595008 129.94559381 323.32808362 129.94586449 322.36844169 C129.9471695 317.69595273 129.94843321 313.02346377 129.94967639 308.3509748 C129.9600488 269.56731287 129.97766693 230.78365678 130 192 C129.01 192 128.02 192 127 192 C127 191.34 127 190.68 127 190 C126.33680756 190.00444122 125.67361511 190.00888245 124.99032593 190.01345825 C118.07967282 190.0577502 111.16906014 190.08789088 104.25830078 190.10986328 C101.68015912 190.11991262 99.10202882 190.13355426 96.52392578 190.15087891 C92.81540111 190.17517367 89.10702732 190.18649396 85.3984375 190.1953125 C84.24822113 190.20563507 83.09800476 190.21595764 81.91293335 190.22659302 C76.56185962 190.22734102 71.98677305 190.21379019 67 188 C67 186.68 67 185.36 67 184 C65.68 184 64.36 184 63 184 C63 182.68 63 181.36 63 180 C61.68 179.67 60.36 179.34 59 179 C59 177.68 59 176.36 59 175 C57.68 175 56.36 175 55 175 C55 173.68 55 172.36 55 171 C54.01 171 53.02 171 52 171 C52 169.68 52 168.36 52 167 C50.68 167 49.36 167 48 167 C48 166.34 48 165.68 48 165 C46.68 164.67 45.36 164.34 44 164 C44 163.01 44 162.02 44 161 C42.68 160.67 41.36 160.34 40 160 C40 158.68 40 157.36 40 156 C39.01 156 38.02 156 37 156 C37 154.68 37 153.36 37 152 C35.68 152 34.36 152 33 152 C33 151.34 33 150.68 33 150 C31.68 150 30.36 150 29 150 C29 148.68 29 147.36 29 146 C27.68 145.67 26.36 145.34 25 145 C25 144.01 25 143.02 25 142 C24.01 142 23.02 142 22 142 C22 140.35 22 138.7 22 137 C20.68 137 19.36 137 18 137 C18 135.68 18 134.36 18 133 C16.68 133 15.36 133 14 133 C11.75 131.125 11.75 131.125 10 129 C10 128.34 10 127.68 10 127 C9.01 127 8.02 127 7 127 C7 125.68 7 124.36 7 123 C5.68 123 4.36 123 3 123 C3 121.35 3 119.7 3 118 C1.68 118 0.36 118 -1 118 C-1 115.69 -1 113.38 -1 111 C-1.99 110.67 -2.98 110.34 -4 110 C-4.02694851 108.04174127 -4.04637218 106.08337774 -4.0625 104.125 C-4.07410156 103.03445312 -4.08570313 101.94390625 -4.09765625 100.8203125 C-4 98 -4 98 -3 96 C-2.34 96 -1.68 96 -1 96 C-1.0940374 91.14331223 -1.20023904 86.2870937 -1.31738281 81.4309082 C-1.35550299 79.78124135 -1.3903845 78.13149618 -1.421875 76.48168945 C-1.4678966 74.10079079 -1.52582635 71.72042348 -1.5859375 69.33984375 C-1.60326431 68.24566383 -1.60326431 68.24566383 -1.62094116 67.12937927 C-1.75359876 62.45459421 -2.63558865 58.50376787 -4 54 C-4.25878906 51.54052734 -4.25878906 51.54052734 -4.265625 49.3359375 C-4.26820312 48.52382813 -4.27078125 47.71171875 -4.2734375 46.875 C-4.26570312 46.05 -4.25796875 45.225 -4.25 44.375 C-4.25773438 43.54226562 -4.26546875 42.70953125 -4.2734375 41.8515625 C-4.25895259 37.30330047 -3.71162213 34.22679206 -2 30 C-1.60996656 26.73642477 -1.49252247 23.47078397 -1.375 20.1875 C-1.33632812 19.30384766 -1.29765625 18.42019531 -1.2578125 17.50976562 C-1.16399216 15.34017028 -1.08092674 13.17011453 -1 11 C-1.99 10.67 -2.98 10.34 -4 10 C-4 8.35 -4 6.7 -4 5 C-3.01 5 -2.02 5 -1 5 C-0.67 3.35 -0.34 1.7 0 0 Z M238 238 C238 243.94 238 249.88 238 256 C238.33 256 238.66 256 239 256 C239 250.06 239 244.12 239 238 C238.67 238 238.34 238 238 238 Z " fill="#040404" transform="translate(15,11)"/>
<path d="M0 0 C119.46 0 238.92 0 362 0 C362 30.03 362 60.06 362 91 C318.44 91 274.88 91 230 91 C230.08378906 103.08882813 230.16757812 115.17765625 230.25390625 127.6328125 C230.30606961 135.68277435 230.35777353 143.73273239 230.40649414 151.78271484 C230.41276514 152.81825398 230.41903614 153.85379312 230.42549717 154.92071223 C230.47214204 162.65546918 230.5176016 170.39023273 230.5625 178.125 C230.56888284 179.22029305 230.57526568 180.31558611 230.58184195 181.44406986 C230.99782863 253.09110523 231.00044059 324.72810093 230.5625 396.375 C230.55610205 397.42600797 230.5497041 398.47701593 230.54311228 399.55987263 C230.49855053 406.86300077 230.45297191 414.16612208 230.40649414 421.46923828 C230.39777544 422.840057 230.39777544 422.840057 230.38888061 424.23856902 C230.27195161 442.49247813 230.13394639 460.74619824 230 479 C197.66 479 165.32 479 132 479 C132 351.29 132 223.58 132 92 C88.44 92 44.88 92 0 92 C0 61.64 0 31.28 0 0 Z M227 225 C227 230.94 227 236.88 227 243 C227.33 243 227.66 243 228 243 C228 237.06 228 231.12 228 225 C227.67 225 227.34 225 227 225 Z " fill="#FEFEFE" transform="translate(26,24)"/>
<path d="M0 0 C8.30890052 -0.48167539 8.30890052 -0.48167539 11.0625 1.4375 C12.46589324 5.27344153 12.23303606 8.96070821 12 13 C12.60328125 12.96519531 13.2065625 12.93039063 13.828125 12.89453125 C17.33569872 12.77572633 20.24398276 12.72340833 23.5625 13.9375 C25.97606593 17.40044242 25.23949419 20.86872524 25 25 C21.04 25 17.08 25 13 25 C13 29.29 13 33.58 13 38 C16.96 38 20.92 38 25 38 C25 41.96 25 45.92 25 50 C29.29 50 33.58 50 38 50 C38 53.96 38 57.92 38 62 C41.96 62 45.92 62 50 62 C50 58.04 50 54.08 50 50 C51.98 50 53.96 50 56 50 C56 54.29 56 58.58 56 63 C54.35 63 52.7 63 51 63 C51 66.63 51 70.26 51 74 C52.65 74 54.3 74 56 74 C56 78.95 56 83.9 56 89 C54.68 89 53.36 89 52 89 C52 91.97 52 94.94 52 98 C53.32 98 54.64 98 56 98 C56 103.28 56 108.56 56 114 C54.68 114 53.36 114 52 114 C52 116.97 52 119.94 52 123 C53.32 123 54.64 123 56 123 C56 128.61 56 134.22 56 140 C55.01 140 54.02 140 53 140 C53 142.31 53 144.62 53 147 C53.99 147 54.98 147 56 147 C56 153.27 56 159.54 56 166 C55.34 166 54.68 166 54 166 C54 167.65 54 169.3 54 171 C54.66 171 55.32 171 56 171 C56 177.93 56 184.86 56 192 C55.34 192 54.68 192 54 192 C54 192.99 54 193.98 54 195 C54.66 195 55.32 195 56 195 C56.33 205.89 56.66 216.78 57 228 C57.33 228 57.66 228 58 228 C58 234.6 58 241.2 58 248 C57.67 248 57.34 248 57 248 C56.67 308.39 56.34 368.78 56 431 C52.62296361 429.31148181 51.10993053 428.34574053 48.609375 425.76953125 C47.98675781 425.1353125 47.36414063 424.50109375 46.72265625 423.84765625 C46.07167969 423.17605469 45.42070312 422.50445313 44.75 421.8125 C43.39250962 420.43173836 42.03315915 419.05280279 40.671875 417.67578125 C39.76066895 416.7463269 39.76066895 416.7463269 38.83105469 415.7980957 C36.39613369 413.40700329 33.82804646 411.19730228 31.21875 409 C27.14742052 405.3300692 23.3530512 401.37112093 19.49707031 397.47753906 C16.33135276 394.29279867 13.17191954 391.16287366 9.75 388.25 C9.20891759 387.76521588 8.66783518 387.28043177 8.11035633 386.78095722 C5.96450513 384.90300126 5.96450513 384.90300126 3.27144146 383.17548656 C-2.02067161 379.05393181 -5.08621271 375.5740227 -6.00000572 368.76441383 C-6.5033368 361.98782911 -6.36161409 355.21382962 -6.2487793 348.42504883 C-6.24567408 345.81262341 -6.24742285 343.2001884 -6.25364685 340.58776855 C-6.25939357 334.97793842 -6.22511104 329.36952387 -6.16303062 323.76004982 C-6.07333629 315.65011801 -6.04495528 307.5408653 -6.03116272 299.43049129 C-6.00713346 286.26992396 -5.93405551 273.1101099 -5.82983398 259.94995117 C-5.72874501 247.17199451 -5.65094174 234.39424301 -5.60424805 221.6159668 C-5.59991311 220.43297099 -5.59991311 220.43297099 -5.5954906 219.22607628 C-5.58113438 215.26927566 -5.56723379 211.3124736 -5.55355966 207.35567057 C-5.43966822 174.56989883 -5.24605051 141.7850505 -5 109 C-4.34 109 -3.68 109 -3 109 C-3 107.02 -3 105.04 -3 103 C-3.66 103 -4.32 103 -5 103 C-5 97.06 -5 91.12 -5 85 C-4.34 85 -3.68 85 -3 85 C-3 82.36 -3 79.72 -3 77 C-3.66 77 -4.32 77 -5 77 C-5 71.39 -5 65.78 -5 60 C-4.01 60 -3.02 60 -2 60 C-2 57.03 -2 54.06 -2 51 C-2.99 51 -3.98 51 -5 51 C-5 46.38 -5 41.76 -5 37 C-3.35 37 -1.7 37 0 37 C0 33.37 0 29.74 0 26 C-1.65 26 -3.3 26 -5 26 C-5 21.38 -5 16.76 -5 12 C-3.35 12 -1.7 12 0 12 C0 8.04 0 4.08 0 0 Z " fill="#FBFBFB" transform="translate(274,141)"/>
<path d="M0 0 C127.05 0 254.1 0 385 0 C385 0.66 385 1.32 385 2 C386.32 2 387.64 2 389 2 C389 2.99 389 3.98 389 5 C390.32 5 391.64 5 393 5 C393 6.32 393 7.64 393 9 C394.98 9.495 394.98 9.495 397 10 C397 10.99 397 11.98 397 13 C397.99 13 398.98 13 400 13 C400 14.32 400 15.64 400 17 C401.32 17 402.64 17 404 17 C406.25 18.8125 406.25 18.8125 408 21 C408 21.99 408 22.98 408 24 C409.32 24 410.64 24 412 24 C412 25.32 412 26.64 412 28 C412.99 28 413.98 28 415 28 C415 28.66 415 29.32 415 30 C416.32 30 417.64 30 419 30 C419 31.32 419 32.64 419 34 C420.32 34.33 421.64 34.66 423 35 C423 35.99 423 36.98 423 38 C424.32 38.33 425.64 38.66 427 39 C427 40.32 427 41.64 427 43 C427.99 43 428.98 43 430 43 C430 43.66 430 44.32 430 45 C430.99 45 431.98 45 433 45 C433.4021875 46.2065625 433.4021875 46.2065625 433.8125 47.4375 C434.204375 48.283125 434.59625 49.12875 435 50 C435.99 50.33 436.98 50.66 438 51 C438 52.32 438 53.64 438 55 C439.32 55 440.64 55 442 55 C442 55.66 442 56.32 442 57 C442.99 57 443.98 57 445 57 C445 57.99 445 58.98 445 60 C445.99 60 446.98 60 448 60 C448.33 61.32 448.66 62.64 449 64 C450.32 64 451.64 64 453 64 C453 65.32 453 66.64 453 68 C454.32 68 455.64 68 457 68 C457 69.32 457 70.64 457 72 C457.99 72 458.98 72 460 72 C460 110.28 460 148.56 460 188 C455.73069619 189.70772153 454.06167716 190.24935464 449.76713562 190.24050903 C448.7337355 190.24325836 447.70033539 190.24600769 446.63562012 190.24884033 C445.5128064 190.24164978 444.38999268 190.23445923 443.2331543 190.22705078 C442.04248856 190.22734283 440.85182281 190.22763489 439.62507629 190.22793579 C436.36920876 190.22678298 433.11351418 190.21676739 429.85768104 190.20278788 C426.45174397 190.19026703 423.04580333 190.18910895 419.6398468 190.18673706 C413.19427462 190.18052626 406.74877046 190.16412089 400.3032282 190.14403808 C392.96347914 190.1216666 385.6237268 190.11068251 378.28395212 190.10064721 C363.18926354 190.07975429 348.09463858 190.04458612 333 190 C333 190.66 333 191.32 333 192 C331.68 192.33 330.36 192.66 329 193 C329 194.32 329 195.64 329 197 C330.32 197 331.64 197 333 197 C333.02316372 204.64082476 333.04093569 212.28164588 333.05181217 219.92249775 C333.05703216 223.47039848 333.0641138 227.0182752 333.07543945 230.56616211 C333.08837663 234.64437084 333.09323552 238.72255433 333.09765625 242.80078125 C333.10281754 244.07585037 333.10797882 245.35091949 333.11329651 246.66462708 C333.11340981 248.43612373 333.11340981 248.43612373 333.11352539 250.2434082 C333.115746 251.28487503 333.11796661 252.32634186 333.12025452 253.39936829 C333 256 333 256 332 259 C331.34 259.33 330.68 259.66 330 260 C329.53476937 261.89533342 329.53476937 261.89533342 329.375 264.0625 C329.25125 265.361875 329.1275 266.66125 329 268 C330.32 268.66 331.64 269.32 333 270 C333.02696365 271.79158489 333.04637917 273.58328473 333.0625 275.375 C333.07410156 276.37273437 333.08570313 277.37046875 333.09765625 278.3984375 C333 281 333 281 332 283 C331.01 283 330.02 283 329 283 C329 286.3 329 289.6 329 293 C329.99 293.33 330.98 293.66 332 294 C333.15527536 296.31055073 333.12724782 297.62065546 333.13142776 300.1917038 C333.13526891 301.07575158 333.13911005 301.95979936 333.1430676 302.87063646 C333.14220112 303.84785646 333.14133463 304.82507646 333.14044189 305.83190918 C333.14489858 307.38206388 333.14489858 307.38206388 333.1494453 308.96353483 C333.1581622 312.44900523 333.15964305 315.93444141 333.16113281 319.41992188 C333.16575878 321.90955174 333.17078313 324.39918089 333.17617798 326.8888092 C333.18932312 333.66753581 333.19578708 340.44624893 333.20018864 347.22498512 C333.2029489 351.45463309 333.20718579 355.68427876 333.21169281 359.91392517 C333.22388542 371.61659858 333.23418555 383.31927015 333.2375679 395.02194977 C333.23778747 395.77118205 333.23800703 396.52041433 333.23823325 397.29235062 C333.23845153 398.04340534 333.23866981 398.79446006 333.2388947 399.56827402 C333.23933817 401.09027513 333.23978474 402.61227624 333.24023438 404.13427734 C333.2404558 404.88924726 333.24067723 405.64421717 333.24090537 406.42206496 C333.24485639 418.66498198 333.26231967 430.90783959 333.2855939 443.15073365 C333.30927719 455.70976683 333.32176833 468.26877014 333.32293582 480.82782602 C333.32385416 487.88361757 333.32964638 494.93933166 333.34775543 501.99510193 C333.3647164 508.62703572 333.36643178 515.25884798 333.35761642 521.8908062 C333.35684169 524.33138357 333.36124555 526.77196862 333.37107468 529.21252632 C333.38366177 532.53122717 333.37798997 535.84939486 333.36749268 539.16809082 C333.37957728 540.63392081 333.37957728 540.63392081 333.39190602 542.12936354 C333.38202126 543.45543521 333.38202126 543.45543521 333.3719368 544.8082962 C333.37253389 545.57500657 333.37313097 546.34171693 333.37374616 547.13166094 C333 549 333 549 330 551 C329.61588725 553.609621 329.39706803 556.0058074 329.3125 558.625 C329.27833984 559.33140625 329.24417969 560.0378125 329.20898438 560.765625 C329.12648692 562.50985688 329.06156665 564.25490395 329 566 C330.32 566.33 331.64 566.66 333 567 C333 568.98 333 570.96 333 573 C331.68 573.33 330.36 573.66 329 574 C329 574.66 329 575.32 329 576 C287.09 576 245.18 576 202 576 C202 575.34 202 574.68 202 574 C200.68 574 199.36 574 198 574 C198 572.68 198 571.36 198 570 C196.68 570 195.36 570 194 570 C194 568.68 194 567.36 194 566 C192.68 565.67 191.36 565.34 190 565 C190 563.68 190 562.36 190 561 C189.01 561 188.02 561 187 561 C187 559.68 187 558.36 187 557 C185.68 557 184.36 557 183 557 C183 556.34 183 555.68 183 555 C181.68 554.67 180.36 554.34 179 554 C179 553.01 179 552.02 179 551 C177.68 550.67 176.36 550.34 175 550 C175 549.01 175 548.02 175 547 C174.01 547 173.02 547 172 547 C172 545.35 172 543.7 172 542 C170.68 542 169.36 542 168 542 C168 540.68 168 539.36 168 538 C166.68 538 165.36 538 164 538 C164 537.34 164 536.68 164 536 C163.01 536 162.02 536 161 536 C160.67 534.68 160.34 533.36 160 532 C159.01 532 158.02 532 157 532 C157 530.68 157 529.36 157 528 C155.68 527.67 154.36 527.34 153 527 C153 525.68 153 524.36 153 523 C151.68 523 150.36 523 149 523 C149 522.34 149 521.68 149 521 C147.68 520.34 146.36 519.68 145 519 C145 518.34 145 517.68 145 517 C144.01 517 143.02 517 142 517 C142 515.68 142 514.36 142 513 C140.68 513 139.36 513 138 513 C138 512.01 138 511.02 138 510 C136.68 509.67 135.36 509.34 134 509 C134 508.01 134 507.02 134 506 C133.01 506 132.02 506 131 506 C129.73269807 503.46539614 129.87581407 501.7197103 129.87695217 498.88128471 C129.87496112 497.7904832 129.87297007 496.69968168 129.87091869 495.57582557 C129.87383153 494.36767539 129.87674437 493.1595252 129.87974548 491.9147644 C129.87846385 490.00109863 129.87846385 490.00109863 129.87715632 488.04877293 C129.8749118 484.49598936 129.87893205 480.94323572 129.88393438 477.39045596 C129.88823931 473.56359782 129.88679242 469.73674147 129.8860321 465.90988159 C129.8855069 459.27572095 129.88865337 452.64157013 129.89426994 446.00741196 C129.90238537 436.41544735 129.90500021 426.8234875 129.90625793 417.23151983 C129.90844839 401.67045715 129.91510829 386.10939969 129.92456055 370.54833984 C129.93373484 355.42919949 129.94081559 340.31006055 129.94506836 325.19091797 C129.94533108 324.2595008 129.94559381 323.32808362 129.94586449 322.36844169 C129.9471695 317.69595273 129.94843321 313.02346377 129.94967639 308.3509748 C129.9600488 269.56731287 129.97766693 230.78365678 130 192 C129.01 192 128.02 192 127 192 C127 191.34 127 190.68 127 190 C126.33680756 190.00444122 125.67361511 190.00888245 124.99032593 190.01345825 C118.07967282 190.0577502 111.16906014 190.08789088 104.25830078 190.10986328 C101.68015912 190.11991262 99.10202882 190.13355426 96.52392578 190.15087891 C92.81540111 190.17517367 89.10702732 190.18649396 85.3984375 190.1953125 C84.24822113 190.20563507 83.09800476 190.21595764 81.91293335 190.22659302 C76.56185962 190.22734102 71.98677305 190.21379019 67 188 C67 186.68 67 185.36 67 184 C65.68 184 64.36 184 63 184 C63 182.68 63 181.36 63 180 C61.68 179.67 60.36 179.34 59 179 C59 177.68 59 176.36 59 175 C57.68 175 56.36 175 55 175 C55 173.68 55 172.36 55 171 C54.01 171 53.02 171 52 171 C52 169.68 52 168.36 52 167 C50.68 167 49.36 167 48 167 C48 166.34 48 165.68 48 165 C46.68 164.67 45.36 164.34 44 164 C44 163.01 44 162.02 44 161 C42.68 160.67 41.36 160.34 40 160 C40 158.68 40 157.36 40 156 C39.01 156 38.02 156 37 156 C37 154.68 37 153.36 37 152 C35.68 152 34.36 152 33 152 C33 151.34 33 150.68 33 150 C31.68 150 30.36 150 29 150 C29 148.68 29 147.36 29 146 C27.68 145.67 26.36 145.34 25 145 C25 144.01 25 143.02 25 142 C24.01 142 23.02 142 22 142 C22 140.35 22 138.7 22 137 C20.68 137 19.36 137 18 137 C18 135.68 18 134.36 18 133 C16.68 133 15.36 133 14 133 C11.75 131.125 11.75 131.125 10 129 C10 128.34 10 127.68 10 127 C9.01 127 8.02 127 7 127 C7 125.68 7 124.36 7 123 C5.68 123 4.36 123 3 123 C3 121.35 3 119.7 3 118 C1.68 118 0.36 118 -1 118 C-1 115.69 -1 113.38 -1 111 C-1.99 110.67 -2.98 110.34 -4 110 C-4.02694851 108.04174127 -4.04637218 106.08337774 -4.0625 104.125 C-4.07410156 103.03445312 -4.08570313 101.94390625 -4.09765625 100.8203125 C-4 98 -4 98 -3 96 C-2.34 96 -1.68 96 -1 96 C-1.0940374 91.14331223 -1.20023904 86.2870937 -1.31738281 81.4309082 C-1.35550299 79.78124135 -1.3903845 78.13149618 -1.421875 76.48168945 C-1.4678966 74.10079079 -1.52582635 71.72042348 -1.5859375 69.33984375 C-1.60326431 68.24566383 -1.60326431 68.24566383 -1.62094116 67.12937927 C-1.75359876 62.45459421 -2.63558865 58.50376787 -4 54 C-4.25878906 51.54052734 -4.25878906 51.54052734 -4.265625 49.3359375 C-4.26820312 48.52382813 -4.27078125 47.71171875 -4.2734375 46.875 C-4.26570312 46.05 -4.25796875 45.225 -4.25 44.375 C-4.25773438 43.54226562 -4.26546875 42.70953125 -4.2734375 41.8515625 C-4.25895259 37.30330047 -3.71162213 34.22679206 -2 30 C-1.60996656 26.73642477 -1.49252247 23.47078397 -1.375 20.1875 C-1.33632812 19.30384766 -1.29765625 18.42019531 -1.2578125 17.50976562 C-1.16399216 15.34017028 -1.08092674 13.17011453 -1 11 C-1.99 10.67 -2.98 10.34 -4 10 C-4 8.35 -4 6.7 -4 5 C-3.01 5 -2.02 5 -1 5 C-0.67 3.35 -0.34 1.7 0 0 Z M6 2 C6 2.66 6 3.32 6 4 C4.68 4 3.36 4 2 4 C1.9298917 18.38621279 1.87720243 32.77239906 1.84456348 47.15874767 C1.8288994 53.83872822 1.80764731 60.51857182 1.77368164 67.19848633 C1.74111515 73.64347271 1.72315257 80.08834872 1.71536827 86.53341103 C1.70981993 88.99382579 1.69898557 91.45423443 1.68280983 93.91460228 C1.66107208 97.35750824 1.65803161 100.79995651 1.65942383 104.24291992 C1.648638 105.26287552 1.63785217 106.28283112 1.6267395 107.33369446 C1.5533746 114.23041653 1.5533746 114.23041653 5 120 C6.32 120 7.64 120 9 120 C9 121.32 9 122.64 9 124 C9.99 124 10.98 124 12 124 C12.33 125.32 12.66 126.64 13 128 C13.99 128 14.98 128 16 128 C16.33 129.32 16.66 130.64 17 132 C17.66 132 18.32 132 19 132 C19.33 132.99 19.66 133.98 20 135 C20.99 135 21.98 135 23 135 C23 135.99 23 136.98 23 138 C23.99 138.33 24.98 138.66 26 139 C26.4125 139.70125 26.825 140.4025 27.25 141.125 C30.68669125 146.77099277 35.29617366 150.74067066 41 154 C41.66 154.99 42.32 155.98 43 157 C44.32 157 45.64 157 47 157 C47 158.32 47 159.64 47 161 C48.32 161 49.64 161 51 161 C51 162.32 51 163.64 51 165 C52.32 165 53.64 165 55 165 C55 165.99 55 166.98 55 168 C55.99 168.33 56.98 168.66 58 169 C58.33 169.99 58.66 170.98 59 172 C59.99 172 60.98 172 62 172 C62 173.65 62 175.3 62 177 C62.66 177 63.32 177 64 177 C64.27247055 177.59372406 64.5449411 178.18744812 64.82566833 178.79916382 C66.83618554 182.56711042 69.21728372 184.98057531 73 187 C77.4690634 187.81098412 81.84177427 187.69973624 86.37109375 187.5859375 C87.64855972 187.57744781 88.9260257 187.56895813 90.24220276 187.56021118 C93.61827728 187.53240246 96.99186265 187.47862849 100.36724854 187.4119873 C103.81948476 187.35030933 107.27197951 187.32314235 110.72460938 187.29296875 C117.48375416 187.2269415 124.24173355 187.12663046 131 187 C131.95601455 189.86804365 132.12525586 191.64292221 132.12584114 194.6187191 C132.12844889 195.57257574 132.13105664 196.52643239 132.13374341 197.50919378 C132.13151268 198.55927354 132.12928196 199.6093533 132.12698364 200.69125366 C132.12854363 201.8050989 132.13010362 202.91894414 132.13171089 204.06654227 C132.13571608 207.81830055 132.13253305 211.57001873 132.12939453 215.32177734 C132.1307488 218.00372945 132.13249256 220.68567874 132.13470459 223.36763 C132.13915799 229.90814774 132.13818764 236.44865402 132.13529195 242.98917221 C132.13303585 248.30465809 132.1327263 253.62014076 132.13381577 258.93562698 C132.133969 259.69145052 132.13412223 260.44727405 132.13428011 261.22600133 C132.13459983 262.76134907 132.13492404 264.29669682 132.1352527 265.83204456 C132.13810633 280.23962633 132.1348225 294.64720174 132.12945233 309.05478247 C132.12498621 321.41966285 132.12575887 333.78453385 132.13037109 346.14941406 C132.13572203 360.50146821 132.13782974 374.85351677 132.13475883 389.20557177 C132.13444028 390.73596167 132.13412591 392.26635158 132.13381577 393.79674149 C132.13366149 394.54975506 132.13350721 395.30276864 132.13334826 396.07860082 C132.13248454 401.38725476 132.13394293 406.69590517 132.13629532 412.00455856 C132.13909935 418.47483879 132.13834236 424.94510688 132.13301457 431.41538571 C132.13038545 434.71721841 132.12989696 438.01902669 132.13266373 441.32085991 C132.13538596 444.8988533 132.13198078 448.47678934 132.12698364 452.05477905 C132.12921436 453.10039737 132.13144509 454.14601569 132.13374341 455.22331941 C132.13113566 456.18239155 132.12852791 457.14146369 132.12584114 458.12959862 C132.12567879 458.955383 132.12551644 459.78116738 132.12534916 460.63197553 C131.99107562 463.16859428 131.52223726 465.51715644 131 468 C130.90964715 469.99839247 130.86989687 471.99957253 130.875 474 C130.87242187 475.010625 130.86984375 476.02125 130.8671875 477.0625 C130.91994342 479.92215997 130.91994342 479.92215997 131.484375 482.3671875 C132.3175846 486.6216062 132.3205487 490.96639484 132.4296875 495.29296875 C132.55960264 499.37074151 132.55960264 499.37074151 134.46484375 502.85546875 C135.22474609 503.42201172 135.22474609 503.42201172 136 504 C137.1875 506.1875 137.1875 506.1875 138 508 C138.66 508 139.32 508 140 508 C140.28875 508.61875 140.5775 509.2375 140.875 509.875 C141.93720042 512.13325765 141.93720042 512.13325765 144 514 C145.32 514 146.64 514 148 514 C148 515.32 148 516.64 148 518 C149.32 518 150.64 518 152 518 C152.33 519.32 152.66 520.64 153 522 C153.66 522 154.32 522 155 522 C155 522.66 155 523.32 155 524 C156.65 524 158.3 524 160 524 C160 525.32 160 526.64 160 528 C160.99 528.33 161.98 528.66 163 529 C163.33 529.99 163.66 530.98 164 532 C164.99 532.33 165.98 532.66 167 533 C169.36506843 535.00121175 169.9893322 535.96799661 171 539 C171.99 539.825 172.98 540.65 174 541.5 C177 544 177 544 178 547 C179.32 547 180.64 547 182 547 C182 548.65 182 550.3 182 552 C182.66 552 183.32 552 184 552 C184.66 553.32 185.32 554.64 186 556 C186.66 556 187.32 556 188 556 C188.33 556.99 188.66 557.98 189 559 C189.99 559 190.98 559 192 559 C192.2784375 560.0209375 192.2784375 560.0209375 192.5625 561.0625 C196.02664083 568.14139648 200.8176905 570.92186736 208 574 C247.27 574 286.54 574 327 574 C327 446.29 327 318.58 327 187 C368.91 187 410.82 187 454 187 C456.07776444 183.88335334 456.26123 183.11138705 456.3347168 179.55741882 C456.35769836 178.64797012 456.38067993 177.73852142 456.40435791 176.80151367 C456.41916199 175.80571289 456.43396606 174.80991211 456.44921875 173.78393555 C456.4719989 172.7330928 456.49477905 171.68225006 456.51824951 170.5995636 C456.73993342 159.58307726 456.83449649 148.5639017 456.91992188 137.5456543 C456.96438069 132.32523189 457.04775896 127.10769043 457.16601562 121.88842773 C457.30875716 115.57572482 457.38166568 109.26572034 457.40615845 102.95148659 C457.42687389 100.55401584 457.47152129 98.15661963 457.54135132 95.76007652 C458.19936987 80.32140663 458.19936987 80.32140663 450.98829651 67.27878284 C446.15487417 62.21634048 446.15487417 62.21634048 440 60 C439.34 58.68 438.68 57.36 438 56 C437.34 56 436.68 56 436 56 C435.67 55.01 435.34 54.02 435 53 C434.01 52.67 433.02 52.34 432 52 C430.98515593 50.34233016 429.98797997 48.67381999 429 47 C427.27989852 45.10700216 425.55676636 43.29932194 423.73828125 41.5078125 C422.97405098 40.74426956 422.97405098 40.74426956 422.19438171 39.96530151 C421.11836506 38.89229403 420.03993094 37.82170594 418.95922852 36.75341797 C417.32972631 35.14203477 415.70823264 33.52293228 414.08789062 31.90234375 C409.06460548 26.8971826 403.98256246 22.02263373 398.58911133 17.41308594 C395.9153356 15.03548355 393.76838824 12.28964513 391.54296875 9.50390625 C390.00105047 7.65100803 390.00105047 7.65100803 387 8 C386.67 6.68 386.34 5.36 386 4 C384.865625 3.855625 383.73125 3.71125 382.5625 3.5625 C379 3 379 3 378 2 C376.02442285 1.90222502 374.04528539 1.8762873 372.06729031 1.87695217 C370.7694761 1.87496112 369.4716619 1.87297007 368.13451999 1.87091869 C366.67540878 1.87377229 365.21629775 1.8767179 363.75718689 1.87974548 C362.22189792 1.87930992 360.68660902 1.87843528 359.15132052 1.87715632 C354.91218501 1.8749085 350.67307452 1.87893653 346.4339422 1.88393438 C341.87018162 1.88823461 337.30642256 1.88679276 332.74266052 1.8860321 C324.82889913 1.8855066 316.91514596 1.88865619 309.00138664 1.89426994 C297.55928074 1.90238133 286.11717882 1.90499979 274.67507035 1.90625793 C256.1130492 1.90844902 237.55103244 1.91511065 218.98901367 1.92456055 C200.95288108 1.93373319 182.91674968 1.94081475 164.88061523 1.94506836 C163.21426579 1.94546244 163.21426579 1.94546244 161.51425271 1.94586449 C155.94144885 1.94716949 150.36864498 1.9484332 144.7958411 1.94967639 C98.53055769 1.96005078 52.26527907 1.97767064 6 2 Z " fill="#F5F5F5" transform="translate(15,11)"/>
<path d="M0 0 C0.44302774 0.38743818 0.88605549 0.77487637 1.34250832 1.1740551 C4.91239844 4.26952054 8.52127063 7.18828007 12.36865234 9.93798828 C19.30222704 15.03238618 25.92107252 20.43535377 32.375 26.125 C32.95827812 26.63861839 33.54155624 27.15223679 34.14250946 27.68141937 C50.40357279 42.22023017 59.15099797 55.90026292 60.515625 78 C61.56621436 98.64076093 60.14846485 119.46844313 58 140 C58.99 137.69 59.98 135.38 61 133 C61.33 133 61.66 133 62 133 C62.35193697 138.2790545 62.35193697 138.2790545 62 141 C60.0625 143.125 60.0625 143.125 58 145 C57.19684346 148.14481791 57.19684346 148.14481791 57 151 C56.08468506 150.17878662 55.16937012 149.35757324 54.22631836 148.51147461 C51.15162199 145.86869953 47.95510927 143.53399026 44.61547852 141.23657227 C37.62375553 136.36089743 31.00954611 131.13373189 24.5625 125.5625 C23.97836586 125.05829781 23.39423172 124.55409561 22.79239655 124.03461456 C7.61986929 110.70316977 -1.21880104 97.47701462 -2.94831848 77.02799988 C-4.5273204 51.40157658 -2.6237966 25.50139905 0 0 Z " fill="#FEFEFE" transform="translate(401,34)"/>
<path d="M0 0 C0.66 0 1.32 0 2 0 C2.00331015 0.5702207 2.00662029 1.1404414 2.01003075 1.72794151 C2.09118173 15.5901106 2.18337439 29.45216817 2.28752708 43.31418419 C2.3376909 50.01770104 2.38413325 56.72120544 2.421875 63.42480469 C2.45864167 69.88930011 2.50497781 76.35366146 2.55806351 82.81804276 C2.57665341 85.28926883 2.5917442 87.76052368 2.60334396 90.23179245 C2.62012792 93.68250122 2.6491437 97.1328998 2.68115234 100.58349609 C2.68331253 101.61423752 2.68547272 102.64497894 2.68769836 103.70695496 C2.69886185 104.64367538 2.71002533 105.58039581 2.7215271 106.54550171 C2.72705786 107.36221029 2.73258862 108.17891888 2.73828697 109.02037621 C2.82645285 111.23200735 2.82645285 111.23200735 5 113 C5 113.99 5 114.98 5 116 C6.32 116 7.64 116 9 116 C9 117.32 9 118.64 9 120 C9.99 120 10.98 120 12 120 C12.33 120.99 12.66 121.98 13 123 C13.99 123.33 14.98 123.66 16 124 C16.33 124.99 16.66 125.98 17 127 C19.00121175 129.36506843 19.96799661 129.9893322 23 131 C23 131.99 23 132.98 23 134 C23.598125 134.061875 24.19625 134.12375 24.8125 134.1875 C27.89897181 135.33390382 28.36480405 137.16985317 30 140 C32.63835925 143.06018995 35.26325631 145.56465145 38.75 147.625 C41.26002536 149.15890439 41.97195651 150.28970354 43 153 C44.32 153 45.64 153 47 153 C47 154.32 47 155.64 47 157 C48.32 157 49.64 157 51 157 C51 158.32 51 159.64 51 161 C52.32 161 53.64 161 55 161 C55 161.99 55 162.98 55 164 C56.32 164.33 57.64 164.66 59 165 C59 165.99 59 166.98 59 168 C59.99 168 60.98 168 62 168 C62 169.65 62 171.3 62 173 C62.66 173 63.32 173 64 173 C65.40234375 174.4609375 65.40234375 174.4609375 66.9375 176.375 C68.91986617 178.83901524 70.30699655 180.20466437 73 182 C75.63353088 182.30830262 75.63353088 182.30830262 78.63305664 182.27124023 C79.78757828 182.28142685 80.94209991 182.29161346 82.13160706 182.30210876 C83.37852829 182.30424881 84.62544952 182.30638885 85.91015625 182.30859375 C88.53450753 182.33374371 91.15885643 182.35914187 93.78320312 182.38476562 C97.93331902 182.41561657 102.08345523 182.43781193 106.23364258 182.45629883 C110.23015903 182.47517396 114.22630851 182.51727379 118.22265625 182.55859375 C119.47160172 182.55870956 120.72054718 182.55882538 122.00733948 182.5589447 C123.15870895 182.57228348 124.31007843 182.58562225 125.49633789 182.59936523 C126.51321182 182.60443588 127.53008575 182.60950653 128.57777405 182.61473083 C129.77677589 182.80543907 129.77677589 182.80543907 131 183 C133.12642132 186.18963198 133.24985108 186.96509302 133.24888897 190.6187191 C133.25348777 191.57257574 133.25808656 192.52643239 133.26282471 193.50919378 C133.25510937 195.08431342 133.25510937 195.08431342 133.24723816 196.69125366 C133.24965257 197.8050989 133.25206699 198.91894414 133.25455457 200.06654227 C133.26021374 203.818346 133.25151157 207.56998113 133.24291992 211.32177734 C133.24399227 214.00373273 133.24584984 216.68567699 133.24867249 219.36763 C133.25371934 225.90816299 133.24806648 232.44864549 133.23882218 238.98917221 C133.22844658 246.60346473 133.22850817 254.21774629 133.22899476 261.83204456 C133.22949567 275.41798829 133.22032696 289.00390851 133.20581055 302.58984375 C133.19172815 315.77637155 133.18463952 328.96287864 133.18530273 342.14941406 C133.18534269 342.96124867 133.18538265 343.77308328 133.18542381 344.60951893 C133.18546417 345.41994127 133.18550452 346.23036362 133.1855461 347.06534421 C133.186236 362.06976697 133.18034483 377.07418092 133.17139288 392.07860082 C133.16837606 397.38725368 133.16731326 402.69590493 133.16686058 408.00455856 C133.16617836 414.47484132 133.16171263 420.94510924 133.15252777 427.41538571 C133.14791104 430.71721678 133.14539558 434.01902507 133.14612198 437.32085991 C133.14661133 440.89885631 133.14097005 444.47679121 133.13371277 448.05477905 C133.13526137 449.10039737 133.13680997 450.14601569 133.1384055 451.22331941 C133.13356883 452.66192762 133.13356883 452.66192762 133.12863445 454.12959862 C133.12793003 454.955383 133.1272256 455.78116738 133.12649983 456.63197553 C132.99101387 459.16821663 132.52200213 461.51740825 132 464 C131.90964715 465.99839247 131.86989687 467.99957253 131.875 470 C131.87242187 471.010625 131.86984375 472.02125 131.8671875 473.0625 C131.91994342 475.92215997 131.91994342 475.92215997 132.484375 478.3671875 C133.3175846 482.6216062 133.3205487 486.96639484 133.4296875 491.29296875 C133.54511217 495.35894961 133.54511217 495.35894961 135.4765625 498.8046875 C135.97929687 499.19914062 136.48203125 499.59359375 137 500 C137.33 500.99 137.66 501.98 138 503 C141.0565036 506.48101799 143.56156561 508.60506348 148 510 C148 511.32 148 512.64 148 514 C149.32 514 150.64 514 152 514 C152.33 514.99 152.66 515.98 153 517 C153.66 517.33 154.32 517.66 155 518 C155 518.66 155 519.32 155 520 C156.65 520 158.3 520 160 520 C160 521.32 160 522.64 160 524 C161.32 524.33 162.64 524.66 164 525 C164 525.99 164 526.98 164 528 C165.32 528.33 166.64 528.66 168 529 C168 529.66 168 530.32 168 531 C168.99 531.33 169.98 531.66 171 532 C171 532.99 171 533.98 171 535 C172.32 535.66 173.64 536.32 175 537 C175 537.66 175 538.32 175 539 C175.99 539.33 176.98 539.66 178 540 C178 540.99 178 541.98 178 543 C179.32 543 180.64 543 182 543 C182 544.65 182 546.3 182 548 C182.66 548 183.32 548 184 548 C185.2065625 549.4540625 185.2065625 549.4540625 186.4375 550.9375 C188.70684377 554.19375327 188.70684377 554.19375327 192 555 C192.6875 557.0625 192.6875 557.0625 193 559 C191.02 558.34 189.04 557.68 187 557 C187 555.68 187 554.36 187 553 C185.68 553 184.36 553 183 553 C183 552.34 183 551.68 183 551 C181.68 550.67 180.36 550.34 179 550 C179 549.01 179 548.02 179 547 C177.68 546.67 176.36 546.34 175 546 C175 545.01 175 544.02 175 543 C174.01 543 173.02 543 172 543 C172 541.35 172 539.7 172 538 C170.68 538 169.36 538 168 538 C168 536.68 168 535.36 168 534 C166.68 534 165.36 534 164 534 C164 533.34 164 532.68 164 532 C163.01 532 162.02 532 161 532 C160.67 530.68 160.34 529.36 160 528 C159.01 528 158.02 528 157 528 C157 526.68 157 525.36 157 524 C155.68 523.67 154.36 523.34 153 523 C153 521.68 153 520.36 153 519 C151.68 519 150.36 519 149 519 C149 518.34 149 517.68 149 517 C147.68 516.34 146.36 515.68 145 515 C145 514.34 145 513.68 145 513 C144.01 513 143.02 513 142 513 C142 511.68 142 510.36 142 509 C140.68 509 139.36 509 138 509 C138 508.01 138 507.02 138 506 C136.68 505.67 135.36 505.34 134 505 C134 504.01 134 503.02 134 502 C133.01 502 132.02 502 131 502 C129.73269807 499.46539614 129.87581407 497.7197103 129.87695217 494.88128471 C129.87496112 493.7904832 129.87297007 492.69968168 129.87091869 491.57582557 C129.87383153 490.36767539 129.87674437 489.1595252 129.87974548 487.9147644 C129.87846385 486.00109863 129.87846385 486.00109863 129.87715632 484.04877293 C129.8749118 480.49598936 129.87893205 476.94323572 129.88393438 473.39045596 C129.88823931 469.56359782 129.88679242 465.73674147 129.8860321 461.90988159 C129.8855069 455.27572095 129.88865337 448.64157013 129.89426994 442.00741196 C129.90238537 432.41544735 129.90500021 422.8234875 129.90625793 413.23151983 C129.90844839 397.67045715 129.91510829 382.10939969 129.92456055 366.54833984 C129.93373484 351.42919949 129.94081559 336.31006055 129.94506836 321.19091797 C129.94533108 320.2595008 129.94559381 319.32808362 129.94586449 318.36844169 C129.9471695 313.69595273 129.94843321 309.02346377 129.94967639 304.3509748 C129.9600488 265.56731287 129.97766693 226.78365678 130 188 C129.01 188 128.02 188 127 188 C127 187.34 127 186.68 127 186 C126.33680756 186.00444122 125.67361511 186.00888245 124.99032593 186.01345825 C118.07967282 186.0577502 111.16906014 186.08789088 104.25830078 186.10986328 C101.68015912 186.11991262 99.10202882 186.13355426 96.52392578 186.15087891 C92.81540111 186.17517367 89.10702732 186.18649396 85.3984375 186.1953125 C84.24822113 186.20563507 83.09800476 186.21595764 81.91293335 186.22659302 C76.56185962 186.22734102 71.98677305 186.21379019 67 184 C67 182.68 67 181.36 67 180 C65.68 180 64.36 180 63 180 C63 178.68 63 177.36 63 176 C61.68 175.67 60.36 175.34 59 175 C59 173.68 59 172.36 59 171 C57.68 171 56.36 171 55 171 C55 169.68 55 168.36 55 167 C54.01 167 53.02 167 52 167 C52 165.68 52 164.36 52 163 C50.68 163 49.36 163 48 163 C48 162.34 48 161.68 48 161 C46.68 160.67 45.36 160.34 44 160 C44 159.01 44 158.02 44 157 C42.68 156.67 41.36 156.34 40 156 C40 154.68 40 153.36 40 152 C39.01 152 38.02 152 37 152 C37 150.68 37 149.36 37 148 C35.68 148 34.36 148 33 148 C33 147.34 33 146.68 33 146 C31.68 146 30.36 146 29 146 C29 144.68 29 143.36 29 142 C27.68 141.67 26.36 141.34 25 141 C25 140.01 25 139.02 25 138 C24.01 138 23.02 138 22 138 C22 136.35 22 134.7 22 133 C20.68 133 19.36 133 18 133 C18 131.68 18 130.36 18 129 C16.68 129 15.36 129 14 129 C11.75 127.125 11.75 127.125 10 125 C10 124.34 10 123.68 10 123 C9.01 123 8.02 123 7 123 C7 121.68 7 120.36 7 119 C5.68 119 4.36 119 3 119 C3 117.35 3 115.7 3 114 C1.68 114 0.36 114 -1 114 C-0.67 76.38 -0.34 38.76 0 0 Z " fill="#E5E5E5" transform="translate(15,15)"/>
<path d="M0 0 C125.73 0 251.46 0 381 0 C381 0.33 381 0.66 381 1 C256.92 1 132.84 1 5 1 C5 1.66 5 2.32 5 3 C3.35 3.33 1.7 3.66 0 4 C0 40.63 0 77.26 0 115 C-0.33 113.68 -0.66 112.36 -1 111 C-1.99 110.67 -2.98 110.34 -4 110 C-4.02694851 108.04174127 -4.04637218 106.08337774 -4.0625 104.125 C-4.07410156 103.03445312 -4.08570313 101.94390625 -4.09765625 100.8203125 C-4 98 -4 98 -3 96 C-2.34 96 -1.68 96 -1 96 C-1.0940374 91.14331223 -1.20023904 86.2870937 -1.31738281 81.4309082 C-1.35550299 79.78124135 -1.3903845 78.13149618 -1.421875 76.48168945 C-1.4678966 74.10079079 -1.52582635 71.72042348 -1.5859375 69.33984375 C-1.60326431 68.24566383 -1.60326431 68.24566383 -1.62094116 67.12937927 C-1.75359876 62.45459421 -2.63558865 58.50376787 -4 54 C-4.25878906 51.54052734 -4.25878906 51.54052734 -4.265625 49.3359375 C-4.26820312 48.52382813 -4.27078125 47.71171875 -4.2734375 46.875 C-4.26570312 46.05 -4.25796875 45.225 -4.25 44.375 C-4.25773438 43.54226562 -4.26546875 42.70953125 -4.2734375 41.8515625 C-4.25895259 37.30330047 -3.71162213 34.22679206 -2 30 C-1.60996656 26.73642477 -1.49252247 23.47078397 -1.375 20.1875 C-1.33632812 19.30384766 -1.29765625 18.42019531 -1.2578125 17.50976562 C-1.16399216 15.34017028 -1.08092674 13.17011453 -1 11 C-1.99 10.67 -2.98 10.34 -4 10 C-4 8.35 -4 6.7 -4 5 C-3.01 5 -2.02 5 -1 5 C-0.67 3.35 -0.34 1.7 0 0 Z " fill="#FEFEFE" transform="translate(15,11)"/>
<path d="M0 0 C0.66 0 1.32 0 2 0 C2.00331015 0.5702207 2.00662029 1.1404414 2.01003075 1.72794151 C2.09118173 15.5901106 2.18337439 29.45216817 2.28752708 43.31418419 C2.3376909 50.01770104 2.38413325 56.72120544 2.421875 63.42480469 C2.45864167 69.88930011 2.50497781 76.35366146 2.55806351 82.81804276 C2.57665341 85.28926883 2.5917442 87.76052368 2.60334396 90.23179245 C2.62012792 93.68250122 2.6491437 97.1328998 2.68115234 100.58349609 C2.68331253 101.61423752 2.68547272 102.64497894 2.68769836 103.70695496 C2.69886185 104.64367538 2.71002533 105.58039581 2.7215271 106.54550171 C2.72705786 107.36221029 2.73258862 108.17891888 2.73828697 109.02037621 C2.82645285 111.23200735 2.82645285 111.23200735 5 113 C5 113.99 5 114.98 5 116 C6.32 116 7.64 116 9 116 C9 117.32 9 118.64 9 120 C9.99 120 10.98 120 12 120 C12.33 120.99 12.66 121.98 13 123 C13.99 123.33 14.98 123.66 16 124 C16.33 124.99 16.66 125.98 17 127 C19.00121175 129.36506843 19.96799661 129.9893322 23 131 C23 131.99 23 132.98 23 134 C23.598125 134.061875 24.19625 134.12375 24.8125 134.1875 C27.89897181 135.33390382 28.36480405 137.16985317 30 140 C32.63835925 143.06018995 35.26325631 145.56465145 38.75 147.625 C41.26002536 149.15890439 41.97195651 150.28970354 43 153 C44.32 153 45.64 153 47 153 C47 154.32 47 155.64 47 157 C48.32 157 49.64 157 51 157 C51 158.32 51 159.64 51 161 C52.32 161 53.64 161 55 161 C55 161.99 55 162.98 55 164 C56.32 164.33 57.64 164.66 59 165 C59 165.99 59 166.98 59 168 C59.99 168 60.98 168 62 168 C61.67 169.32 61.34 170.64 61 172 C60.67 171.01 60.34 170.02 60 169 C59.34 169 58.68 169 58 169 C57.67 168.01 57.34 167.02 57 166 C54.90280128 164.97718482 54.90280128 164.97718482 52.4375 164.3125 C51.61121094 164.06113281 50.78492188 163.80976563 49.93359375 163.55078125 C49.29550781 163.36902344 48.65742187 163.18726563 48 163 C48 162.34 48 161.68 48 161 C46.68 160.67 45.36 160.34 44 160 C44 159.01 44 158.02 44 157 C42.68 156.67 41.36 156.34 40 156 C40 154.68 40 153.36 40 152 C39.01 152 38.02 152 37 152 C37 150.68 37 149.36 37 148 C35.68 148 34.36 148 33 148 C33 147.34 33 146.68 33 146 C31.68 146 30.36 146 29 146 C29 144.68 29 143.36 29 142 C27.68 141.67 26.36 141.34 25 141 C25 140.01 25 139.02 25 138 C24.01 138 23.02 138 22 138 C22 136.35 22 134.7 22 133 C20.68 133 19.36 133 18 133 C18 131.68 18 130.36 18 129 C16.68 129 15.36 129 14 129 C11.75 127.125 11.75 127.125 10 125 C10 124.34 10 123.68 10 123 C9.01 123 8.02 123 7 123 C7 121.68 7 120.36 7 119 C5.68 119 4.36 119 3 119 C3 117.35 3 115.7 3 114 C1.68 114 0.36 114 -1 114 C-0.67 76.38 -0.34 38.76 0 0 Z " fill="#D1D1D1" transform="translate(15,15)"/>
<path d="M0 0 C9 0 9 0 11.0625 1.4375 C12.46589324 5.27344153 12.23303606 8.96070821 12 13 C12.90492188 12.94779297 12.90492188 12.94779297 13.828125 12.89453125 C17.33569872 12.77572633 20.24398276 12.72340833 23.5625 13.9375 C25.97606593 17.40044242 25.23949419 20.86872524 25 25 C21.04 25 17.08 25 13 25 C13 28.96 13 32.92 13 37 C12.67 37 12.34 37 12 37 C12 33.04 12 29.08 12 25 C8.04 25 4.08 25 0 25 C0 16.75 0 8.5 0 0 Z " fill="#D8D8D8" transform="translate(274,141)"/>
<path d="M0 0 C0.33 0 0.66 0 1 0 C2.2073722 5.04721166 2.299444 10.12974425 2.4296875 15.29296875 C2.54511217 19.35894961 2.54511217 19.35894961 4.4765625 22.8046875 C4.97929687 23.19914063 5.48203125 23.59359375 6 24 C6.33 24.99 6.66 25.98 7 27 C10.0565036 30.48101799 12.56156561 32.60506348 17 34 C17 35.32 17 36.64 17 38 C18.32 38 19.64 38 21 38 C21.33 38.99 21.66 39.98 22 41 C22.66 41.33 23.32 41.66 24 42 C24 42.66 24 43.32 24 44 C25.65 44 27.3 44 29 44 C29 45.32 29 46.64 29 48 C30.32 48.33 31.64 48.66 33 49 C33 49.99 33 50.98 33 52 C34.32 52.33 35.64 52.66 37 53 C37 53.66 37 54.32 37 55 C37.99 55.33 38.98 55.66 40 56 C40 56.99 40 57.98 40 59 C41.32 59.66 42.64 60.32 44 61 C44 61.66 44 62.32 44 63 C44.99 63.33 45.98 63.66 47 64 C47 64.99 47 65.98 47 67 C48.32 67 49.64 67 51 67 C51 68.65 51 70.3 51 72 C51.66 72 52.32 72 53 72 C53.804375 72.969375 54.60875 73.93875 55.4375 74.9375 C57.70684377 78.19375327 57.70684377 78.19375327 61 79 C61.6875 81.0625 61.6875 81.0625 62 83 C59.03 82.01 59.03 82.01 56 81 C56 79.68 56 78.36 56 77 C54.68 77 53.36 77 52 77 C52 76.34 52 75.68 52 75 C50.68 74.67 49.36 74.34 48 74 C48 73.01 48 72.02 48 71 C46.68 70.67 45.36 70.34 44 70 C44 69.01 44 68.02 44 67 C43.01 67 42.02 67 41 67 C41 65.35 41 63.7 41 62 C39.68 62 38.36 62 37 62 C37 60.68 37 59.36 37 58 C35.68 58 34.36 58 33 58 C33 57.34 33 56.68 33 56 C32.01 56 31.02 56 30 56 C29.67 54.68 29.34 53.36 29 52 C28.01 52 27.02 52 26 52 C26 50.68 26 49.36 26 48 C24.68 47.67 23.36 47.34 22 47 C22 45.68 22 44.36 22 43 C20.68 43 19.36 43 18 43 C18 42.34 18 41.68 18 41 C16.68 40.34 15.36 39.68 14 39 C14 38.34 14 37.68 14 37 C13.01 37 12.02 37 11 37 C11 35.68 11 34.36 11 33 C9.68 33 8.36 33 7 33 C7 32.01 7 31.02 7 30 C5.68 29.67 4.36 29.34 3 29 C3 28.01 3 27.02 3 26 C2.01 26 1.02 26 0 26 C-0.80866672 22.52300537 -1.07549313 19.47837556 -0.87890625 15.91796875 C-0.83056641 14.98662109 -0.78222656 14.05527344 -0.73242188 13.09570312 C-0.67634766 12.13599609 -0.62027344 11.17628906 -0.5625 10.1875 C-0.51029297 9.20845703 -0.45808594 8.22941406 -0.40429688 7.22070312 C-0.27512661 4.8134391 -0.14018357 2.40664362 0 0 Z " fill="#E2E2E2" transform="translate(146,491)"/>
<path d="M0 0 C0.99 0.495 0.99 0.495 2 1 C2.04669997 15.2903906 2.08184609 29.58076938 2.10362434 43.87122059 C2.11407518 50.5063777 2.12825811 57.14148366 2.15087891 63.77661133 C2.17256089 70.17619519 2.18455883 76.57572977 2.18975449 82.97534752 C2.1934586 85.42065902 2.20069149 87.86596772 2.21146011 90.31125832 C2.22591321 93.72815472 2.22798053 97.14484568 2.22705078 100.56176758 C2.23424133 101.57956299 2.24143188 102.5973584 2.24884033 103.64599609 C2.246091 104.57567703 2.24334167 105.50535797 2.24050903 106.46321106 C2.24235262 107.27162351 2.24419621 108.08003595 2.24609566 108.91294575 C2 111 2 111 0 114 C-2.22950172 114.36914349 -2.22950172 114.36914349 -5.06192017 114.36076355 C-6.13326706 114.36488754 -7.20461395 114.36901154 -8.3084259 114.3732605 C-10.07895576 114.35708176 -10.07895576 114.35708176 -11.88525391 114.34057617 C-13.12424942 114.34101425 -14.36324493 114.34145233 -15.63978577 114.34190369 C-19.04266413 114.3401685 -22.44500027 114.32509646 -25.84778261 114.30418181 C-29.40187269 114.28546112 -32.95596955 114.28366822 -36.51010132 114.28010559 C-43.24268007 114.27077152 -49.97511313 114.24613946 -56.70762765 114.21605712 C-64.37135288 114.18255535 -72.03508498 114.16603776 -79.69886518 114.15097082 C-95.46599457 114.11959098 -111.23297852 114.06680419 -127 114 C-127 113.67 -127 113.34 -127 113 C-85.42 113 -43.84 113 -1 113 C-1 111.68 -1 110.36 -1 109 C-0.34 109 0.32 109 1 109 C0.505 55.045 0.505 55.045 0 0 Z " fill="#7B7B7B" transform="translate(469,84)"/>
<path d="M0 0 C3.96 0 7.92 0 12 0 C12 3.96 12 7.92 12 12 C8.04 12 4.08 12 0 12 C0 8.04 0 4.08 0 0 Z " fill="#040404" transform="translate(312,191)"/>
<path d="M0 0 C3.96 0 7.92 0 12 0 C12 3.96 12 7.92 12 12 C8.04 12 4.08 12 0 12 C0 8.04 0 4.08 0 0 Z " fill="#000000" transform="translate(287,166)"/>
<path d="M0 0 C1.98 0 3.96 0 6 0 C6 4.29 6 8.58 6 13 C4.35 13 2.7 13 1 13 C1 16.63 1 20.26 1 24 C2.65 24 4.3 24 6 24 C6 28.95 6 33.9 6 39 C4.68 39 3.36 39 2 39 C2 41.97 2 44.94 2 48 C3.32 48 4.64 48 6 48 C6 53.28 6 58.56 6 64 C5.67 64 5.34 64 5 64 C5 59.05 5 54.1 5 49 C3.68 49 2.36 49 1 49 C1 45.37 1 41.74 1 38 C2.32 38 3.64 38 5 38 C5 33.71 5 29.42 5 25 C3.35 25 1.7 25 0 25 C0 16.75 0 8.5 0 0 Z " fill="#767676" transform="translate(324,191)"/>
<path d="M0 0 C0.99 0 1.98 0 3 0 C3 1.32 3 2.64 3 4 C4.32 4.33 5.64 4.66 7 5 C7 5.99 7 6.98 7 8 C8.32 8.33 9.64 8.66 11 9 C11 9.66 11 10.32 11 11 C11.99 11.33 12.98 11.66 14 12 C14 12.99 14 13.98 14 15 C15.32 15.66 16.64 16.32 18 17 C18 17.66 18 18.32 18 19 C18.99 19.33 19.98 19.66 21 20 C21 20.99 21 21.98 21 23 C22.32 23 23.64 23 25 23 C25 24.65 25 26.3 25 28 C25.66 28 26.32 28 27 28 C27.804375 28.969375 28.60875 29.93875 29.4375 30.9375 C31.70684377 34.19375327 31.70684377 34.19375327 35 35 C35.6875 37.0625 35.6875 37.0625 36 39 C34.02 38.34 32.04 37.68 30 37 C30 35.68 30 34.36 30 33 C28.68 33 27.36 33 26 33 C26 32.34 26 31.68 26 31 C24.68 30.67 23.36 30.34 22 30 C22 29.01 22 28.02 22 27 C20.68 26.67 19.36 26.34 18 26 C18 25.01 18 24.02 18 23 C17.01 23 16.02 23 15 23 C14.690625 21.906875 14.38125 20.81375 14.0625 19.6875 C13.41662103 17.44592006 12.7376883 15.2130649 12 13 C11.01 12.67 10.02 12.34 9 12 C9 11.01 9 10.02 9 9 C7.68 8.67 6.36 8.34 5 8 C5 7.01 5 6.02 5 5 C4.01 5 3.02 5 2 5 C2 3.68 2 2.36 2 1 C1.34 0.67 0.68 0.34 0 0 Z " fill="#E2E2E2" transform="translate(172,535)"/>
<path d="M0 0 C8.33557047 -0.48322148 8.33557047 -0.48322148 11.0625 1.5 C12.4196317 5.11901787 12.19274768 8.14504636 12 12 C8.04 12 4.08 12 0 12 C0 8.04 0 4.08 0 0 Z " fill="#F9F9F9" transform="translate(299,166)"/>
<path d="M0 0 C7.47232038 -0.36749117 7.47232038 -0.36749117 9.75 1.21875 C12.05503015 4.50341797 11.16892481 8.11472944 11 12 C7.37 12 3.74 12 0 12 C0 8.04 0 4.08 0 0 Z " fill="#FEFEFE" transform="translate(312,179)"/>
<path d="M0 0 C0.33 0 0.66 0 1 0 C1.33 27.72 1.66 55.44 2 84 C2.99 81.69 3.98 79.38 5 77 C5.33 77 5.66 77 6 77 C6.35193697 82.2790545 6.35193697 82.2790545 6 85 C4.0625 87.125 4.0625 87.125 2 89 C1.19684346 92.14481791 1.19684346 92.14481791 1 95 C-1 93 -1 93 -1.20254517 89.22885132 C-1.19053803 87.56440633 -1.16717276 85.90002207 -1.13525391 84.23583984 C-1.12579239 83.32846573 -1.11633087 82.42109161 -1.10658264 81.48622131 C-1.07281991 78.4775921 -1.02472799 75.46936782 -0.9765625 72.4609375 C-0.95040415 70.37872384 -0.92513644 68.29649881 -0.90072632 66.21426392 C-0.83398944 60.72649791 -0.75511526 55.23897008 -0.67376709 49.75140381 C-0.59293073 44.1546749 -0.52349856 38.55780602 -0.453125 32.9609375 C-0.3132851 21.97379051 -0.16063081 10.98686131 0 0 Z " fill="#E1E1E1" transform="translate(457,90)"/>
<path d="M0 0 C3.63 0 7.26 0 11 0 C11 3.63 11 7.26 11 11 C7.37 11 3.74 11 0 11 C0 7.37 0 3.74 0 0 Z " fill="#1F1F1F" transform="translate(300,204)"/>
<path d="M0 0 C3.63 0 7.26 0 11 0 C11 3.63 11 7.26 11 11 C7.37 11 3.74 11 0 11 C0 7.37 0 3.74 0 0 Z " fill="#171717" transform="translate(275,179)"/>
<path d="M0 0 C3.63 0 7.26 0 11 0 C11 3.63 11 7.26 11 11 C7.37 11 3.74 11 0 11 C0 7.37 0 3.74 0 0 Z " fill="#000000" transform="translate(300,179)"/>
<path d="M0 0 C3.63 0 7.26 0 11 0 C11 3.63 11 7.26 11 11 C7.37 11 3.74 11 0 11 C0 7.37 0 3.74 0 0 Z " fill="#000000" transform="translate(275,154)"/>
<path d="M0 0 C0.66 0.33 1.32 0.66 2 1 C2.02334009 15.30767353 2.04091821 29.61534412 2.05181217 43.92303276 C2.05703966 50.56604547 2.0641349 57.20904542 2.07543945 63.85205078 C2.08627306 70.25811006 2.09227785 76.66415704 2.09487724 83.07022476 C2.09673063 85.51914794 2.1003496 87.96807041 2.10573006 90.41698837 C2.11294674 93.83643825 2.11399067 97.25583675 2.11352539 100.67529297 C2.11712067 101.69668365 2.12071594 102.71807434 2.12442017 103.77041626 C2.1230455 104.69872253 2.12167084 105.62702881 2.12025452 106.58346558 C2.12163721 107.79746694 2.12163721 107.79746694 2.12304783 109.03599358 C2 111 2 111 1 113 C0.34 113 -0.32 113 -1 113 C-1 111.68 -1 110.36 -1 109 C-0.34 109 0.32 109 1 109 C0.505 55.045 0.505 55.045 0 0 Z " fill="#656565" transform="translate(469,84)"/>
<path d="M0 0 C7.28358209 -0.35820896 7.28358209 -0.35820896 10 1 C11.63983879 4.27967758 11.17845638 7.37138689 11 11 C7.37 11 3.74 11 0 11 C0 7.37 0 3.74 0 0 Z " fill="#FEFEFE" transform="translate(275,142)"/>
<path d="M0 0 C1.7074998 1.28062485 3.37373596 2.61767557 5 4 C5 4.66 5 5.32 5 6 C6.32 6 7.64 6 9 6 C9 7.32 9 8.64 9 10 C10.32 10 11.64 10 13 10 C13 11.32 13 12.64 13 14 C14.32 14 15.64 14 17 14 C17 14.99 17 15.98 17 17 C18.32 17.33 19.64 17.66 21 18 C21 18.99 21 19.98 21 21 C21.99 21 22.98 21 24 21 C23.67 22.32 23.34 23.64 23 25 C22.67 24.01 22.34 23.02 22 22 C21.34 22 20.68 22 20 22 C19.67 21.01 19.34 20.02 19 19 C16.90280128 17.97718482 16.90280128 17.97718482 14.4375 17.3125 C13.61121094 17.06113281 12.78492187 16.80976563 11.93359375 16.55078125 C11.29550781 16.36902344 10.65742187 16.18726563 10 16 C10 15.34 10 14.68 10 14 C8.68 13.67 7.36 13.34 6 13 C6 12.01 6 11.02 6 10 C4.68 9.67 3.36 9.34 2 9 C2 7.68 2 6.36 2 5 C1.01 5 0.02 5 -1 5 C-0.67 3.35 -0.34 1.7 0 0 Z " fill="#C6C6C6" transform="translate(53,162)"/>
<path d="M0 0 C3.3 0 6.6 0 10 0 C10 3.3 10 6.6 10 10 C6.7 10 3.4 10 0 10 C0 6.7 0 3.4 0 0 Z " fill="#000000" transform="translate(313,217)"/>
<path d="M0 0 C3.3 0 6.6 0 10 0 C10 3.3 10 6.6 10 10 C6.7 10 3.4 10 0 10 C0 6.7 0 3.4 0 0 Z " fill="#000000" transform="translate(288,192)"/>
<path d="M0 0 C3.3 0 6.6 0 10 0 C10 3.3 10 6.6 10 10 C6.7 10 3.4 10 0 10 C0 6.7 0 3.4 0 0 Z " fill="#E6E6E6" transform="translate(396,139)"/>
<path d="M0 0 C3.3 0 6.6 0 10 0 C10 3.3 10 6.6 10 10 C6.7 10 3.4 10 0 10 C0 6.7 0 3.4 0 0 Z " fill="#E6E6E6" transform="translate(56,139)"/>
<path d="M0 0 C0.33 0 0.66 0 1 0 C2.2073722 5.04721166 2.299444 10.12974425 2.4296875 15.29296875 C2.54511217 19.35894961 2.54511217 19.35894961 4.4765625 22.8046875 C4.97929687 23.19914063 5.48203125 23.59359375 6 24 C6.33 24.99 6.66 25.98 7 27 C8.64646685 28.68662458 10.31183067 30.35511706 12 32 C12 32.33 12 32.66 12 33 C10.35 33 8.7 33 7 33 C7 32.01 7 31.02 7 30 C5.68 29.67 4.36 29.34 3 29 C3 28.01 3 27.02 3 26 C2.01 26 1.02 26 0 26 C-0.80866672 22.52300537 -1.07549313 19.47837556 -0.87890625 15.91796875 C-0.83056641 14.98662109 -0.78222656 14.05527344 -0.73242188 13.09570312 C-0.67634766 12.13599609 -0.62027344 11.17628906 -0.5625 10.1875 C-0.51029297 9.20845703 -0.45808594 8.22941406 -0.40429688 7.22070312 C-0.27512661 4.8134391 -0.14018357 2.40664362 0 0 Z " fill="#E2E2E2" transform="translate(146,491)"/>
<path d="M0 0 C0.33 0 0.66 0 1 0 C1 11.22 1 22.44 1 34 C-2.1733525 29.76886334 -2.37747976 29.02967621 -2.36328125 24.0625 C-2.36263672 22.92039062 -2.36199219 21.77828125 -2.36132812 20.6015625 C-2.34521484 19.41304688 -2.32910156 18.22453125 -2.3125 17 C-2.31572266 15.81148438 -2.31894531 14.62296875 -2.32226562 13.3984375 C-2.26240761 3.75585558 -2.26240761 3.75585558 0 0 Z " fill="#1C1C1C" transform="translate(334,361)"/>
<path d="M0 0 C2.97 0 5.94 0 9 0 C9 3.3 9 6.6 9 10 C6.03 10 3.06 10 0 10 C0 6.7 0 3.4 0 0 Z " fill="#EBEBEB" transform="translate(69,152)"/>
<path d="M0 0 C2.97 0 5.94 0 9 0 C9 2.97 9 5.94 9 9 C6.03 9 3.06 9 0 9 C0 6.03 0 3.06 0 0 Z " fill="#080808" transform="translate(301,230)"/>
<path d="M0 0 C2.97 0 5.94 0 9 0 C9 2.97 9 5.94 9 9 C6.03 9 3.06 9 0 9 C0 6.03 0 3.06 0 0 Z " fill="#191919" transform="translate(276,205)"/>
<path d="M0 0 C2.97 0 5.94 0 9 0 C9 2.97 9 5.94 9 9 C6.03 9 3.06 9 0 9 C0 6.03 0 3.06 0 0 Z " fill="#FFFFFF" transform="translate(422,165)"/>
<path d="M0 0 C2.97 0 5.94 0 9 0 C9 2.97 9 5.94 9 9 C6.03 9 3.06 9 0 9 C0 6.03 0 3.06 0 0 Z " fill="#FFFFFF" transform="translate(82,165)"/>
<path d="M0 0 C2.97 0 5.94 0 9 0 C9 2.97 9 5.94 9 9 C6.03 9 3.06 9 0 9 C0 6.03 0 3.06 0 0 Z " fill="#FFFFFF" transform="translate(409,152)"/>
<path d="M0 0 C3.3 0 6.6 0 10 0 C10 2.64 10 5.28 10 8 C6.7 8 3.4 8 0 8 C0 5.36 0 2.72 0 0 Z " fill="#EAEAEA" transform="translate(383,128)"/>
<path d="M0 0 C3.3 0 6.6 0 10 0 C10 2.64 10 5.28 10 8 C6.7 8 3.4 8 0 8 C0 5.36 0 2.72 0 0 Z " fill="#F2F2F2" transform="translate(43,128)"/>
<path d="M0 0 C2.97 0 5.94 0 9 0 C9 2.64 9 5.28 9 8 C6.03 8 3.06 8 0 8 C0 5.36 0 2.72 0 0 Z " fill="#ECECEC" transform="translate(82,140)"/>
<path d="M0 0 C0.99 0 1.98 0 3 0 C3 14.85 3 29.7 3 45 C2.67 45 2.34 45 2 45 C1.63346987 41.77211225 1.28398093 38.54259638 0.9375 35.3125 C0.7818457 33.94448242 0.7818457 33.94448242 0.62304688 32.54882812 C0.52958984 31.66259766 0.43613281 30.77636719 0.33984375 29.86328125 C0.25081787 29.05157471 0.16179199 28.23986816 0.07006836 27.40356445 C-0.0063933 24.78068963 0.43006379 22.55407097 1 20 C1.31626259 13.2561653 1.02582547 6.66786556 0 0 Z " fill="#323232" transform="translate(461,92)"/>
<path d="M0 0 C2.64 0 5.28 0 8 0 C8 2.64 8 5.28 8 8 C5.36 8 2.72 8 0 8 C0 5.36 0 2.72 0 0 Z " fill="#000000" transform="translate(314,243)"/>
<path d="M0 0 C2.64 0 5.28 0 8 0 C8 2.64 8 5.28 8 8 C5.36 8 2.72 8 0 8 C0 5.36 0 2.72 0 0 Z " fill="#000000" transform="translate(289,218)"/>
<path d="M0 0 C2.64 0 5.28 0 8 0 C8 2.64 8 5.28 8 8 C5.36 8 2.72 8 0 8 C0 5.36 0 2.72 0 0 Z " fill="#F7F7F7" transform="translate(397,165)"/>
<path d="M0 0 C2.64 0 5.28 0 8 0 C8 2.64 8 5.28 8 8 C5.36 8 2.72 8 0 8 C0 5.36 0 2.72 0 0 Z " fill="#FFFFFF" transform="translate(108,166)"/>
<path d="M0 0 C2.64 0 5.28 0 8 0 C8 2.64 8 5.28 8 8 C5.36 8 2.72 8 0 8 C0 5.36 0 2.72 0 0 Z " fill="#F4F4F4" transform="translate(384,153)"/>
<path d="M0 0 C2.64 0 5.28 0 8 0 C8 2.64 8 5.28 8 8 C5.36 8 2.72 8 0 8 C0 5.36 0 2.72 0 0 Z " fill="#F8F8F8" transform="translate(95,153)"/>
<path d="M0 0 C2.64 0 5.28 0 8 0 C8 2.64 8 5.28 8 8 C5.36 8 2.72 8 0 8 C0 5.36 0 2.72 0 0 Z " fill="#FEFEFE" transform="translate(371,140)"/>
<path d="M0 0 C2.97 0 5.94 0 9 0 C9 2.31 9 4.62 9 7 C6.03 7 3.06 7 0 7 C0 4.69 0 2.38 0 0 Z " fill="#DADADA" transform="translate(409,178)"/>
<path d="M0 0 C2.97 0 5.94 0 9 0 C9 2.31 9 4.62 9 7 C6.03 7 3.06 7 0 7 C0 4.69 0 2.38 0 0 Z " fill="#F9F9F9" transform="translate(435,178)"/>
<path d="M0 0 C2.97 0 5.94 0 9 0 C9 2.31 9 4.62 9 7 C6.03 7 3.06 7 0 7 C0 4.69 0 2.38 0 0 Z " fill="#FDFDFD" transform="translate(95,178)"/>
<path d="M0 0 C2.64 0 5.28 0 8 0 C8 2.31 8 4.62 8 7 C5.36 7 2.72 7 0 7 C0 4.69 0 2.38 0 0 Z " fill="#D8D8D8" transform="translate(371,166)"/>
<path d="M0 0 C2.64 0 5.28 0 8 0 C8 2.31 8 4.62 8 7 C5.36 7 2.72 7 0 7 C0 4.69 0 2.38 0 0 Z " fill="#D8D8D8" transform="translate(108,141)"/>
<path d="M0 0 C2.64 0 5.28 0 8 0 C8 2.31 8 4.62 8 7 C5.36 7 2.72 7 0 7 C0 4.69 0 2.38 0 0 Z " fill="#F5F5F5" transform="translate(358,128)"/>
<path d="M0 0 C2.64 0 5.28 0 8 0 C8 2.31 8 4.62 8 7 C5.36 7 2.72 7 0 7 C0 4.69 0 2.38 0 0 Z " fill="#F6F6F6" transform="translate(70,128)"/>
<path d="M0 0 C1.65 0 3.3 0 5 0 C5 3.63 5 7.26 5 11 C3.35 11 1.7 11 0 11 C0 7.37 0 3.74 0 0 Z " fill="#FFFFFF" transform="translate(324,192)"/>
<path d="M0 0 C1.65 0 3.3 0 5 0 C5.33 0.99 5.66 1.98 6 3 C6.99 3.33 7.98 3.66 9 4 C9.33 4.99 9.66 5.98 10 7 C11.62652316 8.70586575 13.29006566 10.3777546 15 12 C13.68 12.33 12.36 12.66 11 13 C11 11.68 11 10.36 11 9 C9.68 9 8.36 9 7 9 C7 8.34 7 7.68 7 7 C6.01 7 5.02 7 4 7 C3.67 5.68 3.34 4.36 3 3 C2.01 3 1.02 3 0 3 C0 2.01 0 1.02 0 0 Z " fill="#F7F7F7" transform="translate(172,540)"/>
<path d="M0 0 C2.5 1.5 2.5 1.5 5 4 C5.45442324 6.80138565 5.23849927 9.13800875 5 12 C3.35 12 1.7 12 0 12 C0 8.04 0 4.08 0 0 Z " fill="#F2F2F2" transform="translate(269,129)"/>
<path d="M0 0 C2.31 0 4.62 0 7 0 C7 2.31 7 4.62 7 7 C4.69 7 2.38 7 0 7 C0 4.69 0 2.38 0 0 Z " fill="#0C0C0C" transform="translate(302,256)"/>
<path d="M0 0 C2.31 0 4.62 0 7 0 C7 2.31 7 4.62 7 7 C4.69 7 2.38 7 0 7 C0 4.69 0 2.38 0 0 Z " fill="#131313" transform="translate(277,231)"/>
<path d="M0 0 C2.31 0 4.62 0 7 0 C7 2.31 7 4.62 7 7 C4.69 7 2.38 7 0 7 C0 4.69 0 2.38 0 0 Z " fill="#EFEFEF" transform="translate(134,166)"/>
<path d="M0 0 C2.31 0 4.62 0 7 0 C7 2.31 7 4.62 7 7 C4.69 7 2.38 7 0 7 C0 4.69 0 2.38 0 0 Z " fill="#F4F4F4" transform="translate(359,153)"/>
<path d="M0 0 C2.31 0 4.62 0 7 0 C7 2.31 7 4.62 7 7 C4.69 7 2.38 7 0 7 C0 4.69 0 2.38 0 0 Z " fill="#ECECEC" transform="translate(121,153)"/>
<path d="M0 0 C2.31 0 4.62 0 7 0 C7 2.31 7 4.62 7 7 C4.69 7 2.38 7 0 7 C0 4.69 0 2.38 0 0 Z " fill="#F0F0F0" transform="translate(346,140)"/>
<path d="M0 0 C0.33 0.66 0.66 1.32 1 2 C2.32 2 3.64 2 5 2 C5 3.32 5 4.64 5 6 C6.32 6.33 7.64 6.66 9 7 C9 7.99 9 8.98 9 10 C9.8971875 10.1546875 9.8971875 10.1546875 10.8125 10.3125 C13.33421352 11.10503854 14.39685699 11.91591409 16 14 C16 14.99 16 15.98 16 17 C17.32 17.33 18.64 17.66 20 18 C20 18.99 20 19.98 20 21 C19.34 21 18.68 21 18 21 C18 20.01 18 19.02 18 18 C16.68 17.67 15.36 17.34 14 17 C14 16.34 14 15.68 14 15 C13.01 14.67 12.02 14.34 11 14 C11 13.01 11 12.02 11 11 C9.68 10.67 8.36 10.34 7 10 C7 9.01 7 8.02 7 7 C6.01 7 5.02 7 4 7 C4 5.68 4 4.36 4 3 C2.68 3 1.36 3 0 3 C0 2.01 0 1.02 0 0 Z " fill="#7A7A7A" transform="translate(20,128)"/>
<path d="M0 0 C2.31 0 4.62 0 7 0 C7 2.31 7 4.62 7 7 C4.69 7 2.38 7 0 7 C0 4.69 0 2.38 0 0 Z " fill="#E0E0E0" transform="translate(96,128)"/>
<path d="M0 0 C2.64 0 5.28 0 8 0 C8 1.98 8 3.96 8 6 C5.36 6 2.72 6 0 6 C0 4.02 0 2.04 0 0 Z " fill="#FAFAFA" transform="translate(121,179)"/>
<path d="M0 0 C0.99 0 1.98 0 3 0 C3 1.32 3 2.64 3 4 C4.32 4.33 5.64 4.66 7 5 C7 5.99 7 6.98 7 8 C8.32 8.33 9.64 8.66 11 9 C11 9.66 11 10.32 11 11 C11.99 11.33 12.98 11.66 14 12 C14 12.99 14 13.98 14 15 C15.32 15.66 16.64 16.32 18 17 C17.67 17.66 17.34 18.32 17 19 C15.2925002 17.71937515 13.62626404 16.38232443 12 15 C12 14.34 12 13.68 12 13 C11.01 12.67 10.02 12.34 9 12 C9 11.01 9 10.02 9 9 C7.68 8.67 6.36 8.34 5 8 C5 7.01 5 6.02 5 5 C4.01 5 3.02 5 2 5 C2 3.68 2 2.36 2 1 C1.34 0.67 0.68 0.34 0 0 Z " fill="#757575" transform="translate(172,535)"/>
<path d="M0 0 C2.31 0 4.62 0 7 0 C7 1.98 7 3.96 7 6 C4.69 6 2.38 6 0 6 C0 4.02 0 2.04 0 0 Z " fill="#F1F1F1" transform="translate(333,128)"/>
<path d="M0 0 C1.32 0 2.64 0 4 0 C4 0.99 4 1.98 4 3 C5.32 3.33 6.64 3.66 8 4 C8 4.99 8 5.98 8 7 C9.32 7 10.64 7 12 7 C13.25664978 9.90600261 14 11.79604584 14 15 C10 10.25 10 10.25 10 8 C8.68 7.67 7.36 7.34 6 7 C6 6.34 6 5.68 6 5 C4.68 4.34 3.36 3.68 2 3 C2 2.34 2 1.68 2 1 C1.34 0.67 0.68 0.34 0 0 Z " fill="#676767" transform="translate(197,562)"/>
<path d="M0 0 C1.98 0 3.96 0 6 0 C6 1.98 6 3.96 6 6 C4.02 6 2.04 6 0 6 C0 4.02 0 2.04 0 0 Z " fill="#000000" transform="translate(315,269)"/>
<path d="M0 0 C1.98 0 3.96 0 6 0 C6 1.98 6 3.96 6 6 C4.02 6 2.04 6 0 6 C0 4.02 0 2.04 0 0 Z " fill="#393939" transform="translate(290,269)"/>
<path d="M0 0 C1.98 0 3.96 0 6 0 C6 1.98 6 3.96 6 6 C4.02 6 2.04 6 0 6 C0 4.02 0 2.04 0 0 Z " fill="#000000" transform="translate(290,244)"/>
<path d="M0 0 C1.98 0 3.96 0 6 0 C6 1.98 6 3.96 6 6 C4.02 6 2.04 6 0 6 C0 4.02 0 2.04 0 0 Z " fill="#FFFFFF" transform="translate(385,179)"/>
<path d="M0 0 C1.98 0 3.96 0 6 0 C6 1.98 6 3.96 6 6 C4.02 6 2.04 6 0 6 C0 4.02 0 2.04 0 0 Z " fill="#D6D6D6" transform="translate(334,154)"/>
<path d="M0 0 C1.98 0 3.96 0 6 0 C6 1.98 6 3.96 6 6 C4.02 6 2.04 6 0 6 C0 4.02 0 2.04 0 0 Z " fill="#E0E0E0" transform="translate(308,128)"/>
<path d="M0 0 C1.98 0 3.96 0 6 0 C6 1.98 6 3.96 6 6 C4.02 6 2.04 6 0 6 C0 4.02 0 2.04 0 0 Z " fill="#E0E0E0" transform="translate(122,128)"/>
<path d="M0 0 C0.99 0 1.98 0 3 0 C3 0.66 3 1.32 3 2 C4.32 2 5.64 2 7 2 C7 3.32 7 4.64 7 6 C8.32 6 9.64 6 11 6 C11 7.32 11 8.64 11 10 C11.99 10.33 12.98 10.66 14 11 C12.68 11 11.36 11 10 11 C10 9.68 10 8.36 10 7 C9.236875 6.896875 8.47375 6.79375 7.6875 6.6875 C4.81583516 5.95288806 3.76957906 5.3283935 2 3 C2 2.34 2 1.68 2 1 C1.34 0.67 0.68 0.34 0 0 Z " fill="#4D4D4D" transform="translate(153,518)"/>
<path d="M0 0 C1.65 0 3.3 0 5 0 C5 1.98 5 3.96 5 6 C3.35 6 1.7 6 0 6 C0 4.02 0 2.04 0 0 Z " fill="#F4F4F4" transform="translate(135,141)"/>
<path d="M0 0 C1.98 0 3.96 0 6 0 C6 1.65 6 3.3 6 5 C4.02 5 2.04 5 0 5 C0 3.35 0 1.7 0 0 Z " fill="#EAEAEA" transform="translate(321,141)"/>
<path d="M0 0 C0.33 0 0.66 0 1 0 C1 3.96 1 7.92 1 12 C2.98 12.495 2.98 12.495 5 13 C5 14.98 5 16.96 5 19 C4.360625 18.195625 3.72125 17.39125 3.0625 16.5625 C1.59396498 14.7249496 1.59396498 14.7249496 0 13 C-0.07258946 10.81360547 -0.08373783 8.62499611 -0.0625 6.4375 C-0.05347656 5.23996094 -0.04445312 4.04242188 -0.03515625 2.80859375 C-0.02355469 1.88175781 -0.01195312 0.95492188 0 0 Z " fill="#484848" transform="translate(148,499)"/>
<path d="M0 0 C0.99 0 1.98 0 3 0 C3 4.95 3 9.9 3 15 C2.67 15 2.34 15 2 15 C1.34 10.05 0.68 5.1 0 0 Z " fill="#3F3F3F" transform="translate(461,92)"/>
<path d="M0 0 C1.65 0 3.3 0 5 0 C5 1.65 5 3.3 5 5 C3.35 5 1.7 5 0 5 C0 3.35 0 1.7 0 0 Z " fill="#000000" transform="translate(303,282)"/>
<path d="M0 0 C1.65 0 3.3 0 5 0 C5 1.65 5 3.3 5 5 C3.35 5 1.7 5 0 5 C0 3.35 0 1.7 0 0 Z " fill="#0C0C0C" transform="translate(278,257)"/>
<path d="M0 0 C1.65 0 3.3 0 5 0 C5 1.65 5 3.3 5 5 C3.35 5 1.7 5 0 5 C0 3.35 0 1.7 0 0 Z " fill="#FFFFFF" transform="translate(360,180)"/>
<path d="M0 0 C0.33 0 0.66 0 1 0 C1.44041451 5.28497409 1.44041451 5.28497409 1 8 C-1.5 10.5 -1.5 10.5 -4 12 C-2.66666667 8 -1.33333333 4 0 0 Z " fill="#B1B1B1" transform="translate(462,167)"/>
<path d="M0 0 C1.65 0 3.3 0 5 0 C5 1.65 5 3.3 5 5 C3.35 5 1.7 5 0 5 C0 3.35 0 1.7 0 0 Z " fill="#FFFFFF" transform="translate(347,167)"/>
<path d="M0 0 C1.98 0.66 3.96 1.32 6 2 C6 3.32 6 4.64 6 6 C4.02 5.34 2.04 4.68 0 4 C0 2.68 0 1.36 0 0 Z " fill="#ECECEC" transform="translate(168,534)"/>
<path d="M0 0 C0.33 0 0.66 0 1 0 C1 5.28 1 10.56 1 16 C-0.32 15.67 -1.64 15.34 -3 15 C-2.34 14.34 -1.68 13.68 -1 13 C-0.53513282 9.87803664 -0.53513282 9.87803664 -0.375 6.375 C-0.30023438 5.18648437 -0.22546875 3.99796875 -0.1484375 2.7734375 C-0.09945313 1.85820312 -0.05046875 0.94296875 0 0 Z " fill="#3E3E3E" transform="translate(463,162)"/>
<path d="M0 0 C1.32 0 2.64 0 4 0 C4 1.65 4 3.3 4 5 C2.68 5 1.36 5 0 5 C0 3.35 0 1.7 0 0 Z " fill="#D8D8D8" transform="translate(335,180)"/>
<path d="M0 0 C1.32 0 2.64 0 4 0 C4 1.65 4 3.3 4 5 C2.68 5 1.36 5 0 5 C0 3.35 0 1.7 0 0 Z " fill="#D7D7D7" transform="translate(322,167)"/>
<path d="M0 0 C1.65 0 3.3 0 5 0 C5 1.32 5 2.64 5 4 C3.35 4 1.7 4 0 4 C0 2.68 0 1.36 0 0 Z " fill="#C7C7C7" transform="translate(296,142)"/>
<path d="M0 0 C1.65 0 3.3 0 5 0 C5 1.32 5 2.64 5 4 C3.35 4 1.7 4 0 4 C0 2.68 0 1.36 0 0 Z " fill="#E8E8E8" transform="translate(283,129)"/>
<path d="M0 0 C1.65 0.33 3.3 0.66 5 1 C5 1.66 5 2.32 5 3 C3.35 3.33 1.7 3.66 0 4 C0 2.68 0 1.36 0 0 Z " fill="#F3F3F3" transform="translate(15,11)"/>
</svg>
