<?xml version="1.0" encoding="UTF-8"?>
<svg version="1.1" xmlns="http://www.w3.org/2000/svg" width="617" height="659">
<path d="M0 0 C1.09957031 -0.00128906 2.19914063 -0.00257812 3.33203125 -0.00390625 C4.46511719 -0.00003906 5.59820312 0.00382812 6.765625 0.0078125 C7.91417969 0.00394531 9.06273437 0.00007813 10.24609375 -0.00390625 C11.34050781 -0.00261719 12.43492187 -0.00132813 13.5625 0 C14.56120117 0.00112793 15.55990234 0.00225586 16.58886719 0.00341797 C19.015625 0.1328125 19.015625 0.1328125 21.015625 1.1328125 C21.015625 1.7928125 21.015625 2.4528125 21.015625 3.1328125 C18.705625 3.4628125 16.395625 3.7928125 14.015625 4.1328125 C14.015625 4.7928125 14.015625 5.4528125 14.015625 6.1328125 C15.10875 6.1534375 16.201875 6.1740625 17.328125 6.1953125 C23.5002488 6.97631938 28.01864258 10.66101347 33.015625 14.1328125 C41.49210599 19.86987447 50.07105082 25.25202105 59.0078125 30.24609375 C63.18473611 32.584786 67.14181175 35.17385169 71.09765625 37.86328125 C72.98351784 39.16707655 72.98351784 39.16707655 75.015625 40.1328125 C75.015625 40.7928125 75.015625 41.4528125 75.015625 42.1328125 C76.04816406 42.27009766 76.04816406 42.27009766 77.1015625 42.41015625 C80.6999079 43.30250732 83.42918211 44.84311463 86.640625 46.6953125 C87.55714844 47.22342529 87.55714844 47.22342529 88.4921875 47.76220703 C93.42982353 50.66178235 98.00853263 53.93349942 102.515625 57.46875 C105.26715053 59.30023418 107.87075287 60.16147388 111.015625 61.1328125 C112.35837669 62.12012992 113.69294773 63.11875993 115.015625 64.1328125 C117.16296427 64.83796096 117.16296427 64.83796096 119.015625 65.1328125 C118.685625 63.8128125 118.355625 62.4928125 118.015625 61.1328125 C119.665625 60.8028125 121.315625 60.4728125 123.015625 60.1328125 C126.015625 63.8828125 126.015625 63.8828125 126.015625 66.1328125 C124.365625 66.1328125 122.715625 66.1328125 121.015625 66.1328125 C124.2664753 69.80768675 128.0592762 72.19547276 132.1875 74.765625 C132.79078125 75.21679688 133.3940625 75.66796875 134.015625 76.1328125 C134.015625 76.7928125 134.015625 77.4528125 134.015625 78.1328125 C134.634375 78.3803125 135.253125 78.6278125 135.890625 78.8828125 C138.41088327 80.36531736 139.02794159 81.41668314 140.015625 84.1328125 C140.015625 85.1228125 140.015625 86.1128125 140.015625 87.1328125 C140.675625 87.1328125 141.335625 87.1328125 142.015625 87.1328125 C142.6446875 88.26976563 143.27375 89.40671875 143.921875 90.578125 C149.21750709 100.13685518 154.56447412 109.66181851 160.015625 119.1328125 C160.675625 119.1328125 161.335625 119.1328125 162.015625 119.1328125 C163.52628182 117.03602084 164.90862877 114.95144034 166.265625 112.7578125 C166.66676514 112.11948486 167.06790527 111.48115723 167.48120117 110.82348633 C168.6665894 108.93099941 169.84147213 107.03228305 171.015625 105.1328125 C171.60472656 104.19566406 172.19382812 103.25851563 172.80078125 102.29296875 C176.97620727 95.53326371 180.15073574 88.53377643 183.015625 81.1328125 C182.025625 81.1328125 181.035625 81.1328125 180.015625 81.1328125 C179.95375 82.2259375 179.891875 83.3190625 179.828125 84.4453125 C179.015625 88.1328125 179.015625 88.1328125 176.453125 90.0703125 C175.64875 90.4209375 174.844375 90.7715625 174.015625 91.1328125 C174.345625 88.8228125 174.675625 86.5128125 175.015625 84.1328125 C176.500625 83.6378125 176.500625 83.6378125 178.015625 83.1328125 C178.79233811 81.43467432 178.79233811 81.43467432 179.265625 79.3203125 C181.45052581 72.09511141 185.3818875 65.40041592 190.109375 59.53515625 C191.84590642 57.34669964 192.94040095 55.47409997 194.078125 52.9453125 C196.54108166 47.8122346 199.49391657 43.07236463 202.515625 38.2578125 C205.67481242 33.22070679 208.48620429 28.43852499 210.515625 22.8203125 C213.68610585 14.55400425 220.28884004 5.93831704 227.890625 1.2578125 C233.24286391 -0.87863214 239.49329323 0.060075 245.015625 1.1328125 C246.005625 1.7928125 246.995625 2.4528125 248.015625 3.1328125 C248.015625 3.7928125 248.015625 4.4528125 248.015625 5.1328125 C298.010625 5.6278125 298.010625 5.6278125 349.015625 6.1328125 C348.685625 4.8128125 348.355625 3.4928125 348.015625 2.1328125 C351.66904894 0.30610053 355.99401659 0.94810528 360.015625 0.9453125 C360.94375 0.93306641 361.871875 0.92082031 362.828125 0.90820312 C364.1584375 0.90530273 364.1584375 0.90530273 365.515625 0.90234375 C366.73765625 0.89618042 366.73765625 0.89618042 367.984375 0.88989258 C370.015625 1.1328125 370.015625 1.1328125 372.015625 3.1328125 C372.015625 3.7928125 372.015625 4.4528125 372.015625 5.1328125 C372.91925781 5.38675781 373.82289063 5.64070313 374.75390625 5.90234375 C375.93339844 6.24652344 377.11289062 6.59070312 378.328125 6.9453125 C380.08576172 7.44998047 380.08576172 7.44998047 381.87890625 7.96484375 C385.89588711 9.46058133 387.36927195 10.7323809 389.140625 14.5703125 C389.88475531 16.74955126 390.51643306 18.88644876 391.015625 21.1328125 C390.025625 20.8028125 389.035625 20.4728125 388.015625 20.1328125 C390.61098722 24.08404781 393.29353563 27.91845409 396.140625 31.6953125 C396.92179688 32.73171875 397.70296875 33.768125 398.5078125 34.8359375 C401.07526221 38.2200267 403.66996779 41.58284514 406.265625 44.9453125 C416.015625 57.59869553 416.015625 57.59869553 416.015625 60.1328125 C417.005625 60.4628125 417.995625 60.7928125 419.015625 61.1328125 C420.04575777 62.78102494 421.04677128 64.44784952 422.015625 66.1328125 C422.675625 66.4628125 423.335625 66.7928125 424.015625 67.1328125 C424.015625 67.7928125 424.015625 68.4528125 424.015625 69.1328125 C425.005625 69.4628125 425.995625 69.7928125 427.015625 70.1328125 C429.58104922 73.55337813 430.57482022 75.88292883 430.015625 80.1328125 C428.15234375 82.8515625 428.15234375 82.8515625 425.703125 85.6328125 C423.32706039 88.35706049 421.17816302 90.85569851 419.34765625 93.9765625 C418.90808594 94.688125 418.46851563 95.3996875 418.015625 96.1328125 C417.355625 96.1328125 416.695625 96.1328125 416.015625 96.1328125 C415.726875 97.0609375 415.438125 97.9890625 415.140625 98.9453125 C414.015625 102.1328125 414.015625 102.1328125 412.015625 105.1328125 C411.355625 105.1328125 410.695625 105.1328125 410.015625 105.1328125 C409.768125 105.8340625 409.520625 106.5353125 409.265625 107.2578125 C407.84653701 110.52171488 406.0102052 113.1835311 404.015625 116.1328125 C402.553078 118.40108994 401.09490147 120.67176527 399.640625 122.9453125 C398.46443927 124.77374888 397.28718775 126.60149592 396.10986328 128.42919922 C395.12414104 129.9638645 394.14560509 131.50313985 393.16796875 133.04296875 C392.64332031 133.85636719 392.11867188 134.66976562 391.578125 135.5078125 C391.12566406 136.21679688 390.67320312 136.92578125 390.20703125 137.65625 C389.61728516 138.38714844 389.61728516 138.38714844 389.015625 139.1328125 C388.355625 139.1328125 387.695625 139.1328125 387.015625 139.1328125 C386.8609375 139.968125 386.8609375 139.968125 386.703125 140.8203125 C385.87384092 143.6097226 384.67263444 145.7467189 383.015625 148.1328125 C382.355625 148.1328125 381.695625 148.1328125 381.015625 148.1328125 C380.90863281 148.70386719 380.80164063 149.27492187 380.69140625 149.86328125 C379.91479302 152.47144475 378.7639684 154.22061671 377.203125 156.4453125 C375.00473683 159.6439152 373.02549858 162.86818487 371.13671875 166.26171875 C369.20223849 169.49034609 366.9855192 172.52172494 364.80859375 175.58984375 C362.13224592 179.38570963 359.57751727 183.25923139 357.015625 187.1328125 C356.01622725 188.63321382 355.01622468 190.13321246 354.015625 191.6328125 C353.52449219 192.37015625 353.03335937 193.1075 352.52734375 193.8671875 C351.49066603 195.4208647 350.45147206 196.97286505 349.41015625 198.5234375 C348.88808594 199.30203125 348.36601562 200.080625 347.828125 200.8828125 C347.33441406 201.61886719 346.84070313 202.35492188 346.33203125 203.11328125 C345.25163581 204.7707425 344.24723211 206.47750006 343.265625 208.1953125 C342.853125 208.8346875 342.440625 209.4740625 342.015625 210.1328125 C341.355625 210.1328125 340.695625 210.1328125 340.015625 210.1328125 C339.9125 210.6896875 339.809375 211.2465625 339.703125 211.8203125 C338.86199337 214.64957343 337.62186885 216.64036514 336.015625 219.1328125 C335.53351563 219.89851562 335.05140625 220.66421875 334.5546875 221.453125 C333.76191406 222.68675781 333.76191406 222.68675781 332.953125 223.9453125 C332.19322266 225.13060547 332.19322266 225.13060547 331.41796875 226.33984375 C330.72380859 227.22736328 330.72380859 227.22736328 330.015625 228.1328125 C329.355625 228.1328125 328.695625 228.1328125 328.015625 228.1328125 C327.9125 228.6690625 327.809375 229.2053125 327.703125 229.7578125 C326.83469803 232.75783294 325.45942204 235.370766 324.015625 238.1328125 C323.355625 238.1328125 322.695625 238.1328125 322.015625 238.1328125 C321.726875 239.0609375 321.438125 239.9890625 321.140625 240.9453125 C320.015625 244.1328125 320.015625 244.1328125 318.015625 247.1328125 C317.355625 247.1328125 316.695625 247.1328125 316.015625 247.1328125 C315.726875 248.0609375 315.438125 248.9890625 315.140625 249.9453125 C314.015625 253.1328125 314.015625 253.1328125 312.015625 256.1328125 C311.355625 256.1328125 310.695625 256.1328125 310.015625 256.1328125 C309.726875 257.0609375 309.438125 257.9890625 309.140625 258.9453125 C308.015625 262.1328125 308.015625 262.1328125 306.015625 265.1328125 C305.355625 265.1328125 304.695625 265.1328125 304.015625 265.1328125 C303.70625 266.339375 303.70625 266.339375 303.390625 267.5703125 C301.85226839 271.55605463 299.78407719 274.68819175 297.35546875 278.1796875 C295.98134423 280.08705199 295.98134423 280.08705199 295.015625 282.1328125 C294.355625 282.1328125 293.695625 282.1328125 293.015625 282.1328125 C292.726875 282.8753125 292.438125 283.6178125 292.140625 284.3828125 C291.19259856 286.70021047 290.16716589 288.91198365 289.015625 291.1328125 C288.355625 291.1328125 287.695625 291.1328125 287.015625 291.1328125 C286.726875 291.8959375 286.438125 292.6590625 286.140625 293.4453125 C285.015625 296.1328125 285.015625 296.1328125 283.015625 299.1328125 C282.355625 299.1328125 281.695625 299.1328125 281.015625 299.1328125 C280.92152344 299.85339844 280.82742188 300.57398438 280.73046875 301.31640625 C279.90223718 304.57954811 278.58019948 306.50229339 276.578125 309.1953125 C274.4354179 312.09847932 272.52451926 314.84964057 271.015625 318.1328125 C270.355625 318.1328125 269.695625 318.1328125 269.015625 318.1328125 C268.726875 318.8753125 268.438125 319.6178125 268.140625 320.3828125 C267.19259856 322.70021047 266.16716589 324.91198365 265.015625 327.1328125 C264.355625 327.1328125 263.695625 327.1328125 263.015625 327.1328125 C262.20901586 342.7295745 261.86628588 358.27840942 261.8828125 373.89453125 C261.88187679 376.16971857 261.88062604 378.44490578 261.87908936 380.72009277 C261.87660856 386.82107324 261.8812116 392.92202943 261.8874588 399.02300644 C261.89064204 402.84074853 261.89134946 406.65848348 261.89129639 410.47622681 C261.89232215 439.82301811 261.99723352 469.16665992 262.29188871 498.51199889 C262.31238453 500.55878128 262.33254875 502.60556669 262.35261917 504.65235329 C262.48118191 517.73371286 262.61861437 530.81488032 262.78816986 543.89578056 C262.84877094 548.69673404 262.90173881 553.49775229 262.95307159 558.29881287 C262.97894685 560.53268503 263.00850537 562.76651786 263.04192352 565.00028992 C263.08724357 568.03817082 263.12051667 571.07595221 263.15087891 574.11401367 C263.16741957 575.00796184 263.18396023 575.90191 263.20100212 576.8229475 C263.21572947 578.9270918 263.12597168 581.03151202 263.015625 583.1328125 C260.40423533 585.74420217 258.57807802 585.37062477 255.02241516 585.38505554 C254.20161972 585.37787003 253.38082428 585.37068451 252.53515625 585.36328125 C251.26583504 585.36259392 251.26583504 585.36259392 249.97087097 585.3618927 C248.17612308 585.35886764 246.38137787 585.35097379 244.58666992 585.33862305 C241.85651191 585.32050093 239.12669594 585.3181125 236.39648438 585.31835938 C234.65103877 585.31343867 232.90559544 585.30760796 231.16015625 585.30078125 C230.34948196 585.29966843 229.53880768 585.2985556 228.7035675 585.29740906 C225.2681774 585.26908576 222.0313114 585.1351362 218.62548828 584.63061523 C213.77531848 583.96177334 209.00330965 583.98998848 204.11328125 584 C203.07674911 583.99904327 202.04021698 583.99808655 200.97227478 583.99710083 C198.78791238 583.99642266 196.60354794 583.99825156 194.41918945 584.00244141 C191.09256417 584.00778929 187.76607422 584.00248684 184.43945312 583.99609375 C182.30989554 583.9967547 180.18033803 583.99803622 178.05078125 584 C177.06408951 583.99797577 176.07739777 583.99595154 175.06080627 583.99386597 C169.610056 584.01218723 164.41299635 584.38951366 159.015625 585.1328125 C155.11988438 585.34631319 151.22924315 585.36284516 147.328125 585.3828125 C145.79961914 585.41375 145.79961914 585.41375 144.24023438 585.4453125 C138.91331741 585.47318388 135.41468582 585.44484671 131.015625 582.1328125 C128.69174553 581.73893462 126.35768751 581.39795165 124.015625 581.1328125 C123.355625 580.8028125 122.695625 580.4728125 122.015625 580.1328125 C121.390625 577.0703125 121.390625 577.0703125 121.015625 574.1328125 C120.355625 574.1328125 119.695625 574.1328125 119.015625 574.1328125 C118.6134375 572.67875 118.6134375 572.67875 118.203125 571.1953125 C117.81125 570.1846875 117.419375 569.1740625 117.015625 568.1328125 C116.025625 567.8028125 115.035625 567.4728125 114.015625 567.1328125 C113.025625 565.6478125 113.025625 565.6478125 112.015625 564.1328125 C109.95637361 563.40898783 109.95637361 563.40898783 108.015625 563.1328125 C107.685625 561.4828125 107.355625 559.8328125 107.015625 558.1328125 C105.695625 558.1328125 104.375625 558.1328125 103.015625 558.1328125 C102.685625 557.4728125 102.355625 556.8128125 102.015625 556.1328125 C100.8090625 555.483125 100.8090625 555.483125 99.578125 554.8203125 C96.45107988 552.76103888 96.38392602 551.55356506 95.015625 548.1328125 C93.24275701 545.97886074 91.38372661 543.93794952 89.4765625 541.90234375 C88.015625 540.1328125 88.015625 540.1328125 88.015625 538.1328125 C87.108125 537.9059375 86.200625 537.6790625 85.265625 537.4453125 C80.75269211 535.62278191 78.94987082 532.95459185 76.765625 528.6953125 C72.92717252 523.07472137 66.52079444 519.68750928 60.6796875 516.40625 C58.62358513 514.83280077 58.01119544 513.51333915 57.015625 511.1328125 C56.75683594 509.08984375 56.75683594 509.08984375 56.75 506.9453125 C56.74742187 506.16414063 56.74484375 505.38296875 56.7421875 504.578125 C56.74992188 503.77117187 56.75765625 502.96421875 56.765625 502.1328125 C56.75789062 501.32585937 56.75015625 500.51890625 56.7421875 499.6875 C56.74476563 498.90632813 56.74734375 498.12515625 56.75 497.3203125 C56.75225586 496.61261719 56.75451172 495.90492188 56.75683594 495.17578125 C57.05487734 492.8229412 57.85459898 491.18507299 59.015625 489.1328125 C59.675625 489.1328125 60.335625 489.1328125 61.015625 489.1328125 C60.93082247 479.05688809 60.83578874 468.98111516 60.72809792 458.90540791 C60.67839245 454.22562368 60.63206263 449.54585926 60.59375 444.8659668 C60.5565688 440.34006612 60.51012528 435.81434242 60.45756149 431.2885952 C60.43919028 429.57168912 60.42402042 427.85474537 60.41228104 426.13778114 C60.34993308 417.32507406 60.00560542 408.90519364 58.48425293 400.19996643 C57.65325383 394.76110547 57.56325368 389.30147521 57.41796875 383.80859375 C57.37877823 382.58230759 57.33958771 381.35602142 57.29920959 380.09257507 C57.17641822 376.21034091 57.06424965 372.32789648 56.953125 368.4453125 C56.38912659 348.580443 56.38912659 348.580443 55.5390625 328.7265625 C55.48944618 327.69315483 55.48944618 327.69315483 55.43882751 326.63887024 C54.95109756 318.00477597 53.68780022 310.78294897 48.015625 304.1328125 C47.765625 300.8203125 47.765625 300.8203125 48.015625 298.1328125 C47.355625 298.1328125 46.695625 298.1328125 46.015625 298.1328125 C45.5825 297.1634375 45.149375 296.1940625 44.703125 295.1953125 C43.3141389 291.85549485 43.3141389 291.85549485 40.015625 291.1328125 C37.47467523 287.65572334 38.015625 284.29233596 38.015625 280.1328125 C37.47543689 277.32108377 37.47543689 277.32108377 36.015625 275.1328125 C34.778125 274.66875 34.778125 274.66875 33.515625 274.1953125 C32.690625 273.8446875 31.865625 273.4940625 31.015625 273.1328125 C30.28868596 271.15392289 29.61746249 269.15326692 29.015625 267.1328125 C28.025625 266.8028125 27.035625 266.4728125 26.015625 266.1328125 C25.685625 265.4728125 25.355625 264.8128125 25.015625 264.1328125 C24.025625 263.8028125 23.035625 263.4728125 22.015625 263.1328125 C19.18612779 259.22021399 17.06393095 254.8786766 15.890625 250.1953125 C15.29222485 246.84946632 15.29222485 246.84946632 12.015625 245.1328125 C12.015625 243.8128125 12.015625 242.4928125 12.015625 241.1328125 C10.8709375 240.7615625 10.8709375 240.7615625 9.703125 240.3828125 C6.75481555 239.01150578 5.65727968 237.8977046 4.015625 235.1328125 C4.015625 234.4728125 4.015625 233.8128125 4.015625 233.1328125 C3.355625 233.1328125 2.695625 233.1328125 2.015625 233.1328125 C1.685625 230.8228125 1.355625 228.5128125 1.015625 226.1328125 C0.355625 226.1328125 -0.304375 226.1328125 -0.984375 226.1328125 C-0.984375 225.4728125 -0.984375 224.8128125 -0.984375 224.1328125 C-1.644375 224.1328125 -2.304375 224.1328125 -2.984375 224.1328125 C-2.860625 223.0190625 -2.736875 221.9053125 -2.609375 220.7578125 C-2.58885449 215.00180984 -5.54343361 210.57604645 -8.984375 206.1328125 C-10.31317113 205.12679132 -11.64547403 204.12534561 -12.984375 203.1328125 C-12.984375 202.4728125 -12.984375 201.8128125 -12.984375 201.1328125 C-14.304375 201.1328125 -15.624375 201.1328125 -16.984375 201.1328125 C-16.88125 200.3696875 -16.778125 199.6065625 -16.671875 198.8203125 C-16.775 197.9334375 -16.878125 197.0465625 -16.984375 196.1328125 C-18.63970123 195.11415021 -20.30697638 194.11470437 -21.984375 193.1328125 C-22.796875 190.4453125 -22.796875 190.4453125 -22.984375 188.1328125 C-24.304375 187.8028125 -25.624375 187.4728125 -26.984375 187.1328125 C-27.14873047 186.08480469 -27.14873047 186.08480469 -27.31640625 185.015625 C-27.47496094 184.10554687 -27.63351563 183.19546875 -27.796875 182.2578125 C-28.02310547 180.90042969 -28.02310547 180.90042969 -28.25390625 179.515625 C-28.81488801 176.78868772 -28.81488801 176.78868772 -31.984375 175.1328125 C-31.984375 174.4728125 -31.984375 173.8128125 -31.984375 173.1328125 C-32.7475 173.0915625 -33.510625 173.0503125 -34.296875 173.0078125 C-36.984375 172.1328125 -36.984375 172.1328125 -38.671875 169.6953125 C-39.74452589 166.78383152 -40.2732691 164.52198898 -40.734375 161.5078125 C-41.98865611 154.39301106 -45.87069043 147.24649707 -50.984375 142.1328125 C-53.05311534 141.490289 -53.05311534 141.490289 -54.984375 141.1328125 C-55.149375 139.8334375 -55.314375 138.5340625 -55.484375 137.1953125 C-56.62813781 131.8855815 -59.39543023 129.01817866 -63.10546875 125.1953125 C-64.984375 123.1328125 -64.984375 123.1328125 -66.484375 119.9453125 C-68.41133277 116.33226668 -70.94445858 114.88087365 -74.25390625 112.578125 C-75.984375 111.1328125 -75.984375 111.1328125 -76.796875 108.4453125 C-76.85875 107.6821875 -76.920625 106.9190625 -76.984375 106.1328125 C-77.479375 105.6790625 -77.974375 105.2253125 -78.484375 104.7578125 C-80.81412122 102.23392076 -80.62746123 99.46400773 -80.984375 96.1328125 C-81.314375 95.1428125 -81.644375 94.1528125 -81.984375 93.1328125 C-82.644375 93.1328125 -83.304375 93.1328125 -83.984375 93.1328125 C-84.231875 92.4934375 -84.479375 91.8540625 -84.734375 91.1953125 C-85.78125794 88.93386243 -85.78125794 88.93386243 -88.046875 88.5703125 C-88.68625 88.4259375 -89.325625 88.2815625 -89.984375 88.1328125 C-90.314375 87.1428125 -90.644375 86.1528125 -90.984375 85.1328125 C-91.95890625 84.66875 -91.95890625 84.66875 -92.953125 84.1953125 C-94.984375 83.1328125 -94.984375 83.1328125 -95.890625 81.3203125 C-96.0865625 80.5984375 -96.2825 79.8765625 -96.484375 79.1328125 C-98.01173207 73.98628325 -99.8837824 69.07180915 -101.984375 64.1328125 C-102.355625 63.2046875 -102.726875 62.2765625 -103.109375 61.3203125 C-105.29719036 58.76786125 -107.03536402 58.17966088 -110.109375 56.8828125 C-112.8125 55.66015625 -112.8125 55.66015625 -114.984375 54.1328125 C-115.80001145 51.63817973 -115.8757651 49.7321393 -115.7265625 47.12109375 C-115.81164062 46.46496094 -115.89671875 45.80882812 -115.984375 45.1328125 C-117.83611296 43.97497558 -117.83611296 43.97497558 -119.984375 43.1328125 C-123.52619466 39.3318353 -125.69610571 35.81336333 -127.984375 31.1328125 C-128.44457031 30.689375 -128.90476563 30.2459375 -129.37890625 29.7890625 C-133.7407041 25.28930024 -138.00455589 17.29167548 -138.984375 11.1328125 C-137.75664914 7.44963491 -136.7366995 4.885137 -133.984375 2.1328125 C-126.45664537 0.30612273 -117.82822656 0.92110764 -110.75952148 4.14868164 C-107.40677545 5.3376426 -104.59673046 5.45615377 -101.0390625 5.546875 C-99.99053352 5.5759922 -99.99053352 5.5759922 -98.92082214 5.60569763 C-96.56713131 5.66693661 -94.21343138 5.71294731 -91.859375 5.7578125 C-90.63563675 5.7858345 -90.63563675 5.7858345 -89.38717651 5.81442261 C-62.92869657 6.42027914 -36.44774299 6.22286632 -9.984375 6.1328125 C-9.984375 5.4728125 -9.984375 4.8128125 -9.984375 4.1328125 C-11.634375 3.8028125 -13.284375 3.4728125 -14.984375 3.1328125 C-10.2809164 -0.00282657 -5.53992012 0.00622863 0 0 Z M207.015625 39.1328125 C205.695625 41.4428125 204.375625 43.7528125 203.015625 46.1328125 C206.00886763 45.0352902 206.86173401 44.45598358 208.265625 41.5078125 C208.513125 40.7240625 208.760625 39.9403125 209.015625 39.1328125 C208.355625 39.1328125 207.695625 39.1328125 207.015625 39.1328125 Z " fill="#050505" transform="translate(158.984375,25.8671875)"/>
<path d="M0 0 C15.61084442 -0.68067093 31.2176281 -1.19028251 46.83966732 -1.50255299 C54.0960421 -1.65149081 61.3430629 -1.85473463 68.59350586 -2.18774414 C116.91979384 -4.36371506 116.91979384 -4.36371506 126.20758057 2.7144165 C132.60302867 8.87264813 135.34879802 16.83405811 137.72146606 25.18240356 C139.71709145 31.75122169 143.77877583 37.29980122 147.5 43 C148.93287856 45.31341595 150.3411341 47.64052508 151.75 49.96875 C152.14445313 50.61714844 152.53890625 51.26554687 152.9453125 51.93359375 C157.23364455 59.0147471 161.39361832 66.17089944 165.5625 73.32275391 C170.78249662 82.27303304 176.09966525 91.15744821 181.5 100 C187.26708126 109.4430655 192.92760311 118.94076676 198.5 128.5 C204.24171231 138.34858538 210.07096322 148.13797356 216 157.875 C216.53679886 158.75705109 216.53679886 158.75705109 217.08444214 159.65692139 C219.92301602 164.32027535 222.76539415 168.98129804 225.61376953 173.63867188 C226.93373978 175.79854252 228.24880974 177.96130669 229.5625 180.125 C230.24441406 181.24132812 230.92632812 182.35765625 231.62890625 183.5078125 C233 186 233 186 233 188 C233.66 188 234.32 188 235 188 C235.26304932 187.12520996 235.52609863 186.25041992 235.79711914 185.34912109 C236.98417426 182.04406282 238.40084352 179.39400468 240.24609375 176.4140625 C240.90851074 175.33543945 241.57092773 174.25681641 242.25341797 173.14550781 C242.78536774 172.28826111 242.78536774 172.28826111 243.32806396 171.41369629 C245.26446498 168.29171972 247.17948999 165.15663792 249.09765625 162.0234375 C249.50024658 161.36698242 249.90283691 160.71052734 250.31762695 160.03417969 C254.73975704 152.81408879 259.06159734 145.53539124 263.375 138.25 C264.1701287 136.90826239 264.96529491 135.56654701 265.76049805 134.22485352 C267.3660089 131.51533579 268.97083608 128.80541461 270.57519531 126.09521484 C274.62874553 119.24817847 278.68881339 112.405009 282.75 105.5625 C283.14813904 104.89158325 283.54627808 104.2206665 283.95648193 103.52941895 C289.70937831 93.83653955 295.49288983 84.16259418 301.30224609 74.50341797 C305.95212102 66.76520254 310.56057076 59.00303189 315.16162109 51.23574829 C323.80849851 36.63935817 332.56307984 22.11198549 341.40039062 7.63012695 C343.07740902 5.09188441 343.07740902 5.09188441 343.8787384 2.37109375 C346 -0 346 -0 348.21954155 -0.4509325 C351.33680625 -0.61994848 354.41819188 -0.61728616 357.53979492 -0.56762695 C358.73016861 -0.56835709 359.9205423 -0.56908722 361.14698792 -0.56983948 C364.41159631 -0.56695075 367.67513602 -0.54186058 370.93953109 -0.50696969 C374.35077894 -0.47573361 377.76204734 -0.47277767 381.17341614 -0.46684265 C387.63339159 -0.45129594 394.09294444 -0.4102569 400.55273372 -0.3600952 C407.90689623 -0.30422696 415.26107882 -0.27672169 422.61540067 -0.25161803 C437.743836 -0.1993413 452.87187576 -0.11138357 468 0 C466.65451609 3.45344439 465.21084636 6.45320573 463.1875 9.5625 C462.25357422 11.00496094 462.25357422 11.00496094 461.30078125 12.4765625 C460.94193848 13.02602539 460.5830957 13.57548828 460.21337891 14.14160156 C458.83983305 16.24531003 457.47249043 18.35298386 456.10546875 20.4609375 C453.31772468 24.75711548 450.52476729 29.04987991 447.73046875 33.34179688 C444.94367768 37.62263507 442.15909891 41.90491057 439.375 46.1875 C438.83552734 47.01733398 438.29605469 47.84716797 437.74023438 48.70214844 C432.9307201 56.10251955 428.13463526 63.51153019 423.34277344 70.92333984 C421.06276071 74.44948316 418.78129794 77.97468809 416.5 81.5 C415.58332659 82.9166623 414.66665992 84.33332897 413.75 85.75 C361.5 166.5 361.5 166.5 309.25 247.25 C308.56877075 248.3028418 308.56877075 248.3028418 307.8737793 249.37695312 C306.9612627 250.78716183 306.04866563 252.19731847 305.13598633 253.60742188 C302.78014583 257.24746272 300.42590264 260.88852212 298.07421875 264.53125 C297.59082031 265.27955078 297.10742188 266.02785156 296.609375 266.79882812 C295.69868799 268.20864167 294.78848635 269.61876893 293.87890625 271.02929688 C293.24855469 272.00479492 293.24855469 272.00479492 292.60546875 273 C292.21353899 273.6267138 291.82160923 274.2534276 291.41780281 274.89913273 C290 277 290 277 288.46023369 278.70382595 C282.13171657 286.26201531 283.15978471 295.34740838 283.22705078 304.64672852 C283.21887264 306.53967038 283.208066 308.43260243 283.19483948 310.32551575 C283.16647314 315.4448586 283.17473255 320.5635563 283.18970728 325.68293118 C283.19910297 331.04014837 283.17462214 336.39720978 283.15377808 341.75437927 C283.11946597 351.89018913 283.11549623 362.02577328 283.12250316 372.16162962 C283.1302154 385.86434309 283.09090362 399.56691711 283.05426407 413.26957035 C282.99780604 434.84646764 283.00404407 456.4228818 283 478 C250.66 478 218.32 478 185 478 C185.12503906 464.44164062 185.25007812 450.88328125 185.37890625 436.9140625 C185.42020401 428.28244813 185.45714075 419.65117247 185.47460938 411.01953125 C185.50308767 397.34307598 185.54846603 383.66829667 185.7097168 369.99267578 C185.82712546 360.02830924 185.88310639 350.06570611 185.86853737 340.10062826 C185.86289867 334.83435826 185.8858237 329.57206475 185.98260689 324.30659866 C186.41549397 299.53209093 185.61364773 281.77624523 169.01237297 262.41074753 C166.13499301 258.96375399 163.78913431 255.25267864 161.4375 251.4375 C160.57678451 250.099908 159.71378818 248.76377857 158.84765625 247.4296875 C156.68099554 244.06486264 154.52485607 240.69340648 152.37109375 237.3203125 C143.96253451 224.15142375 135.47412432 211.04074 126.91015625 197.97265625 C122.33722895 190.99373685 117.80251218 183.99055045 113.27832031 176.97998047 C111.02175054 173.48479695 108.76055391 169.99260747 106.5 166.5 C105.58331311 165.08334642 104.6666464 163.66667978 103.75 162.25 C103.29625 161.54875 102.8425 160.8475 102.375 160.125 C32.25 51.75 32.25 51.75 30.87548828 49.62573242 C29.957221 48.20660689 29.03892665 46.78749886 28.12060547 45.3684082 C25.85320799 41.86450403 23.58625499 38.36031405 21.3203125 34.85546875 C20.6538269 33.82498413 20.6538269 33.82498413 19.97387695 32.77368164 C19.07864076 31.38910367 18.18394172 30.00417823 17.28979492 28.61889648 C14.68375401 24.58552692 12.05906012 20.56520761 9.41796875 16.5546875 C8.81839355 15.64114502 8.21881836 14.72760254 7.60107422 13.78637695 C6.42545581 11.99599003 5.24619674 10.20798741 4.06298828 8.42260742 C3.53302246 7.61412354 3.00305664 6.80563965 2.45703125 5.97265625 C1.98241455 5.25343994 1.50779785 4.53422363 1.01879883 3.79321289 C0 2 0 2 0 0 Z " fill="#FEFEFE" transform="translate(49,46)"/>
<path d="M0 0 C0.495 0.99 0.495 0.99 1 2 C4.96 2 8.92 2 13 2 C13 6.29 13 10.58 13 15 C16.96 15 20.92 15 25 15 C25 18.96 25 22.92 25 27 C29.29 27 33.58 27 38 27 C38 23.04 38 19.08 38 15 C42.29 15 46.58 15 51 15 C51 18.96 51 22.92 51 27 C51.99 27 52.98 27 54 27 C52.25 31.875 52.25 31.875 50 33 C50 31.35 50 29.7 50 28 C46.04 28 42.08 28 38 28 C38 31.96 38 35.92 38 40 C34.04 40 30.08 40 26 40 C26 43.96 26 47.92 26 52 C29.96 52 33.92 52 38 52 C32.23658836 62.59221599 32.23658836 62.59221599 30 65 C28.68 65 27.36 65 26 65 C26.0825 66.051875 26.165 67.10375 26.25 68.1875 C26 72 26 72 24.5625 74.9375 C20.71096569 78.03751542 17.85303373 77.35684072 13 77 C13 81.62 13 86.24 13 91 C9.37 91 5.74 91 2 91 C2 94.3 2 97.6 2 101 C3.32 101 4.64 101 6 101 C6 106.28 6 111.56 6 117 C5.01 117 4.02 117 3 117 C3 119.64 3 122.28 3 125 C3.99 125 4.98 125 6 125 C6 130.94 6 136.88 6 143 C5.34 143 4.68 143 4 143 C4 144.98 4 146.96 4 149 C4.66 149 5.32 149 6 149 C6 212.69 6 276.38 6 342 C-1.89228598 335.23518344 -1.89228598 335.23518344 -4.98046875 332.3359375 C-5.66375244 331.69454834 -6.34703613 331.05315918 -7.05102539 330.39233398 C-7.75606201 329.72661377 -8.46109863 329.06089355 -9.1875 328.375 C-9.9292749 327.67640869 -10.6710498 326.97781738 -11.43530273 326.25805664 C-16.39214736 321.57108883 -21.24631727 316.79702077 -26.03833008 311.94238281 C-29.14191432 308.81248336 -32.3588299 305.90988992 -35.71875 303.0625 C-39.7224243 299.44273968 -43.47520803 295.5623236 -47.25341797 291.70947266 C-47.83752441 291.1169873 -48.42163086 290.52450195 -49.0234375 289.9140625 C-49.81113525 289.1089624 -49.81113525 289.1089624 -50.61474609 288.28759766 C-51.9910379 286.88723997 -51.9910379 286.88723997 -54 286 C-54 228.58 -54 171.16 -54 112 C-53.34 112 -52.68 112 -52 112 C-52 109.69 -52 107.38 -52 105 C-52.66 105 -53.32 105 -54 105 C-54 99.39 -54 93.78 -54 88 C-53.01 88 -52.02 88 -51 88 C-51.02320313 87.30132812 -51.04640625 86.60265625 -51.0703125 85.8828125 C-51.08835937 84.97273438 -51.10640625 84.06265625 -51.125 83.125 C-51.14820313 82.22007812 -51.17140625 81.31515625 -51.1953125 80.3828125 C-51 78 -51 78 -49 76 C-45.31975395 75.72370525 -41.69505443 75.9140685 -38 76 C-38 72.37 -38 68.74 -38 65 C-38.99 65 -39.98 65 -41 65 C-39.92598892 62.08482708 -39.22189824 60.22189824 -37 58 C-37 60.31 -37 62.62 -37 65 C-33.04 65 -29.08 65 -25 65 C-25 60.71 -25 56.42 -25 52 C-27.64 52 -30.28 52 -33 52 C-30.22002416 46.12969471 -27.0466919 40.86950386 -23.3125 35.5625 C-22.81427734 34.84384766 -22.31605469 34.12519531 -21.80273438 33.38476562 C-18.18174981 28.18174981 -18.18174981 28.18174981 -17 27 C-15.33382885 26.95936168 -13.66611905 26.957279 -12 27 C-12.02320313 26.38511719 -12.04640625 25.77023437 -12.0703125 25.13671875 C-12.08835937 24.32847656 -12.10640625 23.52023437 -12.125 22.6875 C-12.14820313 21.88699219 -12.17140625 21.08648437 -12.1953125 20.26171875 C-12 18 -12 18 -10 15 C-7.6171875 14.70703125 -7.6171875 14.70703125 -4.875 14.8125 C-3.96492188 14.83957031 -3.05484375 14.86664063 -2.1171875 14.89453125 C-1.41851562 14.92933594 -0.71984375 14.96414063 0 15 C-0.08378906 14.00097656 -0.16757812 13.00195312 -0.25390625 11.97265625 C-0.40666016 10.03712891 -0.40666016 10.03712891 -0.5625 8.0625 C-0.71912109 6.13083984 -0.71912109 6.13083984 -0.87890625 4.16015625 C-0.93884766 2.59587891 -0.93884766 2.59587891 -1 1 C-0.67 0.67 -0.34 0.34 0 0 Z " fill="#FDFDFD" transform="translate(399,252)"/>
<path d="M0 0 C1.09957031 -0.00128906 2.19914063 -0.00257812 3.33203125 -0.00390625 C4.46511719 -0.00003906 5.59820312 0.00382812 6.765625 0.0078125 C7.91417969 0.00394531 9.06273437 0.00007813 10.24609375 -0.00390625 C11.34050781 -0.00261719 12.43492187 -0.00132813 13.5625 0 C14.56120117 0.00112793 15.55990234 0.00225586 16.58886719 0.00341797 C19.015625 0.1328125 19.015625 0.1328125 21.015625 1.1328125 C21.015625 1.7928125 21.015625 2.4528125 21.015625 3.1328125 C18.705625 3.4628125 16.395625 3.7928125 14.015625 4.1328125 C14.015625 4.7928125 14.015625 5.4528125 14.015625 6.1328125 C15.10875 6.1534375 16.201875 6.1740625 17.328125 6.1953125 C23.5002488 6.97631938 28.01864258 10.66101347 33.015625 14.1328125 C41.49210599 19.86987447 50.07105082 25.25202105 59.0078125 30.24609375 C63.18473611 32.584786 67.14181175 35.17385169 71.09765625 37.86328125 C72.98351784 39.16707655 72.98351784 39.16707655 75.015625 40.1328125 C75.015625 40.7928125 75.015625 41.4528125 75.015625 42.1328125 C76.04816406 42.27009766 76.04816406 42.27009766 77.1015625 42.41015625 C80.6999079 43.30250732 83.42918211 44.84311463 86.640625 46.6953125 C87.55714844 47.22342529 87.55714844 47.22342529 88.4921875 47.76220703 C93.42982353 50.66178235 98.00853263 53.93349942 102.515625 57.46875 C105.26715053 59.30023418 107.87075287 60.16147388 111.015625 61.1328125 C112.35837669 62.12012992 113.69294773 63.11875993 115.015625 64.1328125 C117.16296427 64.83796096 117.16296427 64.83796096 119.015625 65.1328125 C118.685625 63.8128125 118.355625 62.4928125 118.015625 61.1328125 C119.665625 60.8028125 121.315625 60.4728125 123.015625 60.1328125 C126.015625 63.8828125 126.015625 63.8828125 126.015625 66.1328125 C124.365625 66.1328125 122.715625 66.1328125 121.015625 66.1328125 C124.2664753 69.80768675 128.0592762 72.19547276 132.1875 74.765625 C132.79078125 75.21679688 133.3940625 75.66796875 134.015625 76.1328125 C134.015625 76.7928125 134.015625 77.4528125 134.015625 78.1328125 C134.634375 78.3803125 135.253125 78.6278125 135.890625 78.8828125 C138.41088327 80.36531736 139.02794159 81.41668314 140.015625 84.1328125 C140.015625 85.1228125 140.015625 86.1128125 140.015625 87.1328125 C140.675625 87.1328125 141.335625 87.1328125 142.015625 87.1328125 C142.6446875 88.26976563 143.27375 89.40671875 143.921875 90.578125 C149.21750709 100.13685518 154.56447412 109.66181851 160.015625 119.1328125 C160.675625 119.1328125 161.335625 119.1328125 162.015625 119.1328125 C163.52628182 117.03602084 164.90862877 114.95144034 166.265625 112.7578125 C166.66676514 112.11948486 167.06790527 111.48115723 167.48120117 110.82348633 C168.6665894 108.93099941 169.84147213 107.03228305 171.015625 105.1328125 C171.60472656 104.19566406 172.19382812 103.25851563 172.80078125 102.29296875 C176.97620727 95.53326371 180.15073574 88.53377643 183.015625 81.1328125 C182.025625 81.1328125 181.035625 81.1328125 180.015625 81.1328125 C179.95375 82.2259375 179.891875 83.3190625 179.828125 84.4453125 C179.015625 88.1328125 179.015625 88.1328125 176.453125 90.0703125 C175.64875 90.4209375 174.844375 90.7715625 174.015625 91.1328125 C174.345625 88.8228125 174.675625 86.5128125 175.015625 84.1328125 C176.500625 83.6378125 176.500625 83.6378125 178.015625 83.1328125 C178.79233811 81.43467432 178.79233811 81.43467432 179.265625 79.3203125 C181.45052581 72.09511141 185.3818875 65.40041592 190.109375 59.53515625 C191.84590642 57.34669964 192.94040095 55.47409997 194.078125 52.9453125 C196.54108166 47.8122346 199.49391657 43.07236463 202.515625 38.2578125 C205.67481242 33.22070679 208.48620429 28.43852499 210.515625 22.8203125 C213.68610585 14.55400425 220.28884004 5.93831704 227.890625 1.2578125 C233.24286391 -0.87863214 239.49329323 0.060075 245.015625 1.1328125 C246.005625 1.7928125 246.995625 2.4528125 248.015625 3.1328125 C248.015625 3.7928125 248.015625 4.4528125 248.015625 5.1328125 C298.010625 5.6278125 298.010625 5.6278125 349.015625 6.1328125 C348.685625 4.8128125 348.355625 3.4928125 348.015625 2.1328125 C351.66904894 0.30610053 355.99401659 0.94810528 360.015625 0.9453125 C360.94375 0.93306641 361.871875 0.92082031 362.828125 0.90820312 C364.1584375 0.90530273 364.1584375 0.90530273 365.515625 0.90234375 C366.73765625 0.89618042 366.73765625 0.89618042 367.984375 0.88989258 C370.015625 1.1328125 370.015625 1.1328125 372.015625 3.1328125 C372.015625 3.7928125 372.015625 4.4528125 372.015625 5.1328125 C372.91925781 5.38675781 373.82289063 5.64070313 374.75390625 5.90234375 C375.93339844 6.24652344 377.11289062 6.59070312 378.328125 6.9453125 C380.08576172 7.44998047 380.08576172 7.44998047 381.87890625 7.96484375 C385.89588711 9.46058133 387.36927195 10.7323809 389.140625 14.5703125 C389.88475531 16.74955126 390.51643306 18.88644876 391.015625 21.1328125 C390.025625 20.8028125 389.035625 20.4728125 388.015625 20.1328125 C390.61098722 24.08404781 393.29353563 27.91845409 396.140625 31.6953125 C396.92179688 32.73171875 397.70296875 33.768125 398.5078125 34.8359375 C401.07526221 38.2200267 403.66996779 41.58284514 406.265625 44.9453125 C416.015625 57.59869553 416.015625 57.59869553 416.015625 60.1328125 C417.005625 60.4628125 417.995625 60.7928125 419.015625 61.1328125 C420.04575777 62.78102494 421.04677128 64.44784952 422.015625 66.1328125 C422.675625 66.4628125 423.335625 66.7928125 424.015625 67.1328125 C424.015625 67.7928125 424.015625 68.4528125 424.015625 69.1328125 C425.005625 69.4628125 425.995625 69.7928125 427.015625 70.1328125 C429.58104922 73.55337813 430.57482022 75.88292883 430.015625 80.1328125 C428.15234375 82.8515625 428.15234375 82.8515625 425.703125 85.6328125 C423.32706039 88.35706049 421.17816302 90.85569851 419.34765625 93.9765625 C418.90808594 94.688125 418.46851563 95.3996875 418.015625 96.1328125 C417.355625 96.1328125 416.695625 96.1328125 416.015625 96.1328125 C415.726875 97.0609375 415.438125 97.9890625 415.140625 98.9453125 C414.015625 102.1328125 414.015625 102.1328125 412.015625 105.1328125 C411.355625 105.1328125 410.695625 105.1328125 410.015625 105.1328125 C409.768125 105.8340625 409.520625 106.5353125 409.265625 107.2578125 C407.84653701 110.52171488 406.0102052 113.1835311 404.015625 116.1328125 C402.553078 118.40108994 401.09490147 120.67176527 399.640625 122.9453125 C398.46443927 124.77374888 397.28718775 126.60149592 396.10986328 128.42919922 C395.12414104 129.9638645 394.14560509 131.50313985 393.16796875 133.04296875 C392.64332031 133.85636719 392.11867188 134.66976562 391.578125 135.5078125 C391.12566406 136.21679688 390.67320312 136.92578125 390.20703125 137.65625 C389.61728516 138.38714844 389.61728516 138.38714844 389.015625 139.1328125 C388.355625 139.1328125 387.695625 139.1328125 387.015625 139.1328125 C386.8609375 139.968125 386.8609375 139.968125 386.703125 140.8203125 C385.87384092 143.6097226 384.67263444 145.7467189 383.015625 148.1328125 C382.355625 148.1328125 381.695625 148.1328125 381.015625 148.1328125 C380.90863281 148.70386719 380.80164063 149.27492187 380.69140625 149.86328125 C379.91479302 152.47144475 378.7639684 154.22061671 377.203125 156.4453125 C375.00473683 159.6439152 373.02549858 162.86818487 371.13671875 166.26171875 C369.20223849 169.49034609 366.9855192 172.52172494 364.80859375 175.58984375 C362.13224592 179.38570963 359.57751727 183.25923139 357.015625 187.1328125 C356.01622725 188.63321382 355.01622468 190.13321246 354.015625 191.6328125 C353.52449219 192.37015625 353.03335937 193.1075 352.52734375 193.8671875 C351.49066603 195.4208647 350.45147206 196.97286505 349.41015625 198.5234375 C348.88808594 199.30203125 348.36601562 200.080625 347.828125 200.8828125 C347.33441406 201.61886719 346.84070313 202.35492188 346.33203125 203.11328125 C345.25163581 204.7707425 344.24723211 206.47750006 343.265625 208.1953125 C342.853125 208.8346875 342.440625 209.4740625 342.015625 210.1328125 C341.355625 210.1328125 340.695625 210.1328125 340.015625 210.1328125 C339.9125 210.6896875 339.809375 211.2465625 339.703125 211.8203125 C338.86199337 214.64957343 337.62186885 216.64036514 336.015625 219.1328125 C335.53351563 219.89851562 335.05140625 220.66421875 334.5546875 221.453125 C333.76191406 222.68675781 333.76191406 222.68675781 332.953125 223.9453125 C332.19322266 225.13060547 332.19322266 225.13060547 331.41796875 226.33984375 C330.72380859 227.22736328 330.72380859 227.22736328 330.015625 228.1328125 C329.355625 228.1328125 328.695625 228.1328125 328.015625 228.1328125 C327.9125 228.6690625 327.809375 229.2053125 327.703125 229.7578125 C326.83469803 232.75783294 325.45942204 235.370766 324.015625 238.1328125 C323.355625 238.1328125 322.695625 238.1328125 322.015625 238.1328125 C321.726875 239.0609375 321.438125 239.9890625 321.140625 240.9453125 C320.015625 244.1328125 320.015625 244.1328125 318.015625 247.1328125 C317.355625 247.1328125 316.695625 247.1328125 316.015625 247.1328125 C315.726875 248.0609375 315.438125 248.9890625 315.140625 249.9453125 C314.015625 253.1328125 314.015625 253.1328125 312.015625 256.1328125 C311.355625 256.1328125 310.695625 256.1328125 310.015625 256.1328125 C309.726875 257.0609375 309.438125 257.9890625 309.140625 258.9453125 C308.015625 262.1328125 308.015625 262.1328125 306.015625 265.1328125 C305.355625 265.1328125 304.695625 265.1328125 304.015625 265.1328125 C303.70625 266.339375 303.70625 266.339375 303.390625 267.5703125 C301.85226839 271.55605463 299.78407719 274.68819175 297.35546875 278.1796875 C295.98134423 280.08705199 295.98134423 280.08705199 295.015625 282.1328125 C294.355625 282.1328125 293.695625 282.1328125 293.015625 282.1328125 C292.726875 282.8753125 292.438125 283.6178125 292.140625 284.3828125 C291.19259856 286.70021047 290.16716589 288.91198365 289.015625 291.1328125 C288.355625 291.1328125 287.695625 291.1328125 287.015625 291.1328125 C286.726875 291.8959375 286.438125 292.6590625 286.140625 293.4453125 C285.015625 296.1328125 285.015625 296.1328125 283.015625 299.1328125 C282.355625 299.1328125 281.695625 299.1328125 281.015625 299.1328125 C280.92152344 299.85339844 280.82742188 300.57398438 280.73046875 301.31640625 C279.90223718 304.57954811 278.58019948 306.50229339 276.578125 309.1953125 C274.4354179 312.09847932 272.52451926 314.84964057 271.015625 318.1328125 C270.355625 318.1328125 269.695625 318.1328125 269.015625 318.1328125 C268.726875 318.8753125 268.438125 319.6178125 268.140625 320.3828125 C267.19259856 322.70021047 266.16716589 324.91198365 265.015625 327.1328125 C264.355625 327.1328125 263.695625 327.1328125 263.015625 327.1328125 C262.20901586 342.7295745 261.86628588 358.27840942 261.8828125 373.89453125 C261.88187679 376.16971857 261.88062604 378.44490578 261.87908936 380.72009277 C261.87660856 386.82107324 261.8812116 392.92202943 261.8874588 399.02300644 C261.89064204 402.84074853 261.89134946 406.65848348 261.89129639 410.47622681 C261.89232215 439.82301811 261.99723352 469.16665992 262.29188871 498.51199889 C262.31238453 500.55878128 262.33254875 502.60556669 262.35261917 504.65235329 C262.48118191 517.73371286 262.61861437 530.81488032 262.78816986 543.89578056 C262.84877094 548.69673404 262.90173881 553.49775229 262.95307159 558.29881287 C262.97894685 560.53268503 263.00850537 562.76651786 263.04192352 565.00028992 C263.08724357 568.03817082 263.12051667 571.07595221 263.15087891 574.11401367 C263.16741957 575.00796184 263.18396023 575.90191 263.20100212 576.8229475 C263.21572947 578.9270918 263.12597168 581.03151202 263.015625 583.1328125 C260.40423533 585.74420217 258.57807802 585.37062477 255.02241516 585.38505554 C254.20161972 585.37787003 253.38082428 585.37068451 252.53515625 585.36328125 C251.26583504 585.36259392 251.26583504 585.36259392 249.97087097 585.3618927 C248.17612308 585.35886764 246.38137787 585.35097379 244.58666992 585.33862305 C241.85651191 585.32050093 239.12669594 585.3181125 236.39648438 585.31835938 C234.65103877 585.31343867 232.90559544 585.30760796 231.16015625 585.30078125 C230.34948196 585.29966843 229.53880768 585.2985556 228.7035675 585.29740906 C225.2681774 585.26908576 222.0313114 585.1351362 218.62548828 584.63061523 C213.77531848 583.96177334 209.00330965 583.98998848 204.11328125 584 C203.07674911 583.99904327 202.04021698 583.99808655 200.97227478 583.99710083 C198.78791238 583.99642266 196.60354794 583.99825156 194.41918945 584.00244141 C191.09256417 584.00778929 187.76607422 584.00248684 184.43945312 583.99609375 C182.30989554 583.9967547 180.18033803 583.99803622 178.05078125 584 C177.06408951 583.99797577 176.07739777 583.99595154 175.06080627 583.99386597 C169.610056 584.01218723 164.41299635 584.38951366 159.015625 585.1328125 C155.11988438 585.34631319 151.22924315 585.36284516 147.328125 585.3828125 C145.79961914 585.41375 145.79961914 585.41375 144.24023438 585.4453125 C138.91331741 585.47318388 135.41468582 585.44484671 131.015625 582.1328125 C128.69174553 581.73893462 126.35768751 581.39795165 124.015625 581.1328125 C123.355625 580.8028125 122.695625 580.4728125 122.015625 580.1328125 C121.390625 577.0703125 121.390625 577.0703125 121.015625 574.1328125 C120.355625 574.1328125 119.695625 574.1328125 119.015625 574.1328125 C118.6134375 572.67875 118.6134375 572.67875 118.203125 571.1953125 C117.81125 570.1846875 117.419375 569.1740625 117.015625 568.1328125 C116.025625 567.8028125 115.035625 567.4728125 114.015625 567.1328125 C113.025625 565.6478125 113.025625 565.6478125 112.015625 564.1328125 C109.95637361 563.40898783 109.95637361 563.40898783 108.015625 563.1328125 C107.685625 561.4828125 107.355625 559.8328125 107.015625 558.1328125 C105.695625 558.1328125 104.375625 558.1328125 103.015625 558.1328125 C102.685625 557.4728125 102.355625 556.8128125 102.015625 556.1328125 C100.8090625 555.483125 100.8090625 555.483125 99.578125 554.8203125 C96.45107988 552.76103888 96.38392602 551.55356506 95.015625 548.1328125 C93.24275701 545.97886074 91.38372661 543.93794952 89.4765625 541.90234375 C88.015625 540.1328125 88.015625 540.1328125 88.015625 538.1328125 C87.108125 537.9059375 86.200625 537.6790625 85.265625 537.4453125 C80.75269211 535.62278191 78.94987082 532.95459185 76.765625 528.6953125 C72.92717252 523.07472137 66.52079444 519.68750928 60.6796875 516.40625 C58.62358513 514.83280077 58.01119544 513.51333915 57.015625 511.1328125 C56.75683594 509.08984375 56.75683594 509.08984375 56.75 506.9453125 C56.74742187 506.16414063 56.74484375 505.38296875 56.7421875 504.578125 C56.74992188 503.77117187 56.75765625 502.96421875 56.765625 502.1328125 C56.75789062 501.32585937 56.75015625 500.51890625 56.7421875 499.6875 C56.74476563 498.90632813 56.74734375 498.12515625 56.75 497.3203125 C56.75225586 496.61261719 56.75451172 495.90492188 56.75683594 495.17578125 C57.05487734 492.8229412 57.85459898 491.18507299 59.015625 489.1328125 C59.675625 489.1328125 60.335625 489.1328125 61.015625 489.1328125 C60.93082247 479.05688809 60.83578874 468.98111516 60.72809792 458.90540791 C60.67839245 454.22562368 60.63206263 449.54585926 60.59375 444.8659668 C60.5565688 440.34006612 60.51012528 435.81434242 60.45756149 431.2885952 C60.43919028 429.57168912 60.42402042 427.85474537 60.41228104 426.13778114 C60.34993308 417.32507406 60.00560542 408.90519364 58.48425293 400.19996643 C57.65325383 394.76110547 57.56325368 389.30147521 57.41796875 383.80859375 C57.37877823 382.58230759 57.33958771 381.35602142 57.29920959 380.09257507 C57.17641822 376.21034091 57.06424965 372.32789648 56.953125 368.4453125 C56.38912659 348.580443 56.38912659 348.580443 55.5390625 328.7265625 C55.48944618 327.69315483 55.48944618 327.69315483 55.43882751 326.63887024 C54.95109756 318.00477597 53.68780022 310.78294897 48.015625 304.1328125 C47.765625 300.8203125 47.765625 300.8203125 48.015625 298.1328125 C47.355625 298.1328125 46.695625 298.1328125 46.015625 298.1328125 C45.5825 297.1634375 45.149375 296.1940625 44.703125 295.1953125 C43.3141389 291.85549485 43.3141389 291.85549485 40.015625 291.1328125 C37.47467523 287.65572334 38.015625 284.29233596 38.015625 280.1328125 C37.47543689 277.32108377 37.47543689 277.32108377 36.015625 275.1328125 C34.778125 274.66875 34.778125 274.66875 33.515625 274.1953125 C32.690625 273.8446875 31.865625 273.4940625 31.015625 273.1328125 C30.28868596 271.15392289 29.61746249 269.15326692 29.015625 267.1328125 C28.025625 266.8028125 27.035625 266.4728125 26.015625 266.1328125 C25.685625 265.4728125 25.355625 264.8128125 25.015625 264.1328125 C24.025625 263.8028125 23.035625 263.4728125 22.015625 263.1328125 C19.18612779 259.22021399 17.06393095 254.8786766 15.890625 250.1953125 C15.29222485 246.84946632 15.29222485 246.84946632 12.015625 245.1328125 C12.015625 243.8128125 12.015625 242.4928125 12.015625 241.1328125 C10.8709375 240.7615625 10.8709375 240.7615625 9.703125 240.3828125 C6.75481555 239.01150578 5.65727968 237.8977046 4.015625 235.1328125 C4.015625 234.4728125 4.015625 233.8128125 4.015625 233.1328125 C3.355625 233.1328125 2.695625 233.1328125 2.015625 233.1328125 C1.685625 230.8228125 1.355625 228.5128125 1.015625 226.1328125 C0.355625 226.1328125 -0.304375 226.1328125 -0.984375 226.1328125 C-0.984375 225.4728125 -0.984375 224.8128125 -0.984375 224.1328125 C-1.644375 224.1328125 -2.304375 224.1328125 -2.984375 224.1328125 C-2.860625 223.0190625 -2.736875 221.9053125 -2.609375 220.7578125 C-2.58885449 215.00180984 -5.54343361 210.57604645 -8.984375 206.1328125 C-10.31317113 205.12679132 -11.64547403 204.12534561 -12.984375 203.1328125 C-12.984375 202.4728125 -12.984375 201.8128125 -12.984375 201.1328125 C-14.304375 201.1328125 -15.624375 201.1328125 -16.984375 201.1328125 C-16.88125 200.3696875 -16.778125 199.6065625 -16.671875 198.8203125 C-16.775 197.9334375 -16.878125 197.0465625 -16.984375 196.1328125 C-18.63970123 195.11415021 -20.30697638 194.11470437 -21.984375 193.1328125 C-22.796875 190.4453125 -22.796875 190.4453125 -22.984375 188.1328125 C-24.304375 187.8028125 -25.624375 187.4728125 -26.984375 187.1328125 C-27.14873047 186.08480469 -27.14873047 186.08480469 -27.31640625 185.015625 C-27.47496094 184.10554687 -27.63351563 183.19546875 -27.796875 182.2578125 C-28.02310547 180.90042969 -28.02310547 180.90042969 -28.25390625 179.515625 C-28.81488801 176.78868772 -28.81488801 176.78868772 -31.984375 175.1328125 C-31.984375 174.4728125 -31.984375 173.8128125 -31.984375 173.1328125 C-32.7475 173.0915625 -33.510625 173.0503125 -34.296875 173.0078125 C-36.984375 172.1328125 -36.984375 172.1328125 -38.671875 169.6953125 C-39.74452589 166.78383152 -40.2732691 164.52198898 -40.734375 161.5078125 C-41.98865611 154.39301106 -45.87069043 147.24649707 -50.984375 142.1328125 C-53.05311534 141.490289 -53.05311534 141.490289 -54.984375 141.1328125 C-55.149375 139.8334375 -55.314375 138.5340625 -55.484375 137.1953125 C-56.62813781 131.8855815 -59.39543023 129.01817866 -63.10546875 125.1953125 C-64.984375 123.1328125 -64.984375 123.1328125 -66.484375 119.9453125 C-68.41133277 116.33226668 -70.94445858 114.88087365 -74.25390625 112.578125 C-75.984375 111.1328125 -75.984375 111.1328125 -76.796875 108.4453125 C-76.85875 107.6821875 -76.920625 106.9190625 -76.984375 106.1328125 C-77.479375 105.6790625 -77.974375 105.2253125 -78.484375 104.7578125 C-80.81412122 102.23392076 -80.62746123 99.46400773 -80.984375 96.1328125 C-81.314375 95.1428125 -81.644375 94.1528125 -81.984375 93.1328125 C-82.644375 93.1328125 -83.304375 93.1328125 -83.984375 93.1328125 C-84.231875 92.4934375 -84.479375 91.8540625 -84.734375 91.1953125 C-85.78125794 88.93386243 -85.78125794 88.93386243 -88.046875 88.5703125 C-88.68625 88.4259375 -89.325625 88.2815625 -89.984375 88.1328125 C-90.314375 87.1428125 -90.644375 86.1528125 -90.984375 85.1328125 C-91.95890625 84.66875 -91.95890625 84.66875 -92.953125 84.1953125 C-94.984375 83.1328125 -94.984375 83.1328125 -95.890625 81.3203125 C-96.0865625 80.5984375 -96.2825 79.8765625 -96.484375 79.1328125 C-98.01173207 73.98628325 -99.8837824 69.07180915 -101.984375 64.1328125 C-102.355625 63.2046875 -102.726875 62.2765625 -103.109375 61.3203125 C-105.29719036 58.76786125 -107.03536402 58.17966088 -110.109375 56.8828125 C-112.8125 55.66015625 -112.8125 55.66015625 -114.984375 54.1328125 C-115.80001145 51.63817973 -115.8757651 49.7321393 -115.7265625 47.12109375 C-115.81164062 46.46496094 -115.89671875 45.80882812 -115.984375 45.1328125 C-117.83611296 43.97497558 -117.83611296 43.97497558 -119.984375 43.1328125 C-123.52619466 39.3318353 -125.69610571 35.81336333 -127.984375 31.1328125 C-128.44457031 30.689375 -128.90476563 30.2459375 -129.37890625 29.7890625 C-133.7407041 25.28930024 -138.00455589 17.29167548 -138.984375 11.1328125 C-137.75664914 7.44963491 -136.7366995 4.885137 -133.984375 2.1328125 C-126.45664537 0.30612273 -117.82822656 0.92110764 -110.75952148 4.14868164 C-107.40677545 5.3376426 -104.59673046 5.45615377 -101.0390625 5.546875 C-99.99053352 5.5759922 -99.99053352 5.5759922 -98.92082214 5.60569763 C-96.56713131 5.66693661 -94.21343138 5.71294731 -91.859375 5.7578125 C-90.63563675 5.7858345 -90.63563675 5.7858345 -89.38717651 5.81442261 C-62.92869657 6.42027914 -36.44774299 6.22286632 -9.984375 6.1328125 C-9.984375 5.4728125 -9.984375 4.8128125 -9.984375 4.1328125 C-11.634375 3.8028125 -13.284375 3.4728125 -14.984375 3.1328125 C-10.2809164 -0.00282657 -5.53992012 0.00622863 0 0 Z M-128.984375 11.1328125 C-128.8638591 15.35086897 -126.86513159 17.89034414 -124.37890625 21.171875 C-122.40655895 23.94531574 -120.86507357 26.90822078 -119.29296875 29.921875 C-118.01392581 32.2072643 -118.01392581 32.2072643 -116.1953125 34.33203125 C-113.19473986 38.13311002 -110.72081987 42.2076988 -108.171875 46.3203125 C-104.42569155 52.31636226 -100.61300812 58.20832468 -96.48828125 63.953125 C-94.89100036 66.2681451 -93.46529664 68.64197465 -92.046875 71.0703125 C-89.86898538 74.78553596 -87.49192213 78.23970606 -84.921875 81.6953125 C-81.96136714 85.68580693 -79.45540685 89.69057378 -77.13671875 94.078125 C-76.00266728 96.10019644 -74.74791828 97.90367459 -73.359375 99.7578125 C-70.92764954 103.03335437 -69.45705785 106.33484094 -67.984375 110.1328125 C-67.324375 110.1328125 -66.664375 110.1328125 -65.984375 110.1328125 C-65.75105469 110.82117188 -65.51773438 111.50953125 -65.27734375 112.21875 C-63.71296202 115.74451667 -61.58245166 118.67917648 -59.296875 121.7578125 C-53.79826165 129.30998153 -48.77364095 137.07323303 -44.046875 145.1328125 C-41.26287021 149.82244624 -38.09995842 154.16472242 -34.859375 158.546875 C-32.8526565 161.31447427 -31.02602347 164.13999517 -29.25 167.05859375 C-27.7589462 169.50226525 -26.21617772 171.90994812 -24.671875 174.3203125 C-22.07097458 178.39055277 -19.54710547 182.50007861 -17.046875 186.6328125 C-14.484784 190.82532504 -11.80165839 194.82355928 -8.859375 198.7578125 C-6.25642225 202.25031804 -4.05392413 205.70549888 -2.046875 209.5703125 C0.13806208 213.75562794 2.62815333 217.39693513 5.515625 221.1328125 C9.12196197 225.79983681 12.02359444 230.50985151 14.75 235.73046875 C16.91788638 239.84543826 19.41087553 243.43502465 22.453125 246.9453125 C25.00925547 249.9442984 26.77999751 253.18136782 28.63671875 256.64453125 C31.20514418 261.2793386 34.12535565 265.69418457 37.015625 270.1328125 C37.510625 270.8959375 38.005625 271.6590625 38.515625 272.4453125 C41.89410835 277.58648282 45.48904317 282.53825089 49.18359375 287.45703125 C51.09353444 290.24660347 52.52852584 293.10110206 54.015625 296.1328125 C54.79423089 297.30194172 55.60276022 298.45229192 56.453125 299.5703125 C61.15479362 305.7616187 63.62026062 310.41794384 63.51441956 318.28575134 C63.52249639 319.47456975 63.52249639 319.47456975 63.53073639 320.68740469 C63.5439518 323.32830002 63.52889268 325.96825656 63.51391602 328.60913086 C63.51774114 330.5084933 63.52336184 332.40785285 63.53063965 334.3072052 C63.54257672 338.39035766 63.54211127 342.4732529 63.53204536 346.55640984 C63.51646745 353.01561082 63.53017466 359.47454829 63.54808044 365.93373108 C63.57888575 378.48018783 63.58040221 391.02656387 63.57843018 403.57305145 C63.57703692 419.53953813 63.5874031 435.50596268 63.6270079 451.47240359 C63.64192924 457.89044999 63.64168048 464.30826259 63.62953007 470.72631252 C63.62481382 474.72228447 63.63234718 478.71816724 63.64307404 482.71412468 C63.64547678 484.5635993 63.64275684 486.41308894 63.63446617 488.26254654 C63.62380377 490.79289564 63.63162755 493.32256236 63.64381409 495.85289001 C63.63623803 496.57965641 63.62866198 497.30642281 63.62085634 498.05521244 C63.68524767 504.38762776 65.00331723 509.96122606 69.42245483 514.73014832 C70.27820099 515.5230275 71.13394714 516.31590668 72.015625 517.1328125 C73.56278478 519.26117778 75.04769359 521.3893536 76.50634766 523.57543945 C92.06981483 546.26257339 114.510212 577.2918778 143.14310837 582.78159142 C159.83650378 585.10983479 176.85376752 584.28065691 193.63368712 583.41517271 C200.78247845 583.05309243 207.93254977 582.88485677 215.08830445 582.72744175 C229.74008069 582.40105235 244.37752223 581.8482732 259.015625 581.1328125 C258.99773391 579.86910009 258.97984282 578.60538769 258.96140957 577.30338097 C258.53985577 547.12361546 258.25146173 516.94565647 258.12117403 486.76336291 C258.10493183 483.02697035 258.08759492 479.29058363 258.06958008 475.55419922 C258.06601293 474.81053209 258.06244579 474.06686497 258.05877054 473.30066247 C257.99884747 461.34898989 257.85079979 449.4000192 257.66861051 437.44965594 C257.48287949 425.13441458 257.39548576 412.82113055 257.39437968 400.50448 C257.39107065 393.60701212 257.34573135 386.71572249 257.18717766 379.81992722 C256.42011925 345.27552557 259.38444899 321.74409042 282.00935555 294.80540848 C286.41625551 289.52631308 290.05661166 283.7889907 293.765625 278.0078125 C295.17916346 275.87451305 296.60493087 273.74980538 298.03125 271.625 C304.57165225 261.82450642 311.03664587 251.97395327 317.515625 242.1328125 C325.99057123 229.26017404 334.48277295 216.40074291 343.05078125 203.58984375 C350.2550385 192.80335914 357.38289376 181.96667691 364.515625 171.1328125 C372.31948115 159.27958032 380.12847625 147.4308187 388.015625 135.6328125 C389.73779246 133.04755756 391.45967505 130.46211335 393.18122864 127.87644958 C395.64697005 124.17658566 398.1226992 120.4835596 400.60302734 116.79345703 C403.97114042 111.7812339 407.32564805 106.76009478 410.67358398 101.734375 C412.02092629 99.71684619 413.37278277 97.70232437 414.72924805 95.69091797 C416.63206299 92.86802196 418.5188087 90.0350023 420.40234375 87.19921875 C420.98465256 86.34320572 421.56696136 85.48719269 422.16691589 84.60523987 C422.69021988 83.81068893 423.21352386 83.016138 423.75268555 82.19750977 C424.44735176 81.16050682 424.44735176 81.16050682 425.15605164 80.10255432 C426.22538326 77.65214426 425.95767089 76.59252039 425.015625 74.1328125 C423.91099767 72.30967002 423.91099767 72.30967002 422.49609375 70.55078125 C421.97466797 69.87402344 421.45324219 69.19726562 420.91601562 68.5 C420.35076172 67.78070313 419.78550781 67.06140625 419.203125 66.3203125 C418.32624023 65.18916016 418.32624023 65.18916016 417.43164062 64.03515625 C413.18935204 58.58013144 408.87610083 53.18237715 404.54003906 47.80175781 C400.77073178 43.11298672 397.09740948 38.35673102 393.453125 33.5703125 C389.28252597 28.09882131 385.11176203 22.62797344 380.890625 17.1953125 C380.44130615 16.60999756 379.9919873 16.02468262 379.52905273 15.42163086 C377.48200985 12.79904145 375.8135648 10.9981057 373.015625 9.1328125 C370.40232757 8.8277694 370.40232757 8.8277694 367.41152954 8.87211609 C366.24506393 8.86503128 365.07859833 8.85794647 363.87678528 8.85064697 C362.59567368 8.85312439 361.31456207 8.85560181 359.99462891 8.8581543 C358.63285543 8.85380743 357.2710844 8.84862437 355.90931702 8.84266663 C352.20883624 8.82926115 348.5084575 8.82869976 344.80795717 8.83122993 C341.71900654 8.83229879 338.63007662 8.82741833 335.54113042 8.8226245 C328.2529905 8.81152353 320.96490211 8.81109493 313.67675781 8.81713867 C306.15874889 8.82317722 298.64092718 8.8108719 291.1229502 8.7895686 C284.6685004 8.77195162 278.21411019 8.76595147 271.75963724 8.76920635 C267.904644 8.77101952 264.04978424 8.7683799 260.19481277 8.75449181 C256.56847112 8.74191676 252.94242108 8.74385428 249.31608391 8.75690269 C247.3525555 8.76039637 245.3890182 8.74908752 243.42552185 8.73733521 C242.2534166 8.74434952 241.08131134 8.75136383 239.87368774 8.7585907 C238.85715937 8.75842296 237.84063099 8.75825521 236.79329872 8.75808239 C233.52841945 9.19854037 231.6486652 10.17758773 229.015625 12.1328125 C228.29403076 13.77644384 227.62211079 15.44331636 227.015625 17.1328125 C225.530625 18.1228125 225.530625 18.1228125 224.015625 19.1328125 C223.33215818 20.79266048 222.66974185 22.46118055 222.015625 24.1328125 C221.31702547 25.31067159 220.59248742 26.47329535 219.8515625 27.625 C216.62044366 32.72474573 213.57230727 37.92723295 210.515625 43.1328125 C207.10366922 48.94342861 203.69688915 54.7378497 200.0090332 60.37890625 C198.42131289 63.18209689 197.73272746 66.00363811 197.015625 69.1328125 C196.355625 69.1328125 195.695625 69.1328125 195.015625 69.1328125 C193.50142411 71.37685821 192.11897423 73.6063598 190.765625 75.9453125 C190.36085938 76.63165771 189.95609375 77.31800293 189.5390625 78.02514648 C187.28278907 81.87347591 185.1138551 85.75818412 183.015625 89.6953125 C177.87104272 99.27193105 171.71887855 108.29253859 165.42578125 117.14453125 C164.26056816 118.78744944 163.13288838 120.45691744 162.015625 122.1328125 C160.530625 122.6278125 160.530625 122.6278125 159.015625 123.1328125 C158.76127686 122.44147217 158.50692871 121.75013184 158.24487305 121.0378418 C156.84766608 117.73588238 155.15623121 114.74867197 153.34765625 111.65234375 C152.9897551 111.03944992 152.63185394 110.42655609 152.2631073 109.79508972 C151.50582962 108.50064443 150.74678591 107.20723087 149.98608398 105.91479492 C148.84373644 103.97186478 147.70960427 102.02431281 146.57617188 100.07617188 C137.40847285 84.10820104 137.40847285 84.10820104 123.015625 73.1328125 C120.51979955 71.68118039 118.04934412 70.18835366 115.578125 68.6953125 C114.93182129 68.30794922 114.28551758 67.92058594 113.61962891 67.52148438 C108.94750543 64.71703195 104.34060201 61.82118664 99.75390625 58.87890625 C92.51793277 54.26481189 85.19920584 49.79605354 77.765625 45.5078125 C73.60599641 43.09761104 69.59428278 40.56047496 65.6171875 37.86328125 C56.80220463 31.99986171 47.81695384 26.45338599 38.4609375 21.49609375 C36.0239649 20.13746206 33.7507978 18.65146364 31.453125 17.0703125 C21.68035903 10.50918761 14.5740004 8.39864589 2.69335938 8.53344727 C1.27642386 8.53157975 -0.14051019 8.52753566 -1.55743408 8.52149963 C-5.37532306 8.51159015 -9.19246042 8.53258008 -13.01024055 8.55997968 C-17.01311837 8.58392424 -21.01598423 8.58086554 -25.0189209 8.58128357 C-31.73019036 8.58589874 -38.44117442 8.60946466 -45.15234375 8.64575195 C-52.9153593 8.68761425 -60.67811886 8.70507533 -68.44124079 8.7083717 C-76.71395234 8.71196616 -84.98657176 8.73081858 -93.25924492 8.75549197 C-95.64294853 8.76172483 -98.02664514 8.7653582 -100.41035461 8.76852608 C-104.1467518 8.77441277 -107.88296513 8.7906866 -111.61928558 8.81513023 C-112.99233836 8.82258746 -114.3654143 8.82664327 -115.73848724 8.82711029 C-117.60714078 8.82836246 -119.47577096 8.84312416 -121.34436035 8.85865784 C-122.3914341 8.86330834 -123.43850784 8.86795885 -124.5173111 8.87275028 C-127.16082482 8.88987396 -127.16082482 8.88987396 -128.984375 11.1328125 Z M207.015625 39.1328125 C205.695625 41.4428125 204.375625 43.7528125 203.015625 46.1328125 C206.00886763 45.0352902 206.86173401 44.45598358 208.265625 41.5078125 C208.513125 40.7240625 208.760625 39.9403125 209.015625 39.1328125 C208.355625 39.1328125 207.695625 39.1328125 207.015625 39.1328125 Z " fill="#F6F6F6" transform="translate(158.984375,25.8671875)"/>
<path d="M0 0 C6.72733473 3.07258077 12.98334783 6.77470206 19.22119141 10.72558594 C25.06557535 14.42645182 30.96022548 18.0378128 36.875 21.625 C48.67366422 28.79207987 60.44703621 35.99783854 72.18212891 43.26855469 C74.62262491 44.76812128 77.07652979 46.23902496 79.54296875 47.6953125 C80.77874832 48.44253886 82.01443655 49.18991634 83.25 49.9375 C84.24515625 50.52402344 85.2403125 51.11054687 86.265625 51.71484375 C94.4073151 58.51897048 99.28586466 70.11199275 104.625 79.1875 C105.89760094 81.34855239 107.17097683 83.50913382 108.44638062 85.66853333 C109.23390755 87.00207512 110.01984461 88.33655766 110.80386353 89.67216492 C111.16458954 90.28332657 111.52531555 90.89448822 111.89697266 91.52416992 C112.24060852 92.1111264 112.58424438 92.69808289 112.93829346 93.30282593 C113.98969507 94.98352723 115.19383021 96.56545761 116.39599609 98.1418457 C118 101 118 101 117.47485352 103.49462891 C116.98815186 104.32140137 116.5014502 105.14817383 116 106 C115.45722412 106.95696777 114.91444824 107.91393555 114.35522461 108.89990234 C113.71077393 109.95129395 113.06632324 111.00268555 112.40234375 112.0859375 C111.87634583 112.94794266 111.87634583 112.94794266 111.33972168 113.82736206 C110.20908688 115.67870321 109.07331226 117.52683172 107.9375 119.375 C107.16306953 120.64134278 106.38906303 121.90794495 105.61547852 123.17480469 C104.46847988 125.05302461 103.32121336 126.93107406 102.17247009 128.80822754 C99.2357279 133.60726549 96.3252623 138.42136293 93.4375 143.25 C93.07454834 143.85634277 92.71159668 144.46268555 92.33764648 145.08740234 C91.55771016 146.39117062 90.778708 147.69549771 90 149 C86.21157305 147.73719102 85.93360701 146.62879968 84.0234375 143.19921875 C83.44384277 142.17344727 82.86424805 141.14767578 82.26708984 140.09082031 C81.6427002 138.96772461 81.01831055 137.84462891 80.375 136.6875 C79.02654844 134.29752336 77.67007729 131.91214621 76.3125 129.52734375 C75.96134125 128.90908722 75.6101825 128.29083069 75.24838257 127.65383911 C71.42134834 120.9394147 67.40752799 114.34233338 63.375 107.75 C61.93147301 105.38591565 60.48891092 103.02124413 59.046875 100.65625 C58.69848572 100.08499893 58.35009644 99.51374786 57.9911499 98.92518616 C53.1921357 91.0456623 48.52821345 83.08676374 43.84912109 75.13574219 C34.78653417 59.76739435 25.67232438 44.42809677 16.5 29.125 C15.80716919 27.96871094 15.80716919 27.96871094 15.1003418 26.7890625 C12.70151177 22.79658615 10.27769041 18.82094433 7.828125 14.859375 C7.0537207 13.60423096 7.0537207 13.60423096 6.26367188 12.32373047 C5.27953141 10.73164517 4.29145853 9.14198166 3.29882812 7.55517578 C0 2.22092659 0 2.22092659 0 0 Z " fill="#FCFCFC" transform="translate(194,60)"/>
<path d="M0 0 C0.495 0.99 0.495 0.99 1 2 C4.96 2 8.92 2 13 2 C13 6.29 13 10.58 13 15 C16.96 15 20.92 15 25 15 C25 18.96 25 22.92 25 27 C29.29 27 33.58 27 38 27 C38 23.04 38 19.08 38 15 C42.29 15 46.58 15 51 15 C51 18.96 51 22.92 51 27 C51.99 27 52.98 27 54 27 C52.25 31.875 52.25 31.875 50 33 C50 31.35 50 29.7 50 28 C46.04 28 42.08 28 38 28 C38 31.96 38 35.92 38 40 C34.04 40 30.08 40 26 40 C26 43.96 26 47.92 26 52 C29.96 52 33.92 52 38 52 C32.23658836 62.59221599 32.23658836 62.59221599 30 65 C28.68 65 27.36 65 26 65 C26.0825 66.051875 26.165 67.10375 26.25 68.1875 C26 72 26 72 24.65625 74.71875 C20.53132147 78.26133568 16.49534816 77.53949576 11.25 77.3125 C9.77466797 77.27866211 9.77466797 77.27866211 8.26953125 77.24414062 C5.84570187 77.18530981 3.42265652 77.09563118 1 77 C1 73.04 1 69.08 1 65 C4.96 65 8.92 65 13 65 C13 60.71 13 56.42 13 52 C9.04 52 5.08 52 1 52 C1 48.04 1 44.08 1 40 C4.96 40 8.92 40 13 40 C13 35.71 13 31.42 13 27 C8.71 27 4.42 27 0 27 C0 31.29 0 35.58 0 40 C-3.96 40 -7.92 40 -12 40 C-12 43.96 -12 47.92 -12 52 C-15.96 52 -19.92 52 -24 52 C-24 56.29 -24 60.58 -24 65 C-24.33 65 -24.66 65 -25 65 C-25 60.71 -25 56.42 -25 52 C-27.64 52 -30.28 52 -33 52 C-30.22002416 46.12969471 -27.0466919 40.86950386 -23.3125 35.5625 C-22.81427734 34.84384766 -22.31605469 34.12519531 -21.80273438 33.38476562 C-18.18174981 28.18174981 -18.18174981 28.18174981 -17 27 C-15.33382885 26.95936168 -13.66611905 26.957279 -12 27 C-12.02320313 26.38511719 -12.04640625 25.77023437 -12.0703125 25.13671875 C-12.09738281 23.92435547 -12.09738281 23.92435547 -12.125 22.6875 C-12.14820313 21.88699219 -12.17140625 21.08648437 -12.1953125 20.26171875 C-12 18 -12 18 -10 15 C-7.6171875 14.70703125 -7.6171875 14.70703125 -4.875 14.8125 C-3.96492188 14.83957031 -3.05484375 14.86664063 -2.1171875 14.89453125 C-1.41851562 14.92933594 -0.71984375 14.96414063 0 15 C-0.08378906 14.00097656 -0.16757812 13.00195312 -0.25390625 11.97265625 C-0.40666016 10.03712891 -0.40666016 10.03712891 -0.5625 8.0625 C-0.71912109 6.13083984 -0.71912109 6.13083984 -0.87890625 4.16015625 C-0.93884766 2.59587891 -0.93884766 2.59587891 -1 1 C-0.67 0.67 -0.34 0.34 0 0 Z " fill="#E1E1E1" transform="translate(399,252)"/>
<path d="M0 0 C7.98634493 2.83386433 14.92570408 7.50159829 21.73828125 12.44921875 C23.7725881 13.84407163 25.76694856 14.96267862 28 16 C28 16.66 28 17.32 28 18 C28.68835938 18.09152344 29.37671875 18.18304688 30.0859375 18.27734375 C33.6842829 19.16969482 36.41355711 20.71030213 39.625 22.5625 C40.23601562 22.9145752 40.84703125 23.26665039 41.4765625 23.62939453 C46.41419853 26.52896985 50.99290763 29.80068692 55.5 33.3359375 C58.25152553 35.16742168 60.85512787 36.02866138 64 37 C65.34275169 37.98731742 66.67732273 38.98594743 68 40 C70.14733927 40.70514846 70.14733927 40.70514846 72 41 C71.505 39.02 71.505 39.02 71 37 C72.65 36.67 74.3 36.34 76 36 C79 39.75 79 39.75 79 42 C77.35 42 75.7 42 74 42 C77.2508503 45.67487425 81.0436512 48.06266026 85.171875 50.6328125 C85.77515625 51.08398438 86.3784375 51.53515625 87 52 C87 52.66 87 53.32 87 54 C87.928125 54.37125 87.928125 54.37125 88.875 54.75 C91.39525827 56.23250486 92.01231659 57.28387064 93 60 C93 60.99 93 61.98 93 63 C93.66 63 94.32 63 95 63 C95.94359375 64.70542969 95.94359375 64.70542969 96.90625 66.4453125 C102.20188209 76.00404268 107.54884912 85.52900601 113 95 C113.66 95 114.32 95 115 95 C116.56600788 92.77727913 118.0170467 90.56311296 119.4375 88.25 C125.02645783 79.27849183 125.02645783 79.27849183 127 77 C127.66 77 128.32 77 129 77 C127.50270432 81.33001725 125.20006552 84.85968184 122.5625 88.5625 C121.96985352 89.40844727 121.96985352 89.40844727 121.36523438 90.27148438 C120.25271748 91.85418312 119.12673487 93.42739144 118 95 C117.47277344 95.79277344 116.94554687 96.58554688 116.40234375 97.40234375 C115.93957031 97.92957031 115.47679687 98.45679688 115 99 C114.01 99 113.02 99 112 99 C110.24169922 96.56005859 110.24169922 96.56005859 108.3046875 93.1484375 C107.95294464 92.53795563 107.60120178 91.92747375 107.23880005 91.29849243 C106.10686871 89.32987953 104.9903137 87.35306717 103.875 85.375 C99.44630976 77.59327116 94.99679609 69.82980415 90.234375 62.24609375 C89.70020462 61.37535721 89.70020462 61.37535721 89.15524292 60.48703003 C85.69307873 55.05796336 81.63175172 52.78130167 76 50 C73.49601749 48.56167737 71.03056441 47.06140973 68.5625 45.5625 C67.91603516 45.17481445 67.26957031 44.78712891 66.60351562 44.38769531 C61.93091928 41.58460901 57.32471397 38.68820541 52.73828125 35.74609375 C45.50230777 31.13199939 38.18358084 26.66324104 30.75 22.375 C26.60211559 19.97160343 22.59561505 17.45443426 18.64453125 14.7421875 C16.41731159 13.27492019 14.17114171 11.88268241 11.88671875 10.5078125 C11.15549805 10.0641333 10.42427734 9.6204541 9.67089844 9.16333008 C8.1963972 8.27150505 6.71662969 7.38832255 5.23144531 6.5144043 C3.43633158 5.42316861 1.71059951 4.21945805 0 3 C0 2.01 0 1.02 0 0 Z " fill="#F1F1F1" transform="translate(206,50)"/>
<path d="M0 0 C1.58206057 0.00667536 3.16410534 0.0186375 4.74609375 0.03515625 C5.55240234 0.03966797 6.35871094 0.04417969 7.18945312 0.04882812 C9.18753131 0.06065107 11.18557158 0.07858711 13.18359375 0.09765625 C13.18359375 4.38765625 13.18359375 8.67765625 13.18359375 13.09765625 C9.22359375 13.09765625 5.26359375 13.09765625 1.18359375 13.09765625 C1.18359375 17.05765625 1.18359375 21.01765625 1.18359375 25.09765625 C-2.77640625 25.09765625 -6.73640625 25.09765625 -10.81640625 25.09765625 C-10.81640625 29.38765625 -10.81640625 33.67765625 -10.81640625 38.09765625 C-11.14640625 38.09765625 -11.47640625 38.09765625 -11.81640625 38.09765625 C-11.81640625 33.80765625 -11.81640625 29.51765625 -11.81640625 25.09765625 C-14.45640625 25.09765625 -17.09640625 25.09765625 -19.81640625 25.09765625 C-17.03643041 19.22735096 -13.86309815 13.96716011 -10.12890625 8.66015625 C-9.63068359 7.94150391 -9.13246094 7.22285156 -8.61914062 6.48242188 C-4.18224448 0.10701751 -4.18224448 0.10701751 0 0 Z " fill="#E7E7E7" transform="translate(385.81640625,278.90234375)"/>
<path d="M0 0 C0.33 0.66 0.66 1.32 1 2 C4.96 2 8.92 2 13 2 C13 10.25 13 18.5 13 27 C4.75 27 -3.5 27 -12 27 C-12 18 -12 18 -10 15 C-7.6171875 14.70703125 -7.6171875 14.70703125 -4.875 14.8125 C-3.96492188 14.83957031 -3.05484375 14.86664063 -2.1171875 14.89453125 C-1.41851562 14.92933594 -0.71984375 14.96414063 0 15 C-0.12568359 13.50146484 -0.12568359 13.50146484 -0.25390625 11.97265625 C-0.35574219 10.68230469 -0.45757812 9.39195312 -0.5625 8.0625 C-0.66691406 6.77472656 -0.77132813 5.48695313 -0.87890625 4.16015625 C-0.91886719 3.11730469 -0.95882813 2.07445312 -1 1 C-0.67 0.67 -0.34 0.34 0 0 Z " fill="#E6E6E6" transform="translate(399,252)"/>
<path d="M0 0 C1.17210526 -0.00845947 2.34421051 -0.01691895 3.55183411 -0.02563477 C4.82889725 -0.01956207 6.10596039 -0.01348938 7.42172241 -0.00723267 C8.78703735 -0.01129994 10.15234899 -0.0166427 11.51765442 -0.02316284 C15.21793733 -0.03682126 18.91796888 -0.03154469 22.61825609 -0.02202559 C26.49125878 -0.01442439 30.36424011 -0.02147559 34.23724365 -0.02618408 C40.73871726 -0.03163899 47.24008856 -0.02445563 53.74154663 -0.01016235 C61.26078335 0.00617744 68.7797762 0.00086505 76.29900706 -0.01564157 C82.75517352 -0.02924763 89.21126651 -0.03118084 95.66744268 -0.02332556 C99.52344918 -0.01864594 103.37934096 -0.01803233 107.23534012 -0.02793503 C110.85843667 -0.03659018 114.48121803 -0.03060978 118.10428047 -0.01325226 C120.0705484 -0.00738308 122.03684294 -0.01631438 124.00309753 -0.02563477 C125.16956314 -0.01717529 126.33602875 -0.00871582 127.5378418 0 C129.06150329 0.00169662 129.06150329 0.00169662 130.61594582 0.00342751 C133.14193726 0.38095093 133.14193726 0.38095093 136.14193726 3.38095093 C89.28193726 3.05095093 42.42193726 2.72095093 -5.85806274 2.38095093 C-6.51806274 3.70095093 -7.17806274 5.02095093 -7.85806274 6.38095093 C-9.02703612 7.83026633 -10.23745582 9.24694324 -11.48306274 10.63095093 C-12.11470337 11.33735718 -12.74634399 12.04376343 -13.39712524 12.77157593 C-13.87923462 13.30266968 -14.36134399 13.83376343 -14.85806274 14.38095093 C-15.18806274 13.06095093 -15.51806274 11.74095093 -15.85806274 10.38095093 C-14.86806274 9.72095093 -13.87806274 9.06095093 -12.85806274 8.38095093 C-12.56931274 7.57657593 -12.28056274 6.77220093 -11.98306274 5.94345093 C-9.69660393 0.73540585 -5.27952443 0.00587445 0 0 Z " fill="#333333" transform="translate(398.8580627441406,34.619049072265625)"/>
<path d="M0 0 C1.06098372 0.00092179 2.12196745 0.00184359 3.2151022 0.00279331 C4.42811504 0.00141865 5.64112789 0.00004398 6.8908987 -0.00137234 C8.24737478 0.00216727 9.60385061 0.00580208 10.96032619 0.00952244 C12.37917485 0.00980431 13.79802365 0.00964658 15.21687222 0.00907993 C19.08033881 0.00879194 22.94377463 0.01468892 26.80723405 0.02165389 C30.84047653 0.02788716 34.87371965 0.02849121 38.90696621 0.0296793 C46.54970549 0.03279269 54.19243053 0.04100619 61.83516353 0.05102879 C70.53393099 0.06218967 79.23269911 0.06770031 87.93147194 0.07272422 C105.83033965 0.0831888 123.72919408 0.1007884 141.6280508 0.12304783 C141.6280508 0.45304783 141.6280508 0.78304783 141.6280508 1.12304783 C94.4380508 1.45304783 47.2480508 1.78304783 -1.3719492 2.12304783 C-1.0419492 4.76304783 -0.7119492 7.40304783 -0.3719492 10.12304783 C-2.4344492 8.43554783 -2.4344492 8.43554783 -4.3719492 6.12304783 C-3.95908884 0.20538268 -3.95908884 0.20538268 0 0 Z " fill="#545454" transform="translate(34.371949195861816,34.876952171325684)"/>
<path d="M0 0 C4.29 0 8.58 0 13 0 C13 4.29 13 8.58 13 13 C8.71 13 4.42 13 0 13 C0 8.71 0 4.42 0 0 Z " fill="#010101" transform="translate(462,229)"/>
<path d="M0 0 C4.29 0 8.58 0 13 0 C13 4.29 13 8.58 13 13 C9.04 13 5.08 13 1 13 C0.67 8.71 0.34 4.42 0 0 Z " fill="#FEFEFE" transform="translate(399,279)"/>
<path d="M0 0 C3.96 0 7.92 0 12 0 C12 4.29 12 8.58 12 13 C8.04 13 4.08 13 0 13 C0 8.71 0 4.42 0 0 Z " fill="#090909" transform="translate(412,304)"/>
<path d="M0 0 C3.96 0 7.92 0 12 0 C12 4.29 12 8.58 12 13 C8.04 13 4.08 13 0 13 C0 8.71 0 4.42 0 0 Z " fill="#0B0B0B" transform="translate(387,304)"/>
<path d="M0 0 C3.96 0 7.92 0 12 0 C12 4.29 12 8.58 12 13 C8.04 13 4.08 13 0 13 C0 8.71 0 4.42 0 0 Z " fill="#FEFEFE" transform="translate(400,304)"/>
<path d="M0 0 C3.96 0 7.92 0 12 0 C12 4.29 12 8.58 12 13 C8.04 13 4.08 13 0 13 C0 8.71 0 4.42 0 0 Z " fill="#FFFFFF" transform="translate(375,304)"/>
<path d="M0 0 C3.96 0 7.92 0 12 0 C12 4.29 12 8.58 12 13 C8.04 13 4.08 13 0 13 C0 8.71 0 4.42 0 0 Z " fill="#F7F7F7" transform="translate(425,254)"/>
<path d="M0 0 C3.96 0 7.92 0 12 0 C12 4.29 12 8.58 12 13 C8.04 13 4.08 13 0 13 C0 8.71 0 4.42 0 0 Z " fill="#040404" transform="translate(412,254)"/>
<path d="M0 0 C3.96 0 7.92 0 12 0 C12 4.29 12 8.58 12 13 C8.04 13 4.08 13 0 13 C0 8.71 0 4.42 0 0 Z " fill="#E5E5E5" transform="translate(425,229)"/>
<path d="M0 0 C3.96 0 7.92 0 12 0 C12 4.29 12 8.58 12 13 C8.04 13 4.08 13 0 13 C0 8.71 0 4.42 0 0 Z " fill="#000000" transform="translate(437,229)"/>
<path d="M0 0 C3.96 0 7.92 0 12 0 C12 3.96 12 7.92 12 12 C8.04 12 4.08 12 0 12 C0 8.04 0 4.08 0 0 Z " fill="#141414" transform="translate(375,317)"/>
<path d="M0 0 C3.96 0 7.92 0 12 0 C12 3.96 12 7.92 12 12 C8.04 12 4.08 12 0 12 C0 8.04 0 4.08 0 0 Z " fill="#090909" transform="translate(400,317)"/>
<path d="M0 0 C3.96 0 7.92 0 12 0 C12 3.96 12 7.92 12 12 C8.04 12 4.08 12 0 12 C0 8.04 0 4.08 0 0 Z " fill="#090909" transform="translate(400,292)"/>
<path d="M0 0 C3.96 0 7.92 0 12 0 C12 3.96 12 7.92 12 12 C8.04 12 4.08 12 0 12 C0 8.04 0 4.08 0 0 Z " fill="#070707" transform="translate(375,292)"/>
<path d="M0 0 C3.96 0 7.92 0 12 0 C12 3.96 12 7.92 12 12 C8.04 12 4.08 12 0 12 C0 8.04 0 4.08 0 0 Z " fill="#020202" transform="translate(425,292)"/>
<path d="M0 0 C3.96 0 7.92 0 12 0 C12 3.96 12 7.92 12 12 C8.04 12 4.08 12 0 12 C0 8.04 0 4.08 0 0 Z " fill="#FFFFFF" transform="translate(412,292)"/>
<path d="M0 0 C3.96 0 7.92 0 12 0 C12 3.96 12 7.92 12 12 C8.04 12 4.08 12 0 12 C0 8.04 0 4.08 0 0 Z " fill="#FFFFFF" transform="translate(387,292)"/>
<path d="M0 0 C3.96 0 7.92 0 12 0 C12 3.96 12 7.92 12 12 C8.04 12 4.08 12 0 12 C0 8.04 0 4.08 0 0 Z " fill="#050505" transform="translate(412,280)"/>
<path d="M0 0 C3.96 0 7.92 0 12 0 C12 3.96 12 7.92 12 12 C8.04 12 4.08 12 0 12 C0 8.04 0 4.08 0 0 Z " fill="#070707" transform="translate(387,280)"/>
<path d="M0 0 C3.96 0 7.92 0 12 0 C12 3.96 12 7.92 12 12 C8.04 12 4.08 12 0 12 C0 8.04 0 4.08 0 0 Z " fill="#FFFFFF" transform="translate(437,267)"/>
<path d="M0 0 C3.96 0 7.92 0 12 0 C12 3.96 12 7.92 12 12 C8.04 12 4.08 12 0 12 C0 8.04 0 4.08 0 0 Z " fill="#020202" transform="translate(425,267)"/>
<path d="M0 0 C3.96 0 7.92 0 12 0 C12 3.96 12 7.92 12 12 C8.04 12 4.08 12 0 12 C0 8.04 0 4.08 0 0 Z " fill="#FFFFFF" transform="translate(412,267)"/>
<path d="M0 0 C3.96 0 7.92 0 12 0 C12 3.96 12 7.92 12 12 C8.04 12 4.08 12 0 12 C0 8.04 0 4.08 0 0 Z " fill="#000000" transform="translate(400,267)"/>
<path d="M0 0 C3.96 0 7.92 0 12 0 C12 3.96 12 7.92 12 12 C8.04 12 4.08 12 0 12 C0 8.04 0 4.08 0 0 Z " fill="#F5F5F5" transform="translate(450,255)"/>
<path d="M0 0 C3.96 0 7.92 0 12 0 C12 3.96 12 7.92 12 12 C8.04 12 4.08 12 0 12 C0 8.04 0 4.08 0 0 Z " fill="#000000" transform="translate(437,254)"/>
<path d="M0 0 C3.96 0 7.92 0 12 0 C12 3.96 12 7.92 12 12 C8.04 12 4.08 12 0 12 C0 8.04 0 4.08 0 0 Z " fill="#FEFEFE" transform="translate(400,254)"/>
<path d="M0 0 C3.96 0 7.92 0 12 0 C12 3.96 12 7.92 12 12 C8.04 12 4.08 12 0 12 C0 8.04 0 4.08 0 0 Z " fill="#000000" transform="translate(450,242)"/>
<path d="M0 0 C3.96 0 7.92 0 12 0 C12 3.96 12 7.92 12 12 C8.04 12 4.08 12 0 12 C0 8.04 0 4.08 0 0 Z " fill="#FFFFFF" transform="translate(437,242)"/>
<path d="M0 0 C3.96 0 7.92 0 12 0 C12 3.96 12 7.92 12 12 C8.04 12 4.08 12 0 12 C0 8.04 0 4.08 0 0 Z " fill="#020202" transform="translate(425,242)"/>
<path d="M0 0 C3.96 0 7.92 0 12 0 C12 3.96 12 7.92 12 12 C8.04 12 4.08 12 0 12 C0 8.04 0 4.08 0 0 Z " fill="#FFFFFF" transform="translate(412,242)"/>
<path d="M0 0 C3.96 0 7.92 0 12 0 C12 3.96 12 7.92 12 12 C8.04 12 4.08 12 0 12 C0 8.04 0 4.08 0 0 Z " fill="#EBEBEB" transform="translate(462,217)"/>
<path d="M0 0 C3.96 0 7.92 0 12 0 C12 3.96 12 7.92 12 12 C8.04 12 4.08 12 0 12 C0 8.04 0 4.08 0 0 Z " fill="#000000" transform="translate(450,217)"/>
<path d="M0 0 C3.96 0 7.92 0 12 0 C12 3.96 12 7.92 12 12 C8.04 12 4.08 12 0 12 C0 8.04 0 4.08 0 0 Z " fill="#F3F3F3" transform="translate(437,217)"/>
<path d="M0 0 C3.96 0 7.92 0 12 0 C12 3.96 12 7.92 12 12 C8.04 12 4.08 12 0 12 C0 8.04 0 4.08 0 0 Z " fill="#000000" transform="translate(425,217)"/>
<path d="M0 0 C3.96 0 7.92 0 12 0 C12 3.96 12 7.92 12 12 C8.04 12 4.08 12 0 12 C0 8.04 0 4.08 0 0 Z " fill="#DFDFDF" transform="translate(487,192)"/>
<path d="M0 0 C3.96 0 7.92 0 12 0 C12 3.96 12 7.92 12 12 C8.04 12 4.08 12 0 12 C0 8.04 0 4.08 0 0 Z " fill="#E6E6E6" transform="translate(437,192)"/>
<path d="M0 0 C2.83203125 0.03255208 5.6640625 0.06510417 8.49609375 0.09765625 C8.49609375 4.05765625 8.49609375 8.01765625 8.49609375 12.09765625 C4.53609375 12.09765625 0.57609375 12.09765625 -3.50390625 12.09765625 C-3.6015625 3.6015625 -3.6015625 3.6015625 -3.50390625 1.09765625 C-2.50390625 0.09765625 -2.50390625 0.09765625 0 0 Z " fill="#E0E0E0" transform="translate(465.50390625,191.90234375)"/>
<path d="M0 0 C3.96 0 7.92 0 12 0 C12.35294118 7.05882353 12.35294118 7.05882353 11.0625 10.5 C7.6170637 13.00577185 4.165678 12.24148858 0 12 C0 8.04 0 4.08 0 0 Z " fill="#FDFDFD" transform="translate(412,317)"/>
<path d="M0 0 C3.96 0 7.92 0 12 0 C12.21179783 3.60056319 12.16361343 6.48734458 11.0625 9.9375 C8.55593899 12.44406101 7.75197868 12.30168403 4.3125 12.3125 C2.1778125 12.1578125 2.1778125 12.1578125 0 12 C0 8.04 0 4.08 0 0 Z " fill="#F9F9F9" transform="translate(462,242)"/>
<path d="M0 0 C3.96 0 7.92 0 12 0 C12 3.63 12 7.26 12 11 C8.04 11 4.08 11 0 11 C0 7.37 0 3.74 0 0 Z " fill="#FAFAFA" transform="translate(450,230)"/>
<path d="M0 0 C2.01036701 -0.00710377 4.01977759 0.14045308 6.0234375 0.3046875 C6.0234375 4.2646875 6.0234375 8.2246875 6.0234375 12.3046875 C2.0634375 12.3046875 -1.8965625 12.3046875 -5.9765625 12.3046875 C-4.84341802 0.74661385 -4.84341802 0.74661385 0 0 Z " fill="#EFEFEF" transform="translate(430.9765625,204.6953125)"/>
<path d="M0 0 C3.63 0 7.26 0 11 0 C11 3.63 11 7.26 11 11 C7.37 11 3.74 11 0 11 C0 7.37 0 3.74 0 0 Z " fill="#FFFFFF" transform="translate(475,205)"/>
<path d="M0 0 C3.63 0 7.26 0 11 0 C11 3.63 11 7.26 11 11 C7.37 11 3.74 11 0 11 C0 7.37 0 3.74 0 0 Z " fill="#FEFEFE" transform="translate(450,205)"/>
<path d="M0 0 C3.63 0 7.26 0 11 0 C11 3.63 11 7.26 11 11 C7.37 11 3.74 11 0 11 C0 7.37 0 3.74 0 0 Z " fill="#F0F0F0" transform="translate(500,180)"/>
<path d="M0 0 C3.63 0 7.26 0 11 0 C11 3.63 11 7.26 11 11 C7.37 11 3.74 11 0 11 C0 7.37 0 3.74 0 0 Z " fill="#F6F6F6" transform="translate(475,180)"/>
<path d="M0 0 C3.63 0 7.26 0 11 0 C11 3.63 11 7.26 11 11 C7.37 11 3.74 11 0 11 C0 7.37 0 3.74 0 0 Z " fill="#F4F4F4" transform="translate(450,180)"/>
<path d="M0 0 C3.3 0 6.6 0 10 0 C10 3.63 10 7.26 10 11 C6.7 11 3.4 11 0 11 C0 7.37 0 3.74 0 0 Z " fill="#0B0B0B" transform="translate(388,330)"/>
<path d="M0 0 C3.63 0 7.26 0 11 0 C11 3.3 11 6.6 11 10 C7.37 10 3.74 10 0 10 C0 6.7 0 3.4 0 0 Z " fill="#E7E7E7" transform="translate(475,156)"/>
<path d="M0 0 C3.96 0 7.92 0 12 0 C6.23658836 10.59221599 6.23658836 10.59221599 4 13 C2.68 13 1.36 13 0 13 C0 8.71 0 4.42 0 0 Z " fill="#F8F8F8" transform="translate(425,304)"/>
<path d="M0 0 C3.3 0 6.6 0 10 0 C10.20145347 3.49186021 10.34907805 6.19917389 8.9375 9.4375 C6.04961448 11.76643994 3.58423038 11.27050795 0 11 C0 7.37 0 3.74 0 0 Z " fill="#EBEBEB" transform="translate(513,168)"/>
<path d="M0 0 C3.3 0 6.6 0 10 0 C10 3.3 10 6.6 10 10 C6.7 10 3.4 10 0 10 C0 6.7 0 3.4 0 0 Z " fill="#141414" transform="translate(363,330)"/>
<path d="M0 0 C3.3 0 6.6 0 10 0 C10 3.3 10 6.6 10 10 C6.7 10 3.4 10 0 10 C0 6.7 0 3.4 0 0 Z " fill="#FFFFFF" transform="translate(488,168)"/>
<path d="M0 0 C3.3 0 6.6 0 10 0 C10 3.3 10 6.6 10 10 C6.7 10 3.4 10 0 10 C0 6.7 0 3.4 0 0 Z " fill="#FFFFFF" transform="translate(463,168)"/>
<path d="M0 0 C3.3 0 6.6 0 10 0 C10 3.3 10 6.6 10 10 C6.7 10 3.4 10 0 10 C0 6.7 0 3.4 0 0 Z " fill="#EFEFEF" transform="translate(501,156)"/>
<path d="M0 0 C3.3 0 6.6 0 10 0 C10 3.3 10 6.6 10 10 C6.7 10 3.4 10 0 10 C0 6.7 0 3.4 0 0 Z " fill="#E1E1E1" transform="translate(513,143)"/>
<path d="M0 0 C3.3 0 6.6 0 10 0 C10 3.3 10 6.6 10 10 C6.7 10 3.4 10 0 10 C0 6.7 0 3.4 0 0 Z " fill="#F1F1F1" transform="translate(488,143)"/>
<path d="M0 0 C3.63 0 7.26 0 11 0 C9.62913171 3.42717074 8.63046291 5.88094753 6.625 8.8125 C6.22539062 9.41707031 5.82578125 10.02164063 5.4140625 10.64453125 C4 12 4 12 0 12 C0 8.04 0 4.08 0 0 Z " fill="#EBEBEB" transform="translate(475,229)"/>
<path d="M0 0 C2.97 0 5.94 0 9 0 C9 2.97 9 5.94 9 9 C6.03 9 3.06 9 0 9 C0 6.03 0 3.06 0 0 Z " fill="#151515" transform="translate(376,344)"/>
<path d="M0 0 C2.97 0 5.94 0 9 0 C9 2.97 9 5.94 9 9 C6.03 9 3.06 9 0 9 C0 6.03 0 3.06 0 0 Z " fill="#F6F6F6" transform="translate(526,131)"/>
<path d="M0 0 C2.97 0 5.94 0 9 0 C9 2.97 9 5.94 9 9 C6.03 9 3.06 9 0 9 C0 6.03 0 3.06 0 0 Z " fill="#F4F4F4" transform="translate(501,131)"/>
<path d="M0 0 C2.97 0 5.94 0 9 0 C9 2.97 9 5.94 9 9 C6.03 9 3.06 9 0 9 C0 6.03 0 3.06 0 0 Z " fill="#E6E6E6" transform="translate(514,119)"/>
<path d="M0 0 C2.97 0 5.94 0 9 0 C9 2.97 9 5.94 9 9 C6.03 9 3.06 9 0 9 C0 6.03 0 3.06 0 0 Z " fill="#E9E9E9" transform="translate(489,119)"/>
<path d="M0 0 C2.97 0 5.94 0 9 0 C9 2.97 9 5.94 9 9 C6.03 9 3.06 9 0 9 C0 6.03 0 3.06 0 0 Z " fill="#D2D2D2" transform="translate(526,106)"/>
<path d="M0 0 C2.64 0 5.28 0 8 0 C8 2.97 8 5.94 8 9 C5.03 9 2.06 9 -1 9 C-1.125 2.25 -1.125 2.25 0 0 Z " fill="#F7F7F7" transform="translate(477,131)"/>
<path d="M0 0 C0.74168427 0.00444122 1.48336853 0.00888245 2.24752808 0.01345825 C3.50860886 0.01368484 3.50860886 0.01368484 4.79516602 0.01391602 C6.15773026 0.02939987 6.15773026 0.02939987 7.54782104 0.04519653 C8.47722504 0.04802643 9.40662903 0.05085632 10.36419678 0.05377197 C13.33959704 0.06498834 16.3146989 0.09009543 19.29000854 0.11550903 C21.30432712 0.12553696 23.31865041 0.13466313 25.33297729 0.14285278 C30.27710311 0.16493243 35.22100519 0.1994721 40.16500854 0.24050903 C40.16500854 0.57050903 40.16500854 0.90050903 40.16500854 1.24050903 C27.29500854 1.24050903 14.42500854 1.24050903 1.16500854 1.24050903 C0.50500854 2.56050903 -0.15499146 3.88050903 -0.83499146 5.24050903 C-2.00396483 6.68982444 -3.21438453 8.10650134 -4.45999146 9.49050903 C-5.09163208 10.19691528 -5.72327271 10.90332153 -6.37405396 11.63113403 C-6.85616333 12.16222778 -7.33827271 12.69332153 -7.83499146 13.24050903 C-8.16499146 11.92050903 -8.49499146 10.60050903 -8.83499146 9.24050903 C-7.84499146 8.58050903 -6.85499146 7.92050903 -5.83499146 7.24050903 C-5.13287252 5.58846448 -4.46527732 3.92127134 -3.83499146 2.24050903 C-1.83499146 0.24050903 -1.83499146 0.24050903 0 0 Z " fill="#141414" transform="translate(391.8349914550781,35.759490966796875)"/>
<path d="M0 0 C0.33 0.99 0.66 1.98 1 3 C-0.16839856 4.4688439 -1.34906124 5.93030591 -2.6015625 7.328125 C-3.98748093 8.98503307 -5.01865381 10.61272609 -6.0625 12.5 C-11.13249174 21.66263568 -11.13249174 21.66263568 -14.25 22.875 C-14.8275 22.91625 -15.405 22.9575 -16 23 C-14.3537846 18.04187197 -11.51367981 14.06419972 -8.5625 9.8125 C-8.07201172 9.08869141 -7.58152344 8.36488281 -7.07617188 7.61914062 C-6.59857422 6.92626953 -6.12097656 6.23339844 -5.62890625 5.51953125 C-5.19650635 4.89151611 -4.76410645 4.26350098 -4.31860352 3.61645508 C-3 2 -3 2 0 0 Z " fill="#EFEFEF" transform="translate(513,214)"/>
<path d="M0 0 C0.66 0 1.32 0 2 0 C2 3.96 2 7.92 2 12 C-1.3 12 -4.6 12 -8 12 C-6.85573734 10.186508 -5.70954608 8.37423275 -4.5625 6.5625 C-3.60537109 5.04849609 -3.60537109 5.04849609 -2.62890625 3.50390625 C-1 1 -1 1 0 0 Z " fill="#F2F2F2" transform="translate(422,217)"/>
<path d="M0 0 C2.97 0 5.94 0 9 0 C9 2.64 9 5.28 9 8 C6.03 8 3.06 8 0 8 C0 5.36 0 2.72 0 0 Z " fill="#E9E9E9" transform="translate(539,119)"/>
<path d="M0 0 C2.64 0 5.28 0 8 0 C8 2.64 8 5.28 8 8 C5.36 8 2.72 8 0 8 C0 5.36 0 2.72 0 0 Z " fill="#0E0E0E" transform="translate(352,344)"/>
<path d="M0 0 C1.32 0 2.64 0 4 0 C4 3.3 4 6.6 4 10 C1.03 10 -1.94 10 -5 10 C-3.66759388 6.41275276 -2.29060528 3.08350711 0 0 Z " fill="#F6F6F6" transform="translate(469,143)"/>
<path d="M0 0 C2.64 0 5.28 0 8 0 C8 2.64 8 5.28 8 8 C5.36 8 2.72 8 0 8 C0 5.36 0 2.72 0 0 Z " fill="#FBFBFB" transform="translate(502,107)"/>
<path d="M0 0 C2.64 0 5.28 0 8 0 C8 2.64 8 5.28 8 8 C5.36 8 2.72 8 0 8 C0 5.36 0 2.72 0 0 Z " fill="#F5F5F5" transform="translate(514,94)"/>
<path d="M0 0 C0.66 0 1.32 0 2 0 C0.50270432 4.33001725 -1.79993448 7.85968184 -4.4375 11.5625 C-4.83259766 12.12646484 -5.22769531 12.69042969 -5.63476562 13.27148438 C-6.74728252 14.85418312 -7.87326513 16.42739144 -9 18 C-9.79083984 19.18916016 -9.79083984 19.18916016 -10.59765625 20.40234375 C-11.06042969 20.92957031 -11.52320313 21.45679688 -12 22 C-12.99 22 -13.98 22 -15 22 C-15.33 20.68 -15.66 19.36 -16 18 C-14.68 18 -13.36 18 -12 18 C-10.27635096 15.76552949 -8.85822174 13.66498737 -7.4375 11.25 C-6.66660389 9.98361975 -5.89449716 8.71797555 -5.12109375 7.453125 C-4.75741699 6.85564453 -4.39374023 6.25816406 -4.01904297 5.64257812 C-2.78471125 3.6529797 -1.53975667 1.76737287 0 0 Z " fill="#EBEBEB" transform="translate(333,127)"/>
<path d="M0 0 C2.64 0 5.28 0 8 0 C8 2.31 8 4.62 8 7 C5.36 7 2.72 7 0 7 C0 4.69 0 2.38 0 0 Z " fill="#050505" transform="translate(389,357)"/>
<path d="M0 0 C2.64 0 5.28 0 8 0 C8 2.31 8 4.62 8 7 C5.36 7 2.72 7 0 7 C0 4.69 0 2.38 0 0 Z " fill="#ECECEC" transform="translate(539,95)"/>
<path d="M0 0 C1.16781006 0.00523682 2.33562012 0.01047363 3.53881836 0.01586914 C4.79887695 0.0190918 6.05893555 0.02231445 7.35717773 0.02563477 C8.6976732 0.03399136 10.03816799 0.04245632 11.37866211 0.05102539 C12.72306153 0.05603879 14.06746271 0.06060197 15.41186523 0.06469727 C18.71334151 0.07653051 22.01473014 0.09301568 25.31616211 0.11352539 C25.31616211 0.44352539 25.31616211 0.77352539 25.31616211 1.11352539 C11.95116211 1.60852539 11.95116211 1.60852539 -1.68383789 2.11352539 C-1.35383789 4.75352539 -1.02383789 7.39352539 -0.68383789 10.11352539 C-2.74633789 8.42602539 -2.74633789 8.42602539 -4.68383789 6.11352539 C-4.26991397 0.18061585 -4.26991397 0.18061585 0 0 Z " fill="#2D2D2D" transform="translate(34.683837890625,34.886474609375)"/>
<path d="M0 0 C0.33 0 0.66 0 1 0 C1 3.96 1 7.92 1 12 C-1.64 12 -4.28 12 -7 12 C-2.78287462 3.18042813 -2.78287462 3.18042813 0 0 Z " fill="#F7F7F7" transform="translate(373,292)"/>
<path d="M0 0 C2.97 0 5.94 0 9 0 C8.07544441 1.508013 7.1349253 3.00624917 6.1875 4.5 C5.66542969 5.3353125 5.14335938 6.170625 4.60546875 7.03125 C3.81076172 8.00578125 3.81076172 8.00578125 3 9 C2.01 9 1.02 9 0 9 C0 6.03 0 3.06 0 0 Z " fill="#FBFBFB" transform="translate(526,156)"/>
<path d="M0 0 C2.64 0 5.28 0 8 0 C7.23570339 1.44098611 6.46327445 2.87766054 5.6875 4.3125 C5.04361328 5.51326172 5.04361328 5.51326172 4.38671875 6.73828125 C3 9 3 9 0 12 C0 8.04 0 4.08 0 0 Z " fill="#F4F4F4" transform="translate(437,292)"/>
<path d="M0 0 C2.31 0 4.62 0 7 0 C7 2.31 7 4.62 7 7 C4.69 7 2.38 7 0 7 C0 4.69 0 2.38 0 0 Z " fill="#0A0A0A" transform="translate(365,357)"/>
<path d="M0 0 C2.31 0 4.62 0 7 0 C7 2.31 7 4.62 7 7 C4.69 7 2.38 7 0 7 C0 4.69 0 2.38 0 0 Z " fill="#FFFFFF" transform="translate(552,107)"/>
<path d="M0 0 C2.31 0 4.62 0 7 0 C7 2.31 7 4.62 7 7 C4.69 7 2.38 7 0 7 C0 4.69 0 2.38 0 0 Z " fill="#EFEFEF" transform="translate(527,82)"/>
<path d="M0 0 C2.31 0 4.62 0 7 0 C5.55007731 4.10811428 3.54592427 7.46855666 1 11 C0.67 11 0.34 11 0 11 C0 7.37 0 3.74 0 0 Z " fill="#C7C7C7" transform="translate(487,217)"/>
<path d="M0 0 C2.31 0 4.62 0 7 0 C7 1.98 7 3.96 7 6 C4.69 6 2.38 6 0 6 C0 4.02 0 2.04 0 0 Z " fill="#E1E1E1" transform="translate(527,58)"/>
<path d="M0 0 C1.66611905 -0.042721 3.33382885 -0.04063832 5 0 C6 1 6 1 6.0625 4.0625 C6.041875 5.031875 6.02125 6.00125 6 7 C4.02 7 2.04 7 0 7 C0 4.69 0 2.38 0 0 Z " fill="#E1E1E1" transform="translate(540,70)"/>
<path d="M0 0 C0.33 0 0.66 0 1 0 C1 3.96 1 7.92 1 12 C1.99 12 2.98 12 4 12 C2.25 16.875 2.25 16.875 0 18 C0 16.35 0 14.7 0 13 C-3.96 13 -7.92 13 -12 13 C-12 12.67 -12 12.34 -12 12 C-8.04 12 -4.08 12 0 12 C0 8.04 0 4.08 0 0 Z " fill="#B0B0B0" transform="translate(449,267)"/>
<path d="M0 0 C1.32 0 2.64 0 4 0 C4 2.31 4 4.62 4 7 C2.02 7 0.04 7 -2 7 C-2.125 4.625 -2.125 4.625 -2 2 C-1.34 1.34 -0.68 0.68 0 0 Z " fill="#F0F0F0" transform="translate(517,70)"/>
<path d="M0 0 C1.98 0 3.96 0 6 0 C6 1.98 6 3.96 6 6 C4.02 6 2.04 6 0 6 C0 4.02 0 2.04 0 0 Z " fill="#282828" transform="translate(390,382)"/>
<path d="M0 0 C0.66 0.33 1.32 0.66 2 1 C2 4.96130371 0.65122875 5.82914401 -2 8.6875 C-2.7425 9.49574219 -3.485 10.30398437 -4.25 11.13671875 C-4.8275 11.75160156 -5.405 12.36648437 -6 13 C-6.33 11.68 -6.66 10.36 -7 9 C-6.01 8.34 -5.02 7.68 -4 7 C-3.29788106 5.34795544 -2.63028587 3.68076231 -2 2 C-1.34 1.34 -0.68 0.68 0 0 Z " fill="#454545" transform="translate(390,36)"/>
<path d="M0 0 C0.99 0 1.98 0 3 0 C4.32 2.31 5.64 4.62 7 7 C4.69 7 2.38 7 0 7 C0 4.69 0 2.38 0 0 Z " fill="#E2E2E2" transform="translate(552,82)"/>
<path d="M0 0 C0.33 0 0.66 0 1 0 C1 2.97 1 5.94 1 9 C-0.98 9 -2.96 9 -5 9 C-3.50164236 5.88802644 -1.86022073 2.91164984 0 0 Z " fill="#C3C3C3" transform="translate(411,233)"/>
<path d="M0 0 C1.65 0 3.3 0 5 0 C5 1.98 5 3.96 5 6 C3.35 6 1.7 6 0 6 C0 4.02 0 2.04 0 0 Z " fill="#151515" transform="translate(353,370)"/>
<path d="M0 0 C1.65 0 3.3 0 5 0 C5 1.98 5 3.96 5 6 C3.35 6 1.7 6 0 6 C0 4.02 0 2.04 0 0 Z " fill="#000000" transform="translate(378,370)"/>
<path d="M0 0 C0.33 0 0.66 0 1 0 C1 2.64 1 5.28 1 8 C-0.98 8 -2.96 8 -5 8 C-4.19185349 6.66402348 -3.37836819 5.331275 -2.5625 4 C-2.11003906 3.2575 -1.65757812 2.515 -1.19140625 1.75 C-0.79824219 1.1725 -0.40507812 0.595 0 0 Z " fill="#DDDDDD" transform="translate(460,158)"/>
<path d="M0 0 C1.65 0 3.3 0 5 0 C5 1.65 5 3.3 5 5 C3.35 5 1.7 5 0 5 C0 3.35 0 1.7 0 0 Z " fill="#181818" transform="translate(366,383)"/>
<path d="M0 0 C0.99 0.33 1.98 0.66 3 1 C2.19185349 2.33597652 1.37836819 3.668725 0.5625 5 C0.11003906 5.7425 -0.34242188 6.485 -0.80859375 7.25 C-1.20175781 7.8275 -1.59492188 8.405 -2 9 C-2.33 9 -2.66 9 -3 9 C-3.36923077 3.46153846 -3.36923077 3.46153846 -1.5 1.125 C-1.005 0.75375 -0.51 0.3825 0 0 Z " fill="#DDDDDD" transform="translate(512,50)"/>
<path d="M0 0 C0 3.48961209 -0.90379374 5.11480295 -2.5 8.1875 C-2.9640625 9.08855469 -3.428125 9.98960938 -3.90625 10.91796875 C-4.2671875 11.60503906 -4.628125 12.29210938 -5 13 C-5.66 13 -6.32 13 -7 13 C-5.60332244 8.11162854 -3.65571105 3.65571105 0 0 Z " fill="#676767" transform="translate(382,49)"/>
<path d="M0 0 C1.65 0 3.3 0 5 0 C5 1.32 5 2.64 5 4 C3.35 4 1.7 4 0 4 C0 2.68 0 1.36 0 0 Z " fill="#292929" transform="translate(378,396)"/>
<path d="M0 0 C0.66 0 1.32 0 2 0 C0.8141763 3.37503669 -0.27573689 5.64722731 -3 8 C-3.33 7.01 -3.66 6.02 -4 5 C-2.1875 2.3125 -2.1875 2.3125 0 0 Z " fill="#E6E6E6" transform="translate(333,127)"/>
<path d="M0 0 C0.625 1.8125 0.625 1.8125 1 4 C0.01 5.485 0.01 5.485 -1 7 C-1.99 7 -2.98 7 -4 7 C-2.92598892 4.08482708 -2.22189824 2.22189824 0 0 Z " fill="#F5F5F5" transform="translate(337,120)"/>
<path d="M0 0 C2.475 0.495 2.475 0.495 5 1 C5 1.99 5 2.98 5 4 C3.35 3.67 1.7 3.34 0 3 C0 2.01 0 1.02 0 0 Z " fill="#FFFFFF" transform="translate(286,92)"/>
<path d="M0 0 C0.99 0.33 1.98 0.66 3 1 C3.6875 3.0625 3.6875 3.0625 4 5 C3.01 4.67 2.02 4.34 1 4 C0.3125 1.9375 0.3125 1.9375 0 0 Z " fill="#FFFFFF" transform="translate(553,50)"/>
<path d="M0 0 C0.99 0 1.98 0 3 0 C3 0.99 3 1.98 3 3 C2.01 3 1.02 3 0 3 C0 2.01 0 1.02 0 0 Z " fill="#FFFFFF" transform="translate(269,83)"/>
<path d="M0 0 C2 1 2 1 2 1 Z " fill="#FFFFFF" transform="translate(220,52)"/>
<path d="" fill="#FFFFFF" transform="translate(0,0)"/>
</svg>
